G04 MADE WITH FRITZING*
G04 WWW.FRITZING.ORG*
G04 DOUBLE SIDED*
G04 HOLES PLATED*
G04 CONTOUR ON CENTER OF CONTOUR VECTOR*
%ASAXBY*%
%FSLAX23Y23*%
%MOIN*%
%OFA0B0*%
%SFA1.0B1.0*%
%ADD10C,0.008*%
%LNCONTOUR*%
G90*
G70*
G54D10*
X376Y5906D02*
X377Y5906D01*
X378Y5906D01*
X379Y5906D01*
X380Y5906D01*
X381Y5906D01*
X382Y5906D01*
X383Y5906D01*
X384Y5906D01*
X385Y5906D01*
X386Y5906D01*
X387Y5906D01*
X388Y5906D01*
X389Y5906D01*
X390Y5906D01*
X391Y5906D01*
X392Y5906D01*
X393Y5906D01*
X394Y5906D01*
X395Y5906D01*
X396Y5906D01*
X397Y5906D01*
X398Y5906D01*
X399Y5906D01*
X400Y5906D01*
X401Y5906D01*
X402Y5906D01*
X403Y5906D01*
X404Y5906D01*
X405Y5906D01*
X406Y5906D01*
X407Y5906D01*
X408Y5906D01*
X409Y5906D01*
X410Y5906D01*
X411Y5906D01*
X412Y5906D01*
X413Y5906D01*
X414Y5906D01*
X415Y5906D01*
X416Y5906D01*
X417Y5906D01*
X418Y5906D01*
X419Y5906D01*
X420Y5906D01*
X421Y5906D01*
X422Y5906D01*
X423Y5906D01*
X424Y5906D01*
X425Y5906D01*
X426Y5906D01*
X427Y5906D01*
X428Y5906D01*
X429Y5906D01*
X430Y5906D01*
X431Y5906D01*
X432Y5906D01*
X433Y5906D01*
X434Y5906D01*
X435Y5906D01*
X436Y5906D01*
X437Y5906D01*
X438Y5906D01*
X439Y5906D01*
X440Y5906D01*
X441Y5906D01*
X442Y5906D01*
X443Y5906D01*
X444Y5906D01*
X445Y5906D01*
X446Y5906D01*
X447Y5906D01*
X448Y5906D01*
X449Y5906D01*
X450Y5906D01*
X451Y5906D01*
X452Y5906D01*
X453Y5906D01*
X454Y5906D01*
X455Y5906D01*
X456Y5906D01*
X457Y5906D01*
X458Y5906D01*
X459Y5906D01*
X460Y5906D01*
X461Y5906D01*
X462Y5906D01*
X463Y5906D01*
X464Y5906D01*
X465Y5906D01*
X466Y5906D01*
X467Y5906D01*
X468Y5906D01*
X469Y5906D01*
X470Y5906D01*
X471Y5906D01*
X472Y5906D01*
X473Y5906D01*
X474Y5906D01*
X475Y5906D01*
X476Y5906D01*
X477Y5906D01*
X478Y5906D01*
X479Y5906D01*
X480Y5906D01*
X481Y5906D01*
X482Y5906D01*
X483Y5906D01*
X484Y5906D01*
X485Y5906D01*
X486Y5906D01*
X487Y5906D01*
X488Y5906D01*
X489Y5906D01*
X490Y5906D01*
X491Y5906D01*
X492Y5906D01*
X493Y5906D01*
X494Y5906D01*
X495Y5906D01*
X496Y5906D01*
X497Y5906D01*
X498Y5906D01*
X499Y5906D01*
X500Y5906D01*
X501Y5906D01*
X502Y5906D01*
X503Y5906D01*
X504Y5906D01*
X505Y5906D01*
X506Y5906D01*
X507Y5906D01*
X508Y5906D01*
X509Y5906D01*
X510Y5906D01*
X511Y5906D01*
X512Y5906D01*
X513Y5906D01*
X514Y5906D01*
X515Y5906D01*
X516Y5906D01*
X517Y5906D01*
X518Y5906D01*
X519Y5906D01*
X520Y5906D01*
X521Y5906D01*
X522Y5906D01*
X523Y5906D01*
X524Y5906D01*
X525Y5906D01*
X526Y5906D01*
X527Y5906D01*
X528Y5906D01*
X529Y5906D01*
X530Y5906D01*
X531Y5906D01*
X532Y5906D01*
X533Y5906D01*
X534Y5906D01*
X535Y5906D01*
X536Y5906D01*
X537Y5906D01*
X538Y5906D01*
X539Y5906D01*
X540Y5906D01*
X541Y5906D01*
X542Y5906D01*
X543Y5906D01*
X544Y5906D01*
X545Y5906D01*
X546Y5906D01*
X547Y5906D01*
X548Y5906D01*
X549Y5906D01*
X550Y5906D01*
X551Y5906D01*
X552Y5906D01*
X553Y5906D01*
X554Y5906D01*
X555Y5906D01*
X556Y5906D01*
X557Y5906D01*
X558Y5906D01*
X559Y5906D01*
X560Y5906D01*
X561Y5906D01*
X562Y5906D01*
X563Y5906D01*
X564Y5906D01*
X565Y5906D01*
X566Y5906D01*
X567Y5906D01*
X568Y5906D01*
X569Y5906D01*
X570Y5906D01*
X571Y5906D01*
X572Y5906D01*
X573Y5906D01*
X574Y5906D01*
X575Y5906D01*
X576Y5906D01*
X577Y5906D01*
X578Y5906D01*
X579Y5906D01*
X580Y5906D01*
X581Y5906D01*
X582Y5906D01*
X583Y5906D01*
X584Y5906D01*
X585Y5906D01*
X586Y5906D01*
X587Y5906D01*
X588Y5906D01*
X589Y5906D01*
X590Y5906D01*
X591Y5906D01*
X592Y5906D01*
X593Y5906D01*
X594Y5906D01*
X595Y5906D01*
X596Y5906D01*
X597Y5906D01*
X598Y5906D01*
X599Y5906D01*
X600Y5906D01*
X601Y5906D01*
X602Y5906D01*
X603Y5906D01*
X604Y5906D01*
X605Y5906D01*
X606Y5906D01*
X607Y5906D01*
X608Y5906D01*
X609Y5906D01*
X610Y5906D01*
X611Y5906D01*
X612Y5906D01*
X613Y5906D01*
X614Y5906D01*
X615Y5906D01*
X616Y5906D01*
X617Y5906D01*
X618Y5906D01*
X619Y5906D01*
X620Y5906D01*
X621Y5906D01*
X622Y5906D01*
X623Y5906D01*
X624Y5906D01*
X625Y5906D01*
X626Y5906D01*
X627Y5906D01*
X628Y5906D01*
X629Y5906D01*
X630Y5906D01*
X631Y5906D01*
X632Y5906D01*
X633Y5906D01*
X634Y5906D01*
X635Y5906D01*
X636Y5906D01*
X637Y5906D01*
X638Y5906D01*
X639Y5906D01*
X640Y5906D01*
X641Y5906D01*
X642Y5906D01*
X643Y5906D01*
X644Y5906D01*
X645Y5906D01*
X646Y5906D01*
X647Y5906D01*
X648Y5906D01*
X649Y5906D01*
X650Y5906D01*
X651Y5906D01*
X652Y5906D01*
X653Y5906D01*
X654Y5906D01*
X655Y5906D01*
X656Y5906D01*
X657Y5906D01*
X658Y5906D01*
X659Y5906D01*
X660Y5906D01*
X661Y5906D01*
X662Y5906D01*
X663Y5906D01*
X664Y5906D01*
X665Y5906D01*
X666Y5906D01*
X667Y5906D01*
X668Y5906D01*
X669Y5906D01*
X670Y5906D01*
X671Y5906D01*
X672Y5906D01*
X673Y5906D01*
X674Y5906D01*
X675Y5906D01*
X676Y5906D01*
X677Y5906D01*
X678Y5906D01*
X679Y5906D01*
X680Y5906D01*
X681Y5906D01*
X682Y5906D01*
X683Y5906D01*
X684Y5906D01*
X685Y5906D01*
X686Y5906D01*
X687Y5906D01*
X688Y5906D01*
X689Y5906D01*
X690Y5906D01*
X691Y5906D01*
X692Y5906D01*
X693Y5906D01*
X694Y5906D01*
X695Y5906D01*
X696Y5906D01*
X697Y5906D01*
X698Y5906D01*
X699Y5906D01*
X700Y5906D01*
X701Y5906D01*
X702Y5906D01*
X703Y5906D01*
X704Y5906D01*
X705Y5906D01*
X706Y5906D01*
X707Y5906D01*
X708Y5906D01*
X709Y5906D01*
X710Y5906D01*
X711Y5906D01*
X712Y5906D01*
X713Y5906D01*
X714Y5906D01*
X715Y5906D01*
X716Y5906D01*
X717Y5906D01*
X718Y5906D01*
X719Y5906D01*
X720Y5906D01*
X721Y5906D01*
X722Y5906D01*
X723Y5906D01*
X724Y5906D01*
X725Y5906D01*
X726Y5906D01*
X727Y5906D01*
X728Y5906D01*
X729Y5906D01*
X730Y5906D01*
X731Y5906D01*
X732Y5906D01*
X733Y5906D01*
X734Y5906D01*
X735Y5906D01*
X736Y5906D01*
X737Y5906D01*
X738Y5906D01*
X739Y5906D01*
X740Y5906D01*
X741Y5906D01*
X742Y5906D01*
X743Y5906D01*
X744Y5906D01*
X745Y5906D01*
X746Y5906D01*
X747Y5906D01*
X748Y5906D01*
X749Y5906D01*
X750Y5906D01*
X751Y5906D01*
X752Y5906D01*
X753Y5906D01*
X754Y5906D01*
X755Y5906D01*
X756Y5906D01*
X757Y5906D01*
X758Y5906D01*
X759Y5906D01*
X760Y5906D01*
X761Y5906D01*
X762Y5906D01*
X763Y5906D01*
X764Y5906D01*
X765Y5906D01*
X766Y5906D01*
X767Y5906D01*
X768Y5906D01*
X769Y5906D01*
X770Y5906D01*
X771Y5906D01*
X772Y5906D01*
X773Y5906D01*
X774Y5906D01*
X775Y5906D01*
X776Y5906D01*
X777Y5906D01*
X778Y5906D01*
X779Y5906D01*
X780Y5906D01*
X781Y5906D01*
X782Y5906D01*
X783Y5906D01*
X784Y5906D01*
X785Y5906D01*
X786Y5906D01*
X787Y5906D01*
X788Y5906D01*
X789Y5906D01*
X790Y5906D01*
X791Y5906D01*
X792Y5906D01*
X793Y5906D01*
X794Y5906D01*
X795Y5906D01*
X796Y5906D01*
X797Y5906D01*
X798Y5906D01*
X799Y5906D01*
X800Y5906D01*
X801Y5906D01*
X802Y5906D01*
X803Y5906D01*
X804Y5906D01*
X805Y5906D01*
X806Y5906D01*
X807Y5906D01*
X808Y5906D01*
X809Y5906D01*
X810Y5906D01*
X811Y5906D01*
X812Y5906D01*
X813Y5906D01*
X814Y5906D01*
X815Y5906D01*
X816Y5906D01*
X817Y5906D01*
X818Y5906D01*
X819Y5906D01*
X820Y5906D01*
X821Y5906D01*
X822Y5906D01*
X823Y5906D01*
X824Y5906D01*
X825Y5906D01*
X826Y5906D01*
X827Y5906D01*
X828Y5906D01*
X829Y5906D01*
X830Y5906D01*
X831Y5906D01*
X832Y5906D01*
X833Y5906D01*
X834Y5906D01*
X835Y5906D01*
X836Y5906D01*
X837Y5906D01*
X838Y5906D01*
X839Y5906D01*
X840Y5906D01*
X841Y5906D01*
X842Y5906D01*
X843Y5906D01*
X844Y5906D01*
X845Y5906D01*
X846Y5906D01*
X847Y5906D01*
X848Y5906D01*
X849Y5906D01*
X850Y5906D01*
X851Y5906D01*
X852Y5906D01*
X853Y5906D01*
X854Y5906D01*
X855Y5906D01*
X856Y5906D01*
X857Y5906D01*
X858Y5906D01*
X859Y5906D01*
X860Y5906D01*
X861Y5906D01*
X862Y5906D01*
X863Y5906D01*
X864Y5906D01*
X865Y5906D01*
X866Y5906D01*
X867Y5906D01*
X868Y5906D01*
X869Y5906D01*
X870Y5906D01*
X871Y5906D01*
X872Y5906D01*
X873Y5906D01*
X874Y5906D01*
X875Y5906D01*
X876Y5906D01*
X877Y5906D01*
X878Y5906D01*
X879Y5906D01*
X880Y5906D01*
X881Y5906D01*
X882Y5906D01*
X883Y5906D01*
X884Y5906D01*
X885Y5906D01*
X886Y5906D01*
X887Y5906D01*
X888Y5906D01*
X889Y5906D01*
X890Y5906D01*
X891Y5906D01*
X892Y5906D01*
X893Y5906D01*
X894Y5906D01*
X895Y5906D01*
X896Y5906D01*
X897Y5906D01*
X898Y5906D01*
X899Y5906D01*
X900Y5906D01*
X901Y5906D01*
X902Y5906D01*
X903Y5906D01*
X904Y5906D01*
X905Y5906D01*
X906Y5906D01*
X907Y5906D01*
X908Y5906D01*
X909Y5906D01*
X910Y5906D01*
X911Y5906D01*
X912Y5906D01*
X913Y5906D01*
X914Y5906D01*
X915Y5906D01*
X916Y5906D01*
X917Y5906D01*
X918Y5906D01*
X919Y5906D01*
X920Y5906D01*
X921Y5906D01*
X922Y5906D01*
X923Y5906D01*
X924Y5906D01*
X925Y5906D01*
X926Y5906D01*
X927Y5906D01*
X928Y5906D01*
X929Y5906D01*
X930Y5906D01*
X931Y5906D01*
X932Y5906D01*
X933Y5906D01*
X934Y5906D01*
X935Y5906D01*
X936Y5906D01*
X937Y5906D01*
X938Y5906D01*
X939Y5906D01*
X940Y5906D01*
X941Y5906D01*
X942Y5906D01*
X943Y5906D01*
X944Y5906D01*
X945Y5906D01*
X946Y5906D01*
X947Y5906D01*
X948Y5906D01*
X949Y5906D01*
X950Y5906D01*
X951Y5906D01*
X952Y5906D01*
X953Y5906D01*
X954Y5906D01*
X955Y5906D01*
X956Y5906D01*
X957Y5906D01*
X958Y5906D01*
X959Y5906D01*
X960Y5906D01*
X961Y5906D01*
X962Y5906D01*
X963Y5906D01*
X964Y5906D01*
X965Y5906D01*
X966Y5906D01*
X967Y5906D01*
X968Y5906D01*
X969Y5906D01*
X970Y5906D01*
X971Y5906D01*
X972Y5906D01*
X973Y5906D01*
X974Y5906D01*
X975Y5906D01*
X976Y5906D01*
X977Y5906D01*
X978Y5906D01*
X979Y5906D01*
X980Y5906D01*
X981Y5906D01*
X982Y5906D01*
X983Y5906D01*
X984Y5906D01*
X985Y5906D01*
X986Y5906D01*
X987Y5906D01*
X988Y5906D01*
X989Y5906D01*
X990Y5906D01*
X991Y5906D01*
X992Y5906D01*
X993Y5906D01*
X994Y5906D01*
X995Y5906D01*
X996Y5906D01*
X997Y5906D01*
X998Y5906D01*
X999Y5906D01*
X1000Y5906D01*
X1001Y5906D01*
X1002Y5906D01*
X1003Y5906D01*
X1004Y5906D01*
X1005Y5906D01*
X1006Y5906D01*
X1007Y5906D01*
X1008Y5906D01*
X1009Y5906D01*
X1010Y5906D01*
X1011Y5906D01*
X1012Y5906D01*
X1013Y5906D01*
X1014Y5906D01*
X1015Y5906D01*
X1016Y5906D01*
X1017Y5906D01*
X1018Y5906D01*
X1019Y5906D01*
X1020Y5906D01*
X1021Y5906D01*
X1022Y5906D01*
X1023Y5906D01*
X1024Y5906D01*
X1025Y5906D01*
X1026Y5906D01*
X1027Y5906D01*
X1028Y5906D01*
X1029Y5906D01*
X1030Y5906D01*
X1031Y5906D01*
X1032Y5906D01*
X1033Y5906D01*
X1034Y5906D01*
X1035Y5906D01*
X1036Y5906D01*
X1037Y5906D01*
X1038Y5906D01*
X1039Y5906D01*
X1040Y5906D01*
X1041Y5906D01*
X1042Y5906D01*
X1043Y5906D01*
X1044Y5906D01*
X1045Y5906D01*
X1046Y5906D01*
X1047Y5906D01*
X1048Y5906D01*
X1049Y5906D01*
X1050Y5906D01*
X1051Y5906D01*
X1052Y5906D01*
X1053Y5906D01*
X1054Y5906D01*
X1055Y5906D01*
X1056Y5906D01*
X1057Y5906D01*
X1058Y5906D01*
X1059Y5906D01*
X1060Y5906D01*
X1061Y5906D01*
X1062Y5906D01*
X1063Y5906D01*
X1064Y5906D01*
X1065Y5906D01*
X1066Y5906D01*
X1067Y5906D01*
X1068Y5906D01*
X1069Y5906D01*
X1070Y5906D01*
X1071Y5906D01*
X1072Y5906D01*
X1073Y5906D01*
X1074Y5906D01*
X1075Y5906D01*
X1076Y5906D01*
X1077Y5906D01*
X1078Y5906D01*
X1079Y5906D01*
X1080Y5906D01*
X1081Y5906D01*
X1082Y5906D01*
X1083Y5906D01*
X1084Y5906D01*
X1085Y5906D01*
X1086Y5906D01*
X1087Y5906D01*
X1088Y5906D01*
X1089Y5906D01*
X1090Y5906D01*
X1091Y5906D01*
X1092Y5906D01*
X1093Y5906D01*
X1094Y5906D01*
X1095Y5906D01*
X1096Y5906D01*
X1097Y5906D01*
X1098Y5906D01*
X1099Y5906D01*
X1100Y5906D01*
X1101Y5906D01*
X1102Y5906D01*
X1103Y5906D01*
X1104Y5906D01*
X1105Y5906D01*
X1106Y5906D01*
X1107Y5906D01*
X1108Y5906D01*
X1109Y5906D01*
X1110Y5906D01*
X1111Y5906D01*
X1112Y5906D01*
X1113Y5906D01*
X1114Y5906D01*
X1115Y5906D01*
X1116Y5906D01*
X1117Y5906D01*
X1118Y5906D01*
X1119Y5906D01*
X1120Y5906D01*
X1121Y5906D01*
X1122Y5906D01*
X1123Y5906D01*
X1124Y5906D01*
X1125Y5906D01*
X1126Y5906D01*
X1127Y5906D01*
X1128Y5906D01*
X1129Y5906D01*
X1130Y5906D01*
X1131Y5906D01*
X1132Y5906D01*
X1133Y5906D01*
X1134Y5906D01*
X1135Y5906D01*
X1136Y5906D01*
X1137Y5906D01*
X1138Y5906D01*
X1139Y5906D01*
X1140Y5906D01*
X1141Y5906D01*
X1142Y5906D01*
X1143Y5906D01*
X1144Y5906D01*
X1145Y5906D01*
X1146Y5906D01*
X1147Y5906D01*
X1148Y5906D01*
X1149Y5906D01*
X1150Y5906D01*
X1151Y5906D01*
X1152Y5906D01*
X1153Y5906D01*
X1154Y5906D01*
X1155Y5906D01*
X1156Y5906D01*
X1157Y5906D01*
X1158Y5906D01*
X1159Y5906D01*
X1160Y5906D01*
X1161Y5906D01*
X1162Y5906D01*
X1163Y5906D01*
X1164Y5906D01*
X1165Y5906D01*
X1166Y5906D01*
X1167Y5906D01*
X1168Y5906D01*
X1169Y5906D01*
X1170Y5906D01*
X1171Y5906D01*
X1172Y5906D01*
X1173Y5906D01*
X1174Y5906D01*
X1175Y5906D01*
X1176Y5906D01*
X1177Y5906D01*
X1178Y5906D01*
X1179Y5906D01*
X1180Y5906D01*
X1181Y5906D01*
X1182Y5906D01*
X1183Y5906D01*
X1184Y5906D01*
X1185Y5906D01*
X1186Y5906D01*
X1187Y5906D01*
X1188Y5906D01*
X1189Y5906D01*
X1190Y5906D01*
X1191Y5906D01*
X1192Y5906D01*
X1193Y5906D01*
X1194Y5906D01*
X1195Y5906D01*
X1196Y5906D01*
X1197Y5906D01*
X1198Y5906D01*
X1199Y5906D01*
X1200Y5906D01*
X1201Y5906D01*
X1202Y5906D01*
X1203Y5906D01*
X1204Y5906D01*
X1205Y5906D01*
X1206Y5906D01*
X1207Y5906D01*
X1208Y5906D01*
X1209Y5906D01*
X1210Y5906D01*
X1211Y5906D01*
X1212Y5906D01*
X1213Y5906D01*
X1214Y5906D01*
X1215Y5906D01*
X1216Y5906D01*
X1217Y5906D01*
X1218Y5906D01*
X1219Y5906D01*
X1220Y5906D01*
X1221Y5906D01*
X1222Y5906D01*
X1223Y5906D01*
X1224Y5906D01*
X1225Y5906D01*
X1226Y5906D01*
X1227Y5906D01*
X1228Y5906D01*
X1229Y5906D01*
X1230Y5906D01*
X1231Y5906D01*
X1232Y5906D01*
X1233Y5906D01*
X1234Y5906D01*
X1235Y5906D01*
X1236Y5906D01*
X1237Y5906D01*
X1238Y5906D01*
X1239Y5906D01*
X1240Y5906D01*
X1241Y5906D01*
X1242Y5906D01*
X1243Y5906D01*
X1244Y5906D01*
X1245Y5906D01*
X1246Y5906D01*
X1247Y5906D01*
X1248Y5906D01*
X1249Y5906D01*
X1250Y5906D01*
X1251Y5906D01*
X1252Y5906D01*
X1253Y5906D01*
X1254Y5906D01*
X1255Y5906D01*
X1256Y5906D01*
X1257Y5906D01*
X1258Y5906D01*
X1259Y5906D01*
X1260Y5906D01*
X1261Y5906D01*
X1262Y5906D01*
X1263Y5906D01*
X1264Y5906D01*
X1265Y5906D01*
X1266Y5906D01*
X1267Y5906D01*
X1268Y5906D01*
X1269Y5906D01*
X1270Y5906D01*
X1271Y5906D01*
X1272Y5906D01*
X1273Y5906D01*
X1274Y5906D01*
X1275Y5906D01*
X1276Y5906D01*
X1277Y5906D01*
X1278Y5906D01*
X1279Y5906D01*
X1280Y5906D01*
X1281Y5906D01*
X1282Y5906D01*
X1283Y5906D01*
X1284Y5906D01*
X1285Y5906D01*
X1286Y5906D01*
X1287Y5906D01*
X1288Y5906D01*
X1289Y5906D01*
X1290Y5906D01*
X1291Y5906D01*
X1292Y5906D01*
X1293Y5906D01*
X1294Y5906D01*
X1295Y5906D01*
X1296Y5906D01*
X1297Y5906D01*
X1298Y5906D01*
X1299Y5906D01*
X1300Y5906D01*
X1301Y5906D01*
X1302Y5906D01*
X1303Y5906D01*
X1304Y5906D01*
X1305Y5906D01*
X1306Y5906D01*
X1307Y5906D01*
X1308Y5906D01*
X1309Y5906D01*
X1310Y5906D01*
X1311Y5906D01*
X1312Y5906D01*
X1313Y5906D01*
X1314Y5906D01*
X1315Y5906D01*
X1316Y5906D01*
X1317Y5906D01*
X1318Y5906D01*
X1319Y5906D01*
X1320Y5906D01*
X1321Y5906D01*
X1322Y5906D01*
X1323Y5906D01*
X1324Y5906D01*
X1325Y5906D01*
X1326Y5906D01*
X1327Y5906D01*
X1328Y5906D01*
X1329Y5906D01*
X1330Y5906D01*
X1331Y5906D01*
X1332Y5906D01*
X1333Y5906D01*
X1334Y5906D01*
X1335Y5906D01*
X1336Y5906D01*
X1337Y5906D01*
X1338Y5906D01*
X1339Y5906D01*
X1340Y5906D01*
X1341Y5906D01*
X1342Y5906D01*
X1343Y5906D01*
X1344Y5906D01*
X1345Y5906D01*
X1346Y5906D01*
X1347Y5906D01*
X1348Y5906D01*
X1349Y5906D01*
X1350Y5906D01*
X1351Y5906D01*
X1352Y5906D01*
X1353Y5906D01*
X1354Y5906D01*
X1355Y5906D01*
X1356Y5906D01*
X1357Y5906D01*
X1358Y5906D01*
X1359Y5906D01*
X1360Y5906D01*
X1361Y5906D01*
X1362Y5906D01*
X1363Y5906D01*
X1364Y5906D01*
X1365Y5906D01*
X1366Y5906D01*
X1367Y5906D01*
X1368Y5906D01*
X1369Y5906D01*
X1370Y5906D01*
X1371Y5906D01*
X1372Y5906D01*
X1373Y5906D01*
X1374Y5906D01*
X1375Y5906D01*
X1376Y5906D01*
X1377Y5906D01*
X1378Y5906D01*
X1379Y5906D01*
X1380Y5906D01*
X1381Y5906D01*
X1382Y5906D01*
X1383Y5906D01*
X1384Y5906D01*
X1385Y5906D01*
X1386Y5906D01*
X1387Y5906D01*
X1388Y5906D01*
X1389Y5906D01*
X1390Y5906D01*
X1391Y5906D01*
X1392Y5906D01*
X1393Y5906D01*
X1394Y5906D01*
X1395Y5906D01*
X1396Y5906D01*
X1397Y5906D01*
X1398Y5906D01*
X1399Y5906D01*
X1400Y5906D01*
X1401Y5906D01*
X1402Y5906D01*
X1403Y5906D01*
X1404Y5906D01*
X1405Y5906D01*
X1406Y5906D01*
X1407Y5906D01*
X1408Y5906D01*
X1409Y5906D01*
X1410Y5906D01*
X1411Y5906D01*
X1412Y5906D01*
X1413Y5906D01*
X1414Y5906D01*
X1415Y5906D01*
X1416Y5906D01*
X1417Y5906D01*
X1418Y5906D01*
X1419Y5906D01*
X1420Y5906D01*
X1421Y5906D01*
X1422Y5906D01*
X1423Y5906D01*
X1424Y5906D01*
X1425Y5906D01*
X1426Y5906D01*
X1427Y5906D01*
X1428Y5906D01*
X1429Y5906D01*
X1430Y5906D01*
X1431Y5906D01*
X1432Y5906D01*
X1433Y5906D01*
X1434Y5906D01*
X1435Y5906D01*
X1436Y5906D01*
X1437Y5906D01*
X1438Y5906D01*
X1439Y5906D01*
X1440Y5906D01*
X1441Y5906D01*
X1442Y5906D01*
X1443Y5906D01*
X1444Y5906D01*
X1445Y5906D01*
X1446Y5906D01*
X1447Y5906D01*
X1448Y5906D01*
X1449Y5906D01*
X1450Y5906D01*
X1451Y5906D01*
X1452Y5906D01*
X1453Y5906D01*
X1454Y5906D01*
X1455Y5906D01*
X1456Y5906D01*
X1457Y5906D01*
X1458Y5906D01*
X1459Y5906D01*
X1460Y5906D01*
X1461Y5906D01*
X1462Y5906D01*
X1463Y5906D01*
X1464Y5906D01*
X1465Y5906D01*
X1466Y5906D01*
X1467Y5906D01*
X1468Y5906D01*
X1469Y5906D01*
X1470Y5906D01*
X1471Y5906D01*
X1472Y5906D01*
X1473Y5906D01*
X1474Y5906D01*
X1475Y5906D01*
X1476Y5906D01*
X1477Y5906D01*
X1478Y5906D01*
X1479Y5906D01*
X1480Y5906D01*
X1481Y5906D01*
X1482Y5906D01*
X1483Y5906D01*
X1484Y5906D01*
X1485Y5906D01*
X1486Y5906D01*
X1487Y5906D01*
X1488Y5906D01*
X1489Y5906D01*
X1490Y5906D01*
X1491Y5906D01*
X1492Y5906D01*
X1493Y5906D01*
X1494Y5906D01*
X1495Y5906D01*
X1496Y5906D01*
X1497Y5906D01*
X1498Y5906D01*
X1499Y5906D01*
X1500Y5906D01*
X1501Y5906D01*
X1502Y5906D01*
X1503Y5906D01*
X1504Y5906D01*
X1505Y5906D01*
X1506Y5906D01*
X1507Y5906D01*
X1508Y5906D01*
X1509Y5906D01*
X1510Y5906D01*
X1511Y5906D01*
X1512Y5906D01*
X1513Y5906D01*
X1514Y5906D01*
X1515Y5906D01*
X1516Y5906D01*
X1517Y5906D01*
X1518Y5906D01*
X1519Y5906D01*
X1520Y5906D01*
X1521Y5906D01*
X1522Y5906D01*
X1523Y5906D01*
X1524Y5906D01*
X1525Y5906D01*
X1526Y5906D01*
X1527Y5906D01*
X1528Y5906D01*
X1529Y5906D01*
X1530Y5906D01*
X1531Y5906D01*
X1532Y5906D01*
X1533Y5906D01*
X1534Y5906D01*
X1535Y5906D01*
X1536Y5906D01*
X1537Y5906D01*
X1538Y5906D01*
X1539Y5906D01*
X1540Y5906D01*
X1541Y5906D01*
X1542Y5906D01*
X1543Y5906D01*
X1544Y5906D01*
X1545Y5906D01*
X1546Y5906D01*
X1547Y5906D01*
X1548Y5906D01*
X1549Y5906D01*
X1550Y5906D01*
X1551Y5906D01*
X1552Y5906D01*
X1553Y5906D01*
X1554Y5906D01*
X1555Y5906D01*
X1556Y5906D01*
X1557Y5906D01*
X1558Y5906D01*
X1559Y5906D01*
X1560Y5906D01*
X1561Y5906D01*
X1562Y5906D01*
X1563Y5906D01*
X1564Y5906D01*
X1565Y5906D01*
X1566Y5906D01*
X1567Y5906D01*
X1568Y5906D01*
X1569Y5906D01*
X1570Y5906D01*
X1571Y5906D01*
X1572Y5906D01*
X1573Y5906D01*
X1574Y5906D01*
X1575Y5906D01*
X1576Y5906D01*
X1577Y5906D01*
X1578Y5906D01*
X1579Y5906D01*
X1580Y5906D01*
X1581Y5906D01*
X1582Y5906D01*
X1583Y5906D01*
X1584Y5906D01*
X1585Y5906D01*
X1586Y5906D01*
X1587Y5906D01*
X1588Y5906D01*
X1589Y5906D01*
X1590Y5906D01*
X1591Y5906D01*
X1592Y5906D01*
X1593Y5906D01*
X1594Y5906D01*
X1595Y5906D01*
X1596Y5906D01*
X1597Y5906D01*
X1598Y5906D01*
X1599Y5906D01*
X1600Y5906D01*
X1601Y5906D01*
X1602Y5906D01*
X1603Y5906D01*
X1604Y5906D01*
X1605Y5906D01*
X1606Y5906D01*
X1607Y5906D01*
X1608Y5906D01*
X1609Y5906D01*
X1610Y5906D01*
X1611Y5906D01*
X1612Y5906D01*
X1613Y5906D01*
X1614Y5906D01*
X1615Y5906D01*
X1616Y5906D01*
X1617Y5906D01*
X1618Y5906D01*
X1619Y5906D01*
X1620Y5906D01*
X1621Y5906D01*
X1622Y5906D01*
X1623Y5906D01*
X1624Y5906D01*
X1625Y5906D01*
X1626Y5906D01*
X1627Y5906D01*
X1628Y5906D01*
X1629Y5906D01*
X1630Y5906D01*
X1631Y5906D01*
X1632Y5906D01*
X1633Y5906D01*
X1634Y5906D01*
X1635Y5906D01*
X1636Y5906D01*
X1637Y5906D01*
X1638Y5906D01*
X1639Y5906D01*
X1640Y5906D01*
X1641Y5906D01*
X1642Y5906D01*
X1643Y5906D01*
X1644Y5906D01*
X1645Y5906D01*
X1646Y5906D01*
X1647Y5906D01*
X1648Y5906D01*
X1649Y5906D01*
X1650Y5906D01*
X1651Y5906D01*
X1652Y5906D01*
X1653Y5906D01*
X1654Y5906D01*
X1655Y5906D01*
X1656Y5906D01*
X1657Y5906D01*
X1658Y5906D01*
X1659Y5906D01*
X1660Y5906D01*
X1661Y5906D01*
X1662Y5906D01*
X1663Y5906D01*
X1664Y5906D01*
X1665Y5906D01*
X1666Y5906D01*
X1667Y5906D01*
X1668Y5906D01*
X1669Y5906D01*
X1670Y5906D01*
X1671Y5906D01*
X1672Y5906D01*
X1673Y5906D01*
X1674Y5906D01*
X1675Y5906D01*
X1676Y5906D01*
X1677Y5906D01*
X1678Y5906D01*
X1679Y5906D01*
X1680Y5906D01*
X1681Y5906D01*
X1682Y5906D01*
X1683Y5906D01*
X1684Y5906D01*
X1685Y5906D01*
X1686Y5906D01*
X1687Y5906D01*
X1688Y5906D01*
X1689Y5906D01*
X1690Y5906D01*
X1691Y5906D01*
X1692Y5906D01*
X1693Y5906D01*
X1694Y5906D01*
X1695Y5906D01*
X1696Y5906D01*
X1697Y5906D01*
X1698Y5906D01*
X1699Y5906D01*
X1700Y5906D01*
X1701Y5906D01*
X1702Y5906D01*
X1703Y5906D01*
X1704Y5906D01*
X1705Y5906D01*
X1706Y5906D01*
X1707Y5906D01*
X1708Y5906D01*
X1709Y5906D01*
X1710Y5906D01*
X1711Y5906D01*
X1712Y5906D01*
X1713Y5906D01*
X1714Y5906D01*
X1715Y5906D01*
X1716Y5906D01*
X1717Y5906D01*
X1718Y5906D01*
X1719Y5906D01*
X1720Y5906D01*
X1721Y5906D01*
X1722Y5906D01*
X1723Y5906D01*
X1724Y5906D01*
X1725Y5906D01*
X1726Y5906D01*
X1727Y5906D01*
X1728Y5906D01*
X1729Y5906D01*
X1730Y5906D01*
X1731Y5906D01*
X1732Y5906D01*
X1733Y5906D01*
X1734Y5906D01*
X1735Y5906D01*
X1736Y5906D01*
X1737Y5906D01*
X1738Y5906D01*
X1739Y5906D01*
X1740Y5906D01*
X1741Y5906D01*
X1742Y5906D01*
X1743Y5906D01*
X1744Y5906D01*
X1745Y5906D01*
X1746Y5906D01*
X1747Y5906D01*
X1748Y5906D01*
X1749Y5906D01*
X1750Y5906D01*
X1751Y5906D01*
X1752Y5906D01*
X1753Y5906D01*
X1754Y5906D01*
X1755Y5906D01*
X1756Y5906D01*
X1757Y5906D01*
X1758Y5906D01*
X1759Y5906D01*
X1760Y5906D01*
X1761Y5906D01*
X1762Y5906D01*
X1763Y5906D01*
X1764Y5906D01*
X1765Y5906D01*
X1766Y5906D01*
X1767Y5906D01*
X1768Y5906D01*
X1769Y5906D01*
X1770Y5906D01*
X1771Y5906D01*
X1772Y5906D01*
X1773Y5906D01*
X1774Y5906D01*
X1775Y5906D01*
X1776Y5906D01*
X1777Y5906D01*
X1778Y5906D01*
X1779Y5906D01*
X1780Y5906D01*
X1781Y5906D01*
X1782Y5906D01*
X1783Y5906D01*
X1784Y5906D01*
X1785Y5906D01*
X1786Y5906D01*
X1787Y5906D01*
X1788Y5906D01*
X1789Y5906D01*
X1790Y5906D01*
X1791Y5906D01*
X1792Y5906D01*
X1793Y5906D01*
X1794Y5906D01*
X1795Y5906D01*
X1796Y5906D01*
X1797Y5906D01*
X1798Y5906D01*
X1799Y5906D01*
X1800Y5906D01*
X1801Y5906D01*
X1802Y5906D01*
X1803Y5906D01*
X1804Y5906D01*
X1805Y5906D01*
X1806Y5906D01*
X1807Y5906D01*
X1808Y5906D01*
X1809Y5906D01*
X1810Y5906D01*
X1811Y5906D01*
X1812Y5906D01*
X1813Y5906D01*
X1814Y5906D01*
X1815Y5906D01*
X1816Y5906D01*
X1817Y5906D01*
X1818Y5906D01*
X1819Y5906D01*
X1820Y5906D01*
X1821Y5906D01*
X1822Y5906D01*
X1823Y5906D01*
X1824Y5906D01*
X1825Y5906D01*
X1826Y5906D01*
X1827Y5906D01*
X1828Y5906D01*
X1829Y5906D01*
X1830Y5906D01*
X1831Y5906D01*
X1832Y5906D01*
X1833Y5906D01*
X1834Y5906D01*
X1835Y5906D01*
X1836Y5906D01*
X1837Y5906D01*
X1838Y5906D01*
X1839Y5906D01*
X1840Y5906D01*
X1841Y5906D01*
X1842Y5906D01*
X1843Y5906D01*
X1844Y5906D01*
X1845Y5906D01*
X1846Y5906D01*
X1847Y5906D01*
X1848Y5906D01*
X1849Y5906D01*
X1850Y5906D01*
X1851Y5906D01*
X1852Y5906D01*
X1853Y5906D01*
X1854Y5906D01*
X1855Y5906D01*
X1856Y5906D01*
X1857Y5906D01*
X1858Y5906D01*
X1859Y5906D01*
X1860Y5906D01*
X1861Y5906D01*
X1862Y5906D01*
X1863Y5906D01*
X1864Y5906D01*
X1865Y5906D01*
X1866Y5906D01*
X1867Y5906D01*
X1868Y5906D01*
X1869Y5906D01*
X1870Y5906D01*
X1871Y5906D01*
X1872Y5906D01*
X1873Y5906D01*
X1874Y5906D01*
X1875Y5906D01*
X1876Y5906D01*
X1877Y5906D01*
X1878Y5906D01*
X1879Y5906D01*
X1880Y5906D01*
X1881Y5906D01*
X1882Y5906D01*
X1883Y5906D01*
X1884Y5906D01*
X1885Y5906D01*
X1886Y5906D01*
X1887Y5906D01*
X1888Y5906D01*
X1889Y5906D01*
X1890Y5906D01*
X1891Y5906D01*
X1892Y5906D01*
X1893Y5906D01*
X1894Y5906D01*
X1895Y5906D01*
X1896Y5906D01*
X1897Y5906D01*
X1898Y5906D01*
X1899Y5906D01*
X1900Y5906D01*
X1901Y5906D01*
X1902Y5906D01*
X1903Y5906D01*
X1904Y5906D01*
X1905Y5906D01*
X1906Y5906D01*
X1907Y5906D01*
X1908Y5906D01*
X1909Y5906D01*
X1910Y5906D01*
X1911Y5906D01*
X1912Y5906D01*
X1913Y5906D01*
X1914Y5906D01*
X1915Y5906D01*
X1916Y5906D01*
X1917Y5906D01*
X1918Y5906D01*
X1919Y5906D01*
X1920Y5906D01*
X1921Y5906D01*
X1922Y5906D01*
X1923Y5906D01*
X1924Y5906D01*
X1925Y5906D01*
X1926Y5906D01*
X1927Y5906D01*
X1928Y5906D01*
X1929Y5906D01*
X1930Y5906D01*
X1931Y5906D01*
X1932Y5906D01*
X1933Y5906D01*
X1934Y5906D01*
X1935Y5906D01*
X1936Y5906D01*
X1937Y5906D01*
X1938Y5906D01*
X1939Y5906D01*
X1940Y5906D01*
X1941Y5906D01*
X1942Y5906D01*
X1943Y5906D01*
X1944Y5906D01*
X1945Y5906D01*
X1946Y5906D01*
X1947Y5906D01*
X1948Y5906D01*
X1949Y5906D01*
X1950Y5906D01*
X1951Y5906D01*
X1952Y5906D01*
X1953Y5906D01*
X1954Y5906D01*
X1955Y5906D01*
X1956Y5906D01*
X1957Y5906D01*
X1958Y5906D01*
X1959Y5906D01*
X1960Y5906D01*
X1961Y5906D01*
X1962Y5906D01*
X1963Y5906D01*
X1964Y5906D01*
X1965Y5906D01*
X1966Y5906D01*
X1967Y5906D01*
X1968Y5906D01*
X1969Y5906D01*
X1970Y5906D01*
X1971Y5906D01*
X1972Y5906D01*
X1973Y5906D01*
X1974Y5906D01*
X1975Y5906D01*
X1976Y5906D01*
X1977Y5906D01*
X1978Y5906D01*
X1979Y5906D01*
X1980Y5906D01*
X1981Y5906D01*
X1982Y5906D01*
X1983Y5906D01*
X1984Y5906D01*
X1985Y5906D01*
X1986Y5906D01*
X1987Y5906D01*
X1988Y5906D01*
X1989Y5906D01*
X1990Y5906D01*
X1991Y5906D01*
X1992Y5906D01*
X1993Y5906D01*
X1994Y5906D01*
X1995Y5906D01*
X1996Y5906D01*
X1997Y5906D01*
X1998Y5906D01*
X1999Y5906D01*
X2000Y5906D01*
X2001Y5906D01*
X2002Y5906D01*
X2003Y5906D01*
X2004Y5906D01*
X2005Y5906D01*
X2006Y5906D01*
X2007Y5906D01*
X2008Y5906D01*
X2009Y5906D01*
X2010Y5906D01*
X2011Y5906D01*
X2012Y5906D01*
X2013Y5906D01*
X2014Y5906D01*
X2015Y5906D01*
X2016Y5906D01*
X2017Y5906D01*
X2018Y5906D01*
X2019Y5906D01*
X2020Y5906D01*
X2021Y5906D01*
X2022Y5906D01*
X2023Y5906D01*
X2024Y5906D01*
X2025Y5906D01*
X2026Y5906D01*
X2027Y5906D01*
X2028Y5906D01*
X2029Y5906D01*
X2030Y5906D01*
X2031Y5906D01*
X2032Y5906D01*
X2033Y5906D01*
X2034Y5906D01*
X2035Y5906D01*
X2036Y5906D01*
X2037Y5906D01*
X2038Y5906D01*
X2039Y5906D01*
X2040Y5906D01*
X2041Y5906D01*
X2042Y5906D01*
X2043Y5906D01*
X2044Y5906D01*
X2045Y5906D01*
X2046Y5906D01*
X2047Y5906D01*
X2048Y5906D01*
X2049Y5906D01*
X2050Y5906D01*
X2051Y5906D01*
X2052Y5906D01*
X2053Y5906D01*
X2054Y5906D01*
X2055Y5906D01*
X2056Y5906D01*
X2057Y5906D01*
X2058Y5906D01*
X2059Y5906D01*
X2060Y5906D01*
X2061Y5906D01*
X2062Y5906D01*
X2063Y5906D01*
X2064Y5906D01*
X2065Y5906D01*
X2066Y5906D01*
X2067Y5906D01*
X2068Y5906D01*
X2069Y5906D01*
X2070Y5906D01*
X2071Y5906D01*
X2072Y5906D01*
X2073Y5906D01*
X2074Y5906D01*
X2075Y5906D01*
X2076Y5906D01*
X2077Y5906D01*
X2078Y5906D01*
X2079Y5906D01*
X2080Y5906D01*
X2081Y5906D01*
X2082Y5906D01*
X2083Y5906D01*
X2084Y5906D01*
X2085Y5906D01*
X2086Y5906D01*
X2087Y5906D01*
X2088Y5906D01*
X2089Y5906D01*
X2090Y5906D01*
X2091Y5906D01*
X2092Y5906D01*
X2093Y5906D01*
X2094Y5906D01*
X2095Y5906D01*
X2096Y5906D01*
X2097Y5906D01*
X2098Y5906D01*
X2099Y5906D01*
X2100Y5906D01*
X2101Y5906D01*
X2102Y5906D01*
X2103Y5906D01*
X2104Y5906D01*
X2105Y5906D01*
X2106Y5906D01*
X2107Y5906D01*
X2108Y5906D01*
X2109Y5906D01*
X2110Y5906D01*
X2111Y5906D01*
X2112Y5906D01*
X2113Y5906D01*
X2114Y5906D01*
X2115Y5906D01*
X2116Y5906D01*
X2117Y5906D01*
X2118Y5906D01*
X2119Y5906D01*
X2120Y5906D01*
X2121Y5906D01*
X2122Y5906D01*
X2123Y5906D01*
X2124Y5906D01*
X2125Y5906D01*
X2126Y5906D01*
X2127Y5906D01*
X2128Y5906D01*
X2129Y5906D01*
X2130Y5906D01*
X2131Y5906D01*
X2132Y5906D01*
X2133Y5906D01*
X2134Y5906D01*
X2135Y5906D01*
X2136Y5906D01*
X2137Y5906D01*
X2138Y5906D01*
X2139Y5906D01*
X2140Y5906D01*
X2141Y5906D01*
X2142Y5906D01*
X2143Y5906D01*
X2144Y5906D01*
X2145Y5906D01*
X2146Y5906D01*
X2147Y5906D01*
X2148Y5906D01*
X2149Y5906D01*
X2150Y5906D01*
X2151Y5906D01*
X2152Y5906D01*
X2153Y5906D01*
X2154Y5906D01*
X2155Y5906D01*
X2156Y5906D01*
X2157Y5906D01*
X2158Y5906D01*
X2159Y5906D01*
X2160Y5906D01*
X2161Y5906D01*
X2162Y5906D01*
X2163Y5906D01*
X2164Y5906D01*
X2165Y5906D01*
X2166Y5906D01*
X2167Y5906D01*
X2168Y5906D01*
X2169Y5906D01*
X2170Y5906D01*
X2171Y5906D01*
X2172Y5906D01*
X2173Y5906D01*
X2174Y5906D01*
X2175Y5906D01*
X2176Y5906D01*
X2177Y5906D01*
X2178Y5906D01*
X2179Y5906D01*
X2180Y5906D01*
X2181Y5906D01*
X2182Y5906D01*
X2183Y5906D01*
X2184Y5906D01*
X2185Y5906D01*
X2186Y5906D01*
X2187Y5906D01*
X2188Y5906D01*
X2189Y5906D01*
X2190Y5906D01*
X2191Y5906D01*
X2192Y5906D01*
X2193Y5906D01*
X2194Y5906D01*
X2195Y5906D01*
X2196Y5906D01*
X2197Y5906D01*
X2198Y5906D01*
X2199Y5906D01*
X2200Y5906D01*
X2201Y5906D01*
X2202Y5906D01*
X2203Y5906D01*
X2204Y5906D01*
X2205Y5906D01*
X2206Y5906D01*
X2207Y5906D01*
X2208Y5906D01*
X2209Y5906D01*
X2210Y5906D01*
X2211Y5906D01*
X2212Y5906D01*
X2213Y5906D01*
X2214Y5906D01*
X2215Y5906D01*
X2216Y5906D01*
X2217Y5906D01*
X2218Y5906D01*
X2219Y5906D01*
X2220Y5906D01*
X2221Y5906D01*
X2222Y5906D01*
X2223Y5906D01*
X2224Y5906D01*
X2225Y5906D01*
X2226Y5906D01*
X2227Y5906D01*
X2228Y5906D01*
X2229Y5906D01*
X2230Y5906D01*
X2231Y5906D01*
X2232Y5906D01*
X2233Y5906D01*
X2234Y5906D01*
X2235Y5906D01*
X2236Y5906D01*
X2237Y5906D01*
X2238Y5906D01*
X2239Y5906D01*
X2240Y5906D01*
X2241Y5906D01*
X2242Y5906D01*
X2243Y5906D01*
X2244Y5906D01*
X2245Y5906D01*
X2246Y5906D01*
X2247Y5906D01*
X2248Y5906D01*
X2249Y5906D01*
X2250Y5906D01*
X2251Y5906D01*
X2252Y5906D01*
X2253Y5906D01*
X2254Y5906D01*
X2255Y5906D01*
X2256Y5906D01*
X2257Y5906D01*
X2258Y5906D01*
X2259Y5906D01*
X2260Y5906D01*
X2261Y5906D01*
X2262Y5906D01*
X2263Y5906D01*
X2264Y5906D01*
X2265Y5906D01*
X2266Y5906D01*
X2267Y5906D01*
X2268Y5906D01*
X2269Y5906D01*
X2270Y5906D01*
X2271Y5906D01*
X2272Y5906D01*
X2273Y5906D01*
X2274Y5906D01*
X2275Y5906D01*
X2276Y5906D01*
X2277Y5906D01*
X2278Y5906D01*
X2279Y5906D01*
X2280Y5906D01*
X2281Y5906D01*
X2282Y5906D01*
X2283Y5906D01*
X2284Y5906D01*
X2285Y5906D01*
X2286Y5906D01*
X2287Y5906D01*
X2288Y5906D01*
X2289Y5906D01*
X2290Y5906D01*
X2291Y5906D01*
X2292Y5906D01*
X2293Y5906D01*
X2294Y5906D01*
X2295Y5906D01*
X2296Y5906D01*
X2297Y5906D01*
X2298Y5906D01*
X2299Y5906D01*
X2300Y5906D01*
X2301Y5906D01*
X2302Y5906D01*
X2303Y5906D01*
X2304Y5906D01*
X2305Y5906D01*
X2306Y5906D01*
X2307Y5906D01*
X2308Y5906D01*
X2309Y5906D01*
X2310Y5906D01*
X2311Y5906D01*
X2312Y5906D01*
X2313Y5906D01*
X2314Y5906D01*
X2315Y5906D01*
X2316Y5906D01*
X2317Y5906D01*
X2318Y5906D01*
X2319Y5906D01*
X2320Y5906D01*
X2321Y5906D01*
X2322Y5906D01*
X2323Y5906D01*
X2324Y5906D01*
X2325Y5906D01*
X2326Y5906D01*
X2327Y5906D01*
X2328Y5906D01*
X2329Y5906D01*
X2330Y5906D01*
X2331Y5906D01*
X2332Y5906D01*
X2333Y5906D01*
X2334Y5906D01*
X2335Y5906D01*
X2336Y5906D01*
X2337Y5906D01*
X2338Y5906D01*
X2339Y5906D01*
X2340Y5906D01*
X2341Y5906D01*
X2342Y5906D01*
X2343Y5906D01*
X2344Y5906D01*
X2345Y5906D01*
X2346Y5906D01*
X2347Y5906D01*
X2348Y5906D01*
X2349Y5906D01*
X2350Y5906D01*
X2351Y5906D01*
X2352Y5906D01*
X2353Y5906D01*
X2354Y5906D01*
X2355Y5906D01*
X2356Y5906D01*
X2357Y5906D01*
X2358Y5906D01*
X2359Y5906D01*
X2360Y5906D01*
X2361Y5906D01*
X2362Y5906D01*
X2363Y5906D01*
X2364Y5906D01*
X2365Y5906D01*
X2366Y5906D01*
X2367Y5906D01*
X2368Y5906D01*
X2369Y5906D01*
X2370Y5906D01*
X2371Y5906D01*
X2372Y5906D01*
X2373Y5906D01*
X2374Y5906D01*
X2375Y5906D01*
X2376Y5906D01*
X2377Y5906D01*
X2378Y5906D01*
X2379Y5906D01*
X2380Y5906D01*
X2381Y5906D01*
X2382Y5906D01*
X2383Y5906D01*
X2384Y5906D01*
X2385Y5906D01*
X2386Y5906D01*
X2387Y5906D01*
X2388Y5906D01*
X2389Y5906D01*
X2390Y5906D01*
X2391Y5906D01*
X2392Y5906D01*
X2393Y5906D01*
X2394Y5906D01*
X2395Y5906D01*
X2396Y5906D01*
X2397Y5906D01*
X2398Y5906D01*
X2399Y5906D01*
X2400Y5906D01*
X2401Y5906D01*
X2402Y5906D01*
X2403Y5906D01*
X2404Y5906D01*
X2405Y5906D01*
X2406Y5906D01*
X2407Y5906D01*
X2408Y5906D01*
X2409Y5906D01*
X2410Y5906D01*
X2411Y5906D01*
X2412Y5906D01*
X2413Y5906D01*
X2414Y5906D01*
X2415Y5906D01*
X2416Y5906D01*
X2417Y5906D01*
X2418Y5906D01*
X2419Y5906D01*
X2420Y5906D01*
X2421Y5906D01*
X2422Y5906D01*
X2423Y5906D01*
X2424Y5906D01*
X2425Y5906D01*
X2426Y5906D01*
X2427Y5906D01*
X2428Y5906D01*
X2429Y5906D01*
X2430Y5906D01*
X2431Y5906D01*
X2432Y5906D01*
X2433Y5906D01*
X2434Y5906D01*
X2435Y5906D01*
X2436Y5906D01*
X2437Y5906D01*
X2438Y5906D01*
X2439Y5906D01*
X2440Y5906D01*
X2441Y5906D01*
X2442Y5906D01*
X2443Y5906D01*
X2444Y5906D01*
X2445Y5906D01*
X2446Y5906D01*
X2447Y5906D01*
X2448Y5906D01*
X2449Y5906D01*
X2450Y5906D01*
X2451Y5906D01*
X2452Y5906D01*
X2453Y5906D01*
X2454Y5906D01*
X2455Y5906D01*
X2456Y5906D01*
X2457Y5906D01*
X2458Y5906D01*
X2459Y5906D01*
X2460Y5906D01*
X2461Y5906D01*
X2462Y5906D01*
X2463Y5906D01*
X2464Y5906D01*
X2465Y5906D01*
X2466Y5906D01*
X2467Y5906D01*
X2468Y5906D01*
X2469Y5906D01*
X2470Y5906D01*
X2471Y5906D01*
X2472Y5906D01*
X2473Y5906D01*
X2474Y5906D01*
X2475Y5906D01*
X2476Y5906D01*
X2477Y5906D01*
X2478Y5906D01*
X2479Y5906D01*
X2480Y5906D01*
X2481Y5906D01*
X2482Y5906D01*
X2483Y5906D01*
X2484Y5906D01*
X2485Y5906D01*
X2486Y5906D01*
X2487Y5906D01*
X2488Y5906D01*
X2489Y5906D01*
X2490Y5906D01*
X2491Y5906D01*
X2492Y5906D01*
X2493Y5906D01*
X2494Y5906D01*
X2495Y5906D01*
X2496Y5906D01*
X2497Y5906D01*
X2498Y5906D01*
X2499Y5906D01*
X2500Y5906D01*
X2501Y5906D01*
X2502Y5906D01*
X2503Y5906D01*
X2504Y5906D01*
X2505Y5906D01*
X2506Y5906D01*
X2507Y5906D01*
X2508Y5906D01*
X2509Y5906D01*
X2510Y5906D01*
X2511Y5906D01*
X2512Y5906D01*
X2513Y5906D01*
X2514Y5906D01*
X2515Y5906D01*
X2516Y5906D01*
X2517Y5906D01*
X2518Y5906D01*
X2519Y5906D01*
X2520Y5906D01*
X2521Y5906D01*
X2522Y5906D01*
X2523Y5906D01*
X2524Y5906D01*
X2525Y5906D01*
X2526Y5906D01*
X2527Y5906D01*
X2528Y5906D01*
X2529Y5906D01*
X2530Y5906D01*
X2531Y5906D01*
X2532Y5906D01*
X2533Y5906D01*
X2534Y5906D01*
X2535Y5906D01*
X2536Y5906D01*
X2537Y5906D01*
X2538Y5906D01*
X2539Y5906D01*
X2540Y5906D01*
X2541Y5906D01*
X2542Y5906D01*
X2543Y5906D01*
X2544Y5906D01*
X2545Y5906D01*
X2546Y5906D01*
X2547Y5906D01*
X2548Y5906D01*
X2549Y5906D01*
X2550Y5906D01*
X2551Y5906D01*
X2552Y5906D01*
X2553Y5906D01*
X2554Y5906D01*
X2555Y5906D01*
X2556Y5906D01*
X2557Y5906D01*
X2558Y5906D01*
X2559Y5906D01*
X2560Y5906D01*
X2561Y5906D01*
X2562Y5906D01*
X2563Y5906D01*
X2564Y5906D01*
X2565Y5906D01*
X2566Y5906D01*
X2567Y5906D01*
X2568Y5906D01*
X2569Y5906D01*
X2570Y5906D01*
X2571Y5906D01*
X2572Y5906D01*
X2573Y5906D01*
X2574Y5906D01*
X2575Y5906D01*
X2576Y5906D01*
X2577Y5906D01*
X2578Y5906D01*
X2579Y5906D01*
X2580Y5906D01*
X2581Y5906D01*
X2582Y5906D01*
X2583Y5906D01*
X2584Y5906D01*
X2585Y5906D01*
X2586Y5906D01*
X2587Y5906D01*
X2588Y5906D01*
X2589Y5906D01*
X2590Y5906D01*
X2591Y5906D01*
X2592Y5906D01*
X2593Y5906D01*
X2594Y5906D01*
X2595Y5906D01*
X2596Y5906D01*
X2597Y5906D01*
X2598Y5906D01*
X2599Y5906D01*
X2600Y5906D01*
X2601Y5906D01*
X2602Y5906D01*
X2603Y5906D01*
X2604Y5906D01*
X2605Y5906D01*
X2606Y5906D01*
X2607Y5906D01*
X2608Y5906D01*
X2609Y5906D01*
X2610Y5906D01*
X2611Y5906D01*
X2612Y5906D01*
X2613Y5906D01*
X2614Y5906D01*
X2615Y5906D01*
X2616Y5906D01*
X2617Y5906D01*
X2618Y5906D01*
X2619Y5906D01*
X2620Y5906D01*
X2621Y5906D01*
X2622Y5906D01*
X2623Y5906D01*
X2624Y5906D01*
X2625Y5906D01*
X2626Y5906D01*
X2627Y5906D01*
X2628Y5906D01*
X2629Y5906D01*
X2630Y5906D01*
X2631Y5906D01*
X2632Y5906D01*
X2633Y5906D01*
X2634Y5906D01*
X2635Y5906D01*
X2636Y5906D01*
X2637Y5906D01*
X2638Y5906D01*
X2639Y5906D01*
X2640Y5906D01*
X2641Y5906D01*
X2642Y5906D01*
X2643Y5906D01*
X2644Y5906D01*
X2645Y5906D01*
X2646Y5906D01*
X2647Y5906D01*
X2648Y5906D01*
X2649Y5906D01*
X2650Y5906D01*
X2651Y5906D01*
X2652Y5906D01*
X2653Y5906D01*
X2654Y5906D01*
X2655Y5906D01*
X2656Y5906D01*
X2657Y5906D01*
X2658Y5906D01*
X2659Y5906D01*
X2660Y5906D01*
X2661Y5906D01*
X2662Y5906D01*
X2663Y5906D01*
X2664Y5906D01*
X2665Y5906D01*
X2666Y5906D01*
X2667Y5906D01*
X2668Y5906D01*
X2669Y5906D01*
X2670Y5906D01*
X2671Y5906D01*
X2672Y5906D01*
X2673Y5906D01*
X2674Y5906D01*
X2675Y5906D01*
X2676Y5906D01*
X2677Y5906D01*
X2678Y5906D01*
X2679Y5906D01*
X2680Y5906D01*
X2681Y5906D01*
X2682Y5906D01*
X2683Y5906D01*
X2684Y5906D01*
X2685Y5906D01*
X2686Y5906D01*
X2687Y5906D01*
X2688Y5906D01*
X2689Y5906D01*
X2690Y5906D01*
X2691Y5906D01*
X2692Y5906D01*
X2693Y5906D01*
X2694Y5906D01*
X2695Y5906D01*
X2696Y5906D01*
X2697Y5906D01*
X2698Y5906D01*
X2699Y5906D01*
X2700Y5906D01*
X2701Y5906D01*
X2702Y5906D01*
X2703Y5906D01*
X2704Y5906D01*
X2705Y5906D01*
X2706Y5906D01*
X2707Y5906D01*
X2708Y5906D01*
X2709Y5906D01*
X2710Y5906D01*
X2711Y5906D01*
X2712Y5906D01*
X2713Y5906D01*
X2714Y5906D01*
X2715Y5906D01*
X2716Y5906D01*
X2717Y5906D01*
X2718Y5906D01*
X2719Y5906D01*
X2720Y5906D01*
X2721Y5906D01*
X2722Y5906D01*
X2723Y5906D01*
X2724Y5906D01*
X2725Y5906D01*
X2726Y5906D01*
X2727Y5906D01*
X2728Y5906D01*
X2729Y5906D01*
X2730Y5906D01*
X2731Y5906D01*
X2732Y5906D01*
X2733Y5906D01*
X2734Y5906D01*
X2735Y5906D01*
X2736Y5906D01*
X2737Y5906D01*
X2738Y5906D01*
X2739Y5906D01*
X2740Y5906D01*
X2741Y5906D01*
X2742Y5906D01*
X2743Y5906D01*
X2744Y5906D01*
X2745Y5906D01*
X2746Y5906D01*
X2747Y5906D01*
X2748Y5906D01*
X2749Y5906D01*
X2750Y5906D01*
X2751Y5906D01*
X2752Y5906D01*
X2753Y5906D01*
X2754Y5906D01*
X2755Y5906D01*
X2756Y5906D01*
X2757Y5906D01*
X2758Y5906D01*
X2759Y5906D01*
X2760Y5906D01*
X2761Y5906D01*
X2762Y5906D01*
X2763Y5906D01*
X2764Y5906D01*
X2765Y5906D01*
X2766Y5906D01*
X2767Y5906D01*
X2768Y5906D01*
X2769Y5906D01*
X2770Y5906D01*
X2771Y5906D01*
X2772Y5906D01*
X2773Y5906D01*
X2774Y5906D01*
X2775Y5906D01*
X2776Y5906D01*
X2777Y5906D01*
X2778Y5906D01*
X2779Y5906D01*
X2780Y5906D01*
X2781Y5906D01*
X2782Y5906D01*
X2783Y5906D01*
X2784Y5906D01*
X2785Y5906D01*
X2786Y5906D01*
X2787Y5906D01*
X2788Y5906D01*
X2789Y5906D01*
X2790Y5906D01*
X2791Y5906D01*
X2792Y5906D01*
X2793Y5906D01*
X2794Y5906D01*
X2795Y5906D01*
X2796Y5906D01*
X2797Y5906D01*
X2798Y5906D01*
X2799Y5906D01*
X2800Y5906D01*
X2801Y5906D01*
X2802Y5906D01*
X2803Y5906D01*
X2804Y5906D01*
X2805Y5906D01*
X2806Y5906D01*
X2807Y5906D01*
X2808Y5906D01*
X2809Y5906D01*
X2810Y5906D01*
X2811Y5906D01*
X2812Y5906D01*
X2813Y5906D01*
X2814Y5906D01*
X2815Y5906D01*
X2816Y5906D01*
X2817Y5906D01*
X2818Y5906D01*
X2819Y5906D01*
X2820Y5906D01*
X2821Y5906D01*
X2822Y5906D01*
X2823Y5906D01*
X2824Y5906D01*
X2825Y5906D01*
X2826Y5906D01*
X2827Y5906D01*
X2828Y5906D01*
X2829Y5906D01*
X2830Y5906D01*
X2831Y5906D01*
X2832Y5906D01*
X2833Y5906D01*
X2834Y5906D01*
X2835Y5906D01*
X2836Y5906D01*
X2837Y5906D01*
X2838Y5906D01*
X2839Y5906D01*
X2840Y5906D01*
X2841Y5906D01*
X2842Y5906D01*
X2843Y5906D01*
X2844Y5906D01*
X2845Y5906D01*
X2846Y5906D01*
X2847Y5906D01*
X2848Y5906D01*
X2849Y5906D01*
X2850Y5906D01*
X2851Y5906D01*
X2852Y5906D01*
X2853Y5906D01*
X2854Y5906D01*
X2855Y5906D01*
X2856Y5906D01*
X2857Y5906D01*
X2858Y5906D01*
X2859Y5906D01*
X2860Y5906D01*
X2861Y5906D01*
X2862Y5906D01*
X2863Y5906D01*
X2864Y5906D01*
X2865Y5906D01*
X2866Y5906D01*
X2867Y5906D01*
X2868Y5906D01*
X2869Y5906D01*
X2870Y5906D01*
X2871Y5906D01*
X2872Y5906D01*
X2873Y5906D01*
X2874Y5906D01*
X2875Y5906D01*
X2876Y5906D01*
X2877Y5906D01*
X2878Y5906D01*
X2879Y5906D01*
X2880Y5906D01*
X2881Y5906D01*
X2882Y5906D01*
X2883Y5906D01*
X2884Y5906D01*
X2885Y5906D01*
X2886Y5906D01*
X2887Y5906D01*
X2888Y5906D01*
X2889Y5906D01*
X2890Y5906D01*
X2891Y5906D01*
X2892Y5906D01*
X2893Y5906D01*
X2894Y5906D01*
X2895Y5906D01*
X2896Y5906D01*
X2897Y5906D01*
X2898Y5906D01*
X2899Y5906D01*
X2900Y5906D01*
X2901Y5906D01*
X2902Y5906D01*
X2903Y5906D01*
X2904Y5906D01*
X2905Y5906D01*
X2906Y5906D01*
X2907Y5906D01*
X2908Y5906D01*
X2909Y5906D01*
X2910Y5906D01*
X2911Y5906D01*
X2912Y5906D01*
X2913Y5906D01*
X2914Y5906D01*
X2915Y5906D01*
X2916Y5906D01*
X2917Y5906D01*
X2918Y5906D01*
X2919Y5906D01*
X2920Y5906D01*
X2921Y5906D01*
X2922Y5906D01*
X2923Y5906D01*
X2924Y5906D01*
X2925Y5906D01*
X2926Y5906D01*
X2927Y5906D01*
X2928Y5906D01*
X2929Y5906D01*
X2930Y5906D01*
X2931Y5906D01*
X2932Y5906D01*
X2933Y5906D01*
X2934Y5906D01*
X2935Y5906D01*
X2936Y5906D01*
X2937Y5906D01*
X2938Y5906D01*
X2939Y5906D01*
X2940Y5906D01*
X2941Y5906D01*
X2942Y5906D01*
X2943Y5906D01*
X2944Y5906D01*
X2945Y5906D01*
X2946Y5906D01*
X2947Y5906D01*
X2948Y5906D01*
X2949Y5906D01*
X2950Y5906D01*
X2951Y5906D01*
X2952Y5906D01*
X2953Y5906D01*
X2954Y5906D01*
X2955Y5906D01*
X2956Y5906D01*
X2957Y5906D01*
X2958Y5906D01*
X2959Y5906D01*
X2960Y5906D01*
X2961Y5906D01*
X2962Y5906D01*
X2963Y5906D01*
X2964Y5906D01*
X2965Y5906D01*
X2966Y5906D01*
X2967Y5906D01*
X2968Y5906D01*
X2969Y5906D01*
X2970Y5906D01*
X2971Y5906D01*
X2972Y5906D01*
X2973Y5906D01*
X2974Y5906D01*
X2975Y5906D01*
X2976Y5906D01*
X2977Y5906D01*
X2978Y5906D01*
X2979Y5906D01*
X2980Y5906D01*
X2981Y5906D01*
X2982Y5906D01*
X2983Y5906D01*
X2984Y5906D01*
X2985Y5906D01*
X2986Y5906D01*
X2987Y5906D01*
X2988Y5906D01*
X2989Y5906D01*
X2990Y5906D01*
X2991Y5906D01*
X2992Y5906D01*
X2993Y5906D01*
X2994Y5906D01*
X2995Y5906D01*
X2996Y5906D01*
X2997Y5906D01*
X2998Y5906D01*
X2999Y5906D01*
X3000Y5906D01*
X3001Y5906D01*
X3002Y5906D01*
X3003Y5906D01*
X3004Y5906D01*
X3005Y5906D01*
X3006Y5906D01*
X3007Y5906D01*
X3008Y5906D01*
X3009Y5906D01*
X3010Y5906D01*
X3011Y5906D01*
X3012Y5906D01*
X3013Y5906D01*
X3014Y5906D01*
X3015Y5906D01*
X3016Y5906D01*
X3017Y5906D01*
X3018Y5906D01*
X3019Y5906D01*
X3020Y5906D01*
X3021Y5906D01*
X3022Y5906D01*
X3023Y5906D01*
X3024Y5906D01*
X3025Y5906D01*
X3026Y5906D01*
X3027Y5906D01*
X3028Y5906D01*
X3029Y5906D01*
X3030Y5906D01*
X3031Y5906D01*
X3032Y5906D01*
X3033Y5906D01*
X3034Y5906D01*
X3035Y5906D01*
X3036Y5906D01*
X3037Y5906D01*
X3038Y5906D01*
X3039Y5906D01*
X3040Y5906D01*
X3041Y5906D01*
X3042Y5906D01*
X3043Y5906D01*
X3044Y5906D01*
X3045Y5906D01*
X3046Y5906D01*
X3047Y5906D01*
X3048Y5906D01*
X3049Y5906D01*
X3050Y5906D01*
X3051Y5906D01*
X3052Y5906D01*
X3053Y5906D01*
X3054Y5906D01*
X3055Y5906D01*
X3056Y5906D01*
X3057Y5906D01*
X3058Y5906D01*
X3059Y5906D01*
X3060Y5906D01*
X3061Y5906D01*
X3062Y5906D01*
X3063Y5906D01*
X3064Y5906D01*
X3065Y5906D01*
X3066Y5906D01*
X3067Y5906D01*
X3068Y5906D01*
X3069Y5906D01*
X3070Y5906D01*
X3071Y5906D01*
X3072Y5906D01*
X3073Y5906D01*
X3074Y5906D01*
X3075Y5906D01*
X3076Y5906D01*
X3077Y5906D01*
X3078Y5906D01*
X3079Y5906D01*
X3080Y5906D01*
X3081Y5906D01*
X3082Y5906D01*
X3083Y5906D01*
X3084Y5906D01*
X3085Y5906D01*
X3086Y5906D01*
X3087Y5906D01*
X3088Y5906D01*
X3089Y5906D01*
X3090Y5906D01*
X3091Y5906D01*
X3092Y5906D01*
X3093Y5906D01*
X3094Y5906D01*
X3095Y5906D01*
X3096Y5906D01*
X3097Y5906D01*
X3098Y5906D01*
X3099Y5906D01*
X3100Y5906D01*
X3101Y5906D01*
X3102Y5906D01*
X3103Y5906D01*
X3104Y5906D01*
X3105Y5906D01*
X3106Y5906D01*
X3107Y5906D01*
X3108Y5906D01*
X3109Y5906D01*
X3110Y5906D01*
X3111Y5906D01*
X3112Y5906D01*
X3113Y5906D01*
X3114Y5906D01*
X3115Y5906D01*
X3116Y5906D01*
X3117Y5906D01*
X3118Y5906D01*
X3119Y5906D01*
X3120Y5906D01*
X3121Y5906D01*
X3122Y5906D01*
X3123Y5906D01*
X3124Y5906D01*
X3125Y5906D01*
X3126Y5906D01*
X3127Y5906D01*
X3128Y5906D01*
X3129Y5906D01*
X3130Y5906D01*
X3131Y5906D01*
X3132Y5906D01*
X3133Y5906D01*
X3134Y5906D01*
X3135Y5906D01*
X3136Y5906D01*
X3137Y5906D01*
X3138Y5906D01*
X3139Y5906D01*
X3140Y5906D01*
X3141Y5906D01*
X3142Y5906D01*
X3143Y5906D01*
X3144Y5906D01*
X3145Y5906D01*
X3146Y5906D01*
X3147Y5906D01*
X3148Y5906D01*
X3149Y5906D01*
X3150Y5906D01*
X3151Y5906D01*
X3152Y5906D01*
X3153Y5906D01*
X3154Y5906D01*
X3155Y5906D01*
X3156Y5906D01*
X3157Y5906D01*
X3158Y5906D01*
X3159Y5906D01*
X3160Y5906D01*
X3161Y5906D01*
X3162Y5906D01*
X3163Y5906D01*
X3164Y5906D01*
X3165Y5906D01*
X3166Y5906D01*
X3167Y5906D01*
X3168Y5906D01*
X3169Y5906D01*
X3170Y5906D01*
X3171Y5906D01*
X3172Y5906D01*
X3173Y5906D01*
X3174Y5906D01*
X3175Y5906D01*
X3176Y5906D01*
X3177Y5906D01*
X3178Y5906D01*
X3179Y5906D01*
X3180Y5906D01*
X3181Y5906D01*
X3182Y5906D01*
X3183Y5906D01*
X3184Y5906D01*
X3185Y5906D01*
X3186Y5906D01*
X3187Y5906D01*
X3188Y5906D01*
X3189Y5906D01*
X3190Y5906D01*
X3191Y5906D01*
X3192Y5906D01*
X3193Y5906D01*
X3194Y5906D01*
X3195Y5906D01*
X3196Y5906D01*
X3197Y5906D01*
X3198Y5906D01*
X3199Y5906D01*
X3200Y5906D01*
X3201Y5906D01*
X3202Y5906D01*
X3203Y5906D01*
X3204Y5906D01*
X3205Y5906D01*
X3206Y5906D01*
X3207Y5906D01*
X3208Y5906D01*
X3209Y5906D01*
X3210Y5906D01*
X3211Y5906D01*
X3212Y5906D01*
X3213Y5906D01*
X3214Y5906D01*
X3215Y5906D01*
X3216Y5906D01*
X3217Y5906D01*
X3218Y5906D01*
X3219Y5906D01*
X3220Y5906D01*
X3221Y5906D01*
X3222Y5906D01*
X3223Y5906D01*
X3224Y5906D01*
X3225Y5906D01*
X3226Y5906D01*
X3227Y5906D01*
X3228Y5906D01*
X3229Y5906D01*
X3230Y5906D01*
X3231Y5906D01*
X3232Y5906D01*
X3233Y5906D01*
X3234Y5906D01*
X3235Y5906D01*
X3236Y5906D01*
X3237Y5906D01*
X3238Y5906D01*
X3239Y5906D01*
X3240Y5906D01*
X3241Y5906D01*
X3242Y5906D01*
X3243Y5906D01*
X3244Y5906D01*
X3245Y5906D01*
X3246Y5906D01*
X3247Y5906D01*
X3248Y5906D01*
X3249Y5906D01*
X3250Y5906D01*
X3251Y5906D01*
X3252Y5906D01*
X3253Y5906D01*
X3254Y5906D01*
X3255Y5906D01*
X3256Y5906D01*
X3257Y5906D01*
X3258Y5906D01*
X3259Y5906D01*
X3260Y5906D01*
X3261Y5906D01*
X3262Y5906D01*
X3263Y5906D01*
X3264Y5906D01*
X3265Y5906D01*
X3266Y5906D01*
X3267Y5906D01*
X3268Y5906D01*
X3269Y5906D01*
X3270Y5906D01*
X3271Y5906D01*
X3272Y5906D01*
X3273Y5906D01*
X3274Y5906D01*
X3275Y5906D01*
X3276Y5906D01*
X3277Y5906D01*
X3278Y5906D01*
X3279Y5906D01*
X3280Y5906D01*
X3281Y5906D01*
X3282Y5906D01*
X3283Y5906D01*
X3284Y5906D01*
X3285Y5906D01*
X3286Y5906D01*
X3287Y5906D01*
X3288Y5906D01*
X3289Y5906D01*
X3290Y5906D01*
X3291Y5906D01*
X3292Y5906D01*
X3293Y5906D01*
X3294Y5906D01*
X3295Y5906D01*
X3296Y5906D01*
X3297Y5906D01*
X3298Y5906D01*
X3299Y5906D01*
X3300Y5906D01*
X3301Y5906D01*
X3302Y5906D01*
X3303Y5906D01*
X3304Y5906D01*
X3305Y5906D01*
X3306Y5906D01*
X3307Y5906D01*
X3308Y5906D01*
X3309Y5906D01*
X3310Y5906D01*
X3311Y5906D01*
X3312Y5906D01*
X3313Y5906D01*
X3314Y5906D01*
X3315Y5906D01*
X3316Y5906D01*
X3317Y5906D01*
X3318Y5906D01*
X3319Y5906D01*
X3320Y5906D01*
X3321Y5906D01*
X3322Y5906D01*
X3323Y5906D01*
X3324Y5906D01*
X3325Y5906D01*
X3326Y5906D01*
X3327Y5906D01*
X3328Y5906D01*
X3329Y5906D01*
X3330Y5906D01*
X3331Y5906D01*
X3332Y5906D01*
X3333Y5906D01*
X3334Y5906D01*
X3335Y5906D01*
X3336Y5906D01*
X3337Y5906D01*
X3338Y5906D01*
X3339Y5906D01*
X3340Y5906D01*
X3341Y5906D01*
X3342Y5906D01*
X3343Y5906D01*
X3344Y5906D01*
X3345Y5906D01*
X3346Y5906D01*
X3347Y5906D01*
X3348Y5906D01*
X3349Y5906D01*
X3350Y5906D01*
X3351Y5906D01*
X3352Y5906D01*
X3353Y5906D01*
X3354Y5906D01*
X3355Y5906D01*
X3356Y5906D01*
X3357Y5906D01*
X3358Y5906D01*
X3359Y5906D01*
X3360Y5906D01*
X3361Y5906D01*
X3362Y5906D01*
X3363Y5906D01*
X3364Y5906D01*
X3365Y5906D01*
X3366Y5906D01*
X3367Y5906D01*
X3368Y5906D01*
X3369Y5906D01*
X3370Y5906D01*
X3371Y5906D01*
X3372Y5906D01*
X3373Y5906D01*
X3374Y5906D01*
X3375Y5906D01*
X3376Y5906D01*
X3377Y5906D01*
X3378Y5906D01*
X3379Y5906D01*
X3380Y5906D01*
X3381Y5906D01*
X3382Y5906D01*
X3383Y5906D01*
X3384Y5906D01*
X3385Y5906D01*
X3386Y5906D01*
X3387Y5906D01*
X3388Y5906D01*
X3389Y5906D01*
X3390Y5906D01*
X3391Y5906D01*
X3392Y5906D01*
X3393Y5906D01*
X3394Y5906D01*
X3395Y5906D01*
X3396Y5906D01*
X3397Y5906D01*
X3398Y5906D01*
X3399Y5906D01*
X3400Y5906D01*
X3401Y5906D01*
X3402Y5906D01*
X3403Y5906D01*
X3404Y5906D01*
X3405Y5906D01*
X3406Y5906D01*
X3407Y5906D01*
X3408Y5906D01*
X3409Y5906D01*
X3410Y5906D01*
X3411Y5906D01*
X3412Y5906D01*
X3413Y5906D01*
X3414Y5906D01*
X3415Y5906D01*
X3416Y5906D01*
X3417Y5906D01*
X3418Y5906D01*
X3419Y5906D01*
X3420Y5906D01*
X3421Y5906D01*
X3422Y5906D01*
X3423Y5906D01*
X3424Y5906D01*
X3425Y5906D01*
X3426Y5906D01*
X3427Y5906D01*
X3428Y5906D01*
X3429Y5906D01*
X3430Y5906D01*
X3431Y5906D01*
X3432Y5906D01*
X3433Y5906D01*
X3434Y5906D01*
X3435Y5906D01*
X3436Y5906D01*
X3437Y5906D01*
X3438Y5906D01*
X3439Y5906D01*
X3440Y5906D01*
X3441Y5906D01*
X3442Y5906D01*
X3443Y5906D01*
X3444Y5906D01*
X3445Y5906D01*
X3446Y5906D01*
X3447Y5906D01*
X3448Y5906D01*
X3449Y5906D01*
X3450Y5906D01*
X3451Y5906D01*
X3452Y5906D01*
X3453Y5906D01*
X3454Y5906D01*
X3455Y5906D01*
X3456Y5906D01*
X3457Y5906D01*
X3458Y5906D01*
X3459Y5906D01*
X3460Y5906D01*
X3461Y5906D01*
X3462Y5906D01*
X3463Y5906D01*
X3464Y5906D01*
X3465Y5906D01*
X3466Y5906D01*
X3467Y5906D01*
X3468Y5906D01*
X3469Y5906D01*
X3470Y5906D01*
X3471Y5906D01*
X3472Y5906D01*
X3473Y5906D01*
X3474Y5906D01*
X3475Y5906D01*
X3476Y5906D01*
X3477Y5906D01*
X3478Y5906D01*
X3479Y5906D01*
X3480Y5906D01*
X3481Y5906D01*
X3482Y5906D01*
X3483Y5906D01*
X3484Y5906D01*
X3485Y5906D01*
X3486Y5906D01*
X3487Y5906D01*
X3488Y5906D01*
X3489Y5906D01*
X3490Y5906D01*
X3491Y5906D01*
X3492Y5906D01*
X3493Y5906D01*
X3494Y5906D01*
X3495Y5906D01*
X3496Y5906D01*
X3497Y5906D01*
X3498Y5906D01*
X3499Y5906D01*
X3500Y5906D01*
X3501Y5906D01*
X3502Y5906D01*
X3503Y5906D01*
X3504Y5906D01*
X3505Y5906D01*
X3506Y5906D01*
X3507Y5906D01*
X3508Y5906D01*
X3509Y5906D01*
X3510Y5906D01*
X3511Y5906D01*
X3512Y5906D01*
X3513Y5906D01*
X3514Y5906D01*
X3515Y5906D01*
X3516Y5906D01*
X3517Y5906D01*
X3518Y5906D01*
X3519Y5906D01*
X3520Y5906D01*
X3521Y5906D01*
X3522Y5906D01*
X3523Y5906D01*
X3524Y5906D01*
X3525Y5906D01*
X3526Y5906D01*
X3527Y5906D01*
X3528Y5906D01*
X3529Y5906D01*
X3530Y5906D01*
X3531Y5906D01*
X3532Y5906D01*
X3533Y5906D01*
X3534Y5906D01*
X3535Y5906D01*
X3536Y5906D01*
X3537Y5906D01*
X3538Y5906D01*
X3539Y5906D01*
X3540Y5906D01*
X3541Y5906D01*
X3542Y5906D01*
X3543Y5906D01*
X3544Y5906D01*
X3545Y5906D01*
X3546Y5906D01*
X3547Y5906D01*
X3548Y5906D01*
X3549Y5906D01*
X3550Y5906D01*
X3551Y5906D01*
X3552Y5906D01*
X3553Y5906D01*
X3554Y5906D01*
X3555Y5906D01*
X3556Y5906D01*
X3557Y5906D01*
X3558Y5906D01*
X3559Y5906D01*
X3560Y5906D01*
X3561Y5905D01*
X3562Y5905D01*
X3563Y5905D01*
X3564Y5905D01*
X3565Y5905D01*
X3566Y5905D01*
X3567Y5905D01*
X3568Y5905D01*
X3569Y5905D01*
X3570Y5905D01*
X3571Y5905D01*
X3572Y5905D01*
X3573Y5905D01*
X3574Y5905D01*
X3575Y5904D01*
X3576Y5904D01*
X3577Y5904D01*
X3578Y5904D01*
X3579Y5904D01*
X3580Y5904D01*
X3581Y5904D01*
X3582Y5904D01*
X3583Y5904D01*
X3584Y5904D01*
X3585Y5903D01*
X3586Y5903D01*
X3587Y5903D01*
X3588Y5903D01*
X3589Y5903D01*
X3590Y5903D01*
X3591Y5903D01*
X3592Y5903D01*
X3593Y5902D01*
X3594Y5902D01*
X3595Y5902D01*
X3596Y5902D01*
X3597Y5902D01*
X3598Y5902D01*
X3599Y5902D01*
X3600Y5902D01*
X3601Y5901D01*
X3602Y5901D01*
X3603Y5901D01*
X3604Y5901D01*
X3605Y5901D01*
X3606Y5901D01*
X3607Y5900D01*
X3608Y5900D01*
X3609Y5900D01*
X3610Y5900D01*
X3611Y5900D01*
X3612Y5900D01*
X3613Y5899D01*
X3614Y5899D01*
X3615Y5899D01*
X3616Y5899D01*
X3617Y5899D01*
X3618Y5898D01*
X3619Y5898D01*
X3620Y5898D01*
X3621Y5898D01*
X3622Y5898D01*
X3623Y5897D01*
X3624Y5897D01*
X3625Y5897D01*
X3626Y5897D01*
X3627Y5897D01*
X3628Y5896D01*
X3629Y5896D01*
X3630Y5896D01*
X3631Y5896D01*
X3632Y5895D01*
X3633Y5895D01*
X3634Y5895D01*
X3635Y5895D01*
X3636Y5894D01*
X3637Y5894D01*
X3638Y5894D01*
X3639Y5894D01*
X3640Y5893D01*
X3641Y5893D01*
X3642Y5893D01*
X3643Y5893D01*
X3644Y5892D01*
X3645Y5892D01*
X3646Y5892D01*
X3647Y5892D01*
X3648Y5891D01*
X3649Y5891D01*
X3650Y5891D01*
X3651Y5890D01*
X3652Y5890D01*
X3653Y5890D01*
X3654Y5890D01*
X3655Y5889D01*
X3656Y5889D01*
X3657Y5889D01*
X3658Y5888D01*
X3659Y5888D01*
X3660Y5888D01*
X3661Y5887D01*
X3662Y5887D01*
X3663Y5887D01*
X3664Y5886D01*
X3665Y5886D01*
X3666Y5886D01*
X3667Y5885D01*
X3668Y5885D01*
X3669Y5885D01*
X3670Y5884D01*
X3671Y5884D01*
X3672Y5884D01*
X3673Y5883D01*
X3674Y5883D01*
X3675Y5883D01*
X3676Y5882D01*
X3677Y5882D01*
X3678Y5882D01*
X3679Y5881D01*
X3680Y5881D01*
X3681Y5880D01*
X3682Y5880D01*
X3683Y5880D01*
X3684Y5879D01*
X3685Y5879D01*
X3686Y5879D01*
X3687Y5878D01*
X3688Y5878D01*
X3689Y5877D01*
X3690Y5877D01*
X3691Y5877D01*
X3692Y5876D01*
X3693Y5876D01*
X3694Y5875D01*
X3695Y5875D01*
X3696Y5875D01*
X3697Y5874D01*
X3698Y5874D01*
X3699Y5873D01*
X3700Y5873D01*
X3701Y5872D01*
X3702Y5872D01*
X3703Y5871D01*
X3704Y5871D01*
X3705Y5871D01*
X3706Y5870D01*
X3707Y5870D01*
X3708Y5869D01*
X3709Y5869D01*
X3710Y5868D01*
X3711Y5868D01*
X3712Y5867D01*
X3713Y5867D01*
X3714Y5866D01*
X3715Y5866D01*
X3716Y5865D01*
X3717Y5865D01*
X3718Y5864D01*
X3719Y5864D01*
X3720Y5863D01*
X3721Y5863D01*
X3722Y5862D01*
X3723Y5862D01*
X3724Y5861D01*
X3725Y5861D01*
X3726Y5860D01*
X3727Y5860D01*
X3728Y5859D01*
X3729Y5859D01*
X3730Y5858D01*
X3731Y5858D01*
X3732Y5857D01*
X3733Y5857D01*
X3734Y5856D01*
X3735Y5856D01*
X3736Y5855D01*
X3737Y5854D01*
X3738Y5854D01*
X3739Y5853D01*
X3740Y5853D01*
X3741Y5852D01*
X3742Y5852D01*
X3743Y5851D01*
X3744Y5850D01*
X3745Y5850D01*
X3746Y5849D01*
X3747Y5849D01*
X3748Y5848D01*
X3749Y5847D01*
X3750Y5847D01*
X3751Y5846D01*
X3752Y5846D01*
X3753Y5845D01*
X3754Y5844D01*
X3755Y5844D01*
X3756Y5843D01*
X3757Y5842D01*
X3758Y5842D01*
X3759Y5841D01*
X3760Y5841D01*
X3761Y5840D01*
X3762Y5839D01*
X3763Y5839D01*
X3764Y5838D01*
X3765Y5837D01*
X3766Y5836D01*
X3767Y5836D01*
X3768Y5835D01*
X3769Y5834D01*
X3770Y5834D01*
X3771Y5833D01*
X3772Y5832D01*
X3773Y5832D01*
X3774Y5831D01*
X3775Y5830D01*
X3776Y5829D01*
X3777Y5829D01*
X3778Y5828D01*
X3779Y5827D01*
X3780Y5826D01*
X3781Y5826D01*
X3782Y5825D01*
X3783Y5824D01*
X3784Y5823D01*
X3785Y5823D01*
X3786Y5822D01*
X3787Y5821D01*
X3788Y5820D01*
X3789Y5820D01*
X3790Y5819D01*
X3791Y5818D01*
X3792Y5817D01*
X3793Y5816D01*
X3794Y5816D01*
X3795Y5815D01*
X3796Y5814D01*
X3797Y5813D01*
X3798Y5812D01*
X3799Y5811D01*
X3800Y5810D01*
X3801Y5810D01*
X3802Y5809D01*
X3803Y5808D01*
X3804Y5807D01*
X3805Y5806D01*
X3806Y5805D01*
X3807Y5804D01*
X3808Y5804D01*
X3809Y5803D01*
X3810Y5802D01*
X3811Y5801D01*
X3812Y5800D01*
X3813Y5799D01*
X3814Y5798D01*
X3815Y5797D01*
X3816Y5796D01*
X3817Y5795D01*
X3818Y5794D01*
X3819Y5793D01*
X3820Y5792D01*
X3821Y5791D01*
X3822Y5790D01*
X3823Y5789D01*
X3824Y5788D01*
X3825Y5787D01*
X3826Y5786D01*
X3827Y5785D01*
X3828Y5784D01*
X3829Y5783D01*
X3830Y5782D01*
X3831Y5781D01*
X3832Y5780D01*
X3833Y5779D01*
X3834Y5778D01*
X3835Y5777D01*
X3836Y5776D01*
X3837Y5775D01*
X3837Y5774D01*
X3838Y5773D01*
X3839Y5772D01*
X3840Y5771D01*
X3841Y5770D01*
X3842Y5769D01*
X3843Y5768D01*
X3844Y5767D01*
X3845Y5766D01*
X3845Y5765D01*
X3846Y5764D01*
X3847Y5763D01*
X3848Y5762D01*
X3849Y5761D01*
X3849Y5760D01*
X3850Y5759D01*
X3851Y5758D01*
X3852Y5757D01*
X3853Y5756D01*
X3854Y5755D01*
X3854Y5754D01*
X3855Y5753D01*
X3856Y5752D01*
X3857Y5751D01*
X3857Y5750D01*
X3858Y5749D01*
X3859Y5748D01*
X3860Y5747D01*
X3860Y5746D01*
X3861Y5745D01*
X3862Y5744D01*
X3863Y5743D01*
X3863Y5742D01*
X3864Y5741D01*
X3865Y5740D01*
X3866Y5739D01*
X3866Y5738D01*
X3867Y5737D01*
X3868Y5736D01*
X3868Y5735D01*
X3869Y5734D01*
X3870Y5733D01*
X3870Y5732D01*
X3871Y5731D01*
X3872Y5730D01*
X3872Y5729D01*
X3873Y5728D01*
X3874Y5727D01*
X3874Y5726D01*
X3875Y5725D01*
X3876Y5724D01*
X3876Y5723D01*
X3877Y5722D01*
X3878Y5721D01*
X3878Y5720D01*
X3879Y5719D01*
X3879Y5718D01*
X3880Y5717D01*
X3881Y5716D01*
X3881Y5715D01*
X3882Y5714D01*
X3882Y5713D01*
X3883Y5712D01*
X3884Y5711D01*
X3884Y5710D01*
X3885Y5709D01*
X3885Y5708D01*
X3886Y5707D01*
X3887Y5706D01*
X3887Y5705D01*
X3888Y5704D01*
X3888Y5703D01*
X3889Y5702D01*
X3889Y5701D01*
X3890Y5700D01*
X3890Y5699D01*
X3891Y5698D01*
X3891Y5697D01*
X3892Y5696D01*
X3892Y5695D01*
X3893Y5694D01*
X3894Y5693D01*
X3894Y5692D01*
X3895Y5691D01*
X3895Y5690D01*
X3896Y5689D01*
X3896Y5688D01*
X3897Y5687D01*
X3897Y5686D01*
X3898Y5685D01*
X3898Y5684D01*
X3899Y5683D01*
X3899Y5681D01*
X3900Y5680D01*
X3900Y5679D01*
X3901Y5678D01*
X3901Y5677D01*
X3902Y5676D01*
X3902Y5675D01*
X3903Y5674D01*
X3903Y5673D01*
X3904Y5672D01*
X3904Y5671D01*
X3905Y5670D01*
X3905Y5668D01*
X3906Y5667D01*
X3906Y5666D01*
X3907Y5665D01*
X3907Y5663D01*
X3908Y5662D01*
X3908Y5661D01*
X3909Y5660D01*
X3909Y5658D01*
X3910Y5657D01*
X3910Y5656D01*
X3911Y5655D01*
X3911Y5654D01*
X3912Y5653D01*
X3912Y5651D01*
X3913Y5650D01*
X3913Y5648D01*
X3914Y5647D01*
X3914Y5645D01*
X3915Y5644D01*
X3915Y5642D01*
X3916Y5641D01*
X3916Y5639D01*
X3917Y5638D01*
X3917Y5636D01*
X3918Y5635D01*
X3918Y5633D01*
X3919Y5632D01*
X3919Y5630D01*
X3920Y5629D01*
X3920Y5627D01*
X3921Y5626D01*
X3921Y5623D01*
X3922Y5622D01*
X3922Y5620D01*
X3923Y5619D01*
X3923Y5616D01*
X3924Y5615D01*
X3924Y5612D01*
X3925Y5611D01*
X3925Y5608D01*
X3926Y5607D01*
X3926Y5604D01*
X3927Y5603D01*
X3927Y5599D01*
X3928Y5598D01*
X3928Y5595D01*
X3929Y5594D01*
X3929Y5590D01*
X3930Y5589D01*
X3930Y5584D01*
X3931Y5583D01*
X3931Y5578D01*
X3932Y5577D01*
X3932Y5571D01*
X3933Y5570D01*
X3933Y5563D01*
X3934Y5562D01*
X3934Y5553D01*
X3935Y5552D01*
X3935Y5539D01*
X3936Y5538D01*
X3936Y370D01*
X3935Y369D01*
X3935Y356D01*
X3934Y355D01*
X3934Y346D01*
X3933Y345D01*
X3933Y338D01*
X3932Y337D01*
X3932Y331D01*
X3931Y330D01*
X3931Y325D01*
X3930Y324D01*
X3930Y319D01*
X3929Y318D01*
X3929Y314D01*
X3928Y313D01*
X3928Y310D01*
X3927Y309D01*
X3927Y305D01*
X3926Y304D01*
X3926Y301D01*
X3925Y300D01*
X3925Y297D01*
X3924Y296D01*
X3924Y293D01*
X3923Y292D01*
X3923Y289D01*
X3922Y288D01*
X3922Y286D01*
X3921Y285D01*
X3921Y282D01*
X3920Y281D01*
X3920Y279D01*
X3919Y278D01*
X3919Y276D01*
X3918Y275D01*
X3918Y273D01*
X3917Y272D01*
X3917Y270D01*
X3916Y269D01*
X3916Y267D01*
X3915Y266D01*
X3915Y264D01*
X3914Y263D01*
X3914Y261D01*
X3913Y260D01*
X3913Y258D01*
X3912Y257D01*
X3912Y255D01*
X3911Y254D01*
X3911Y253D01*
X3910Y252D01*
X3910Y251D01*
X3909Y250D01*
X3909Y248D01*
X3908Y247D01*
X3908Y246D01*
X3907Y245D01*
X3907Y243D01*
X3906Y242D01*
X3906Y241D01*
X3905Y240D01*
X3905Y238D01*
X3904Y237D01*
X3904Y236D01*
X3903Y235D01*
X3903Y234D01*
X3902Y233D01*
X3902Y232D01*
X3901Y231D01*
X3901Y230D01*
X3900Y229D01*
X3900Y228D01*
X3899Y227D01*
X3899Y225D01*
X3898Y224D01*
X3898Y223D01*
X3897Y222D01*
X3897Y221D01*
X3896Y220D01*
X3896Y219D01*
X3895Y218D01*
X3895Y217D01*
X3894Y216D01*
X3894Y215D01*
X3893Y214D01*
X3892Y213D01*
X3892Y212D01*
X3891Y211D01*
X3891Y210D01*
X3890Y209D01*
X3890Y208D01*
X3889Y207D01*
X3889Y206D01*
X3888Y205D01*
X3888Y204D01*
X3887Y203D01*
X3887Y202D01*
X3886Y201D01*
X3885Y200D01*
X3885Y199D01*
X3884Y198D01*
X3884Y197D01*
X3883Y196D01*
X3882Y195D01*
X3882Y194D01*
X3881Y193D01*
X3881Y192D01*
X3880Y191D01*
X3879Y190D01*
X3879Y189D01*
X3878Y188D01*
X3878Y187D01*
X3877Y186D01*
X3876Y185D01*
X3876Y184D01*
X3875Y183D01*
X3874Y182D01*
X3874Y181D01*
X3873Y180D01*
X3872Y179D01*
X3872Y178D01*
X3871Y177D01*
X3870Y176D01*
X3870Y175D01*
X3869Y174D01*
X3868Y173D01*
X3868Y172D01*
X3867Y171D01*
X3866Y170D01*
X3866Y169D01*
X3865Y168D01*
X3864Y167D01*
X3863Y166D01*
X3863Y165D01*
X3862Y164D01*
X3861Y163D01*
X3860Y162D01*
X3860Y161D01*
X3859Y160D01*
X3858Y159D01*
X3857Y158D01*
X3857Y157D01*
X3856Y156D01*
X3855Y155D01*
X3854Y154D01*
X3854Y153D01*
X3853Y152D01*
X3852Y151D01*
X3851Y150D01*
X3850Y149D01*
X3849Y148D01*
X3849Y147D01*
X3848Y146D01*
X3847Y145D01*
X3846Y144D01*
X3845Y143D01*
X3845Y142D01*
X3844Y141D01*
X3843Y140D01*
X3842Y139D01*
X3841Y138D01*
X3840Y137D01*
X3839Y136D01*
X3838Y135D01*
X3837Y134D01*
X3837Y133D01*
X3836Y132D01*
X3835Y131D01*
X3834Y130D01*
X3833Y129D01*
X3832Y128D01*
X3831Y127D01*
X3830Y126D01*
X3829Y125D01*
X3828Y124D01*
X3827Y123D01*
X3826Y122D01*
X3825Y121D01*
X3824Y120D01*
X3823Y119D01*
X3822Y118D01*
X3821Y117D01*
X3820Y116D01*
X3819Y115D01*
X3818Y114D01*
X3817Y113D01*
X3816Y112D01*
X3815Y111D01*
X3814Y110D01*
X3813Y109D01*
X3812Y108D01*
X3811Y107D01*
X3810Y106D01*
X3809Y105D01*
X3808Y104D01*
X3807Y104D01*
X3806Y103D01*
X3805Y102D01*
X3804Y101D01*
X3803Y100D01*
X3802Y99D01*
X3801Y98D01*
X3800Y98D01*
X3799Y97D01*
X3798Y96D01*
X3797Y95D01*
X3796Y94D01*
X3795Y93D01*
X3794Y92D01*
X3793Y92D01*
X3792Y91D01*
X3791Y90D01*
X3790Y89D01*
X3789Y88D01*
X3788Y88D01*
X3787Y87D01*
X3786Y86D01*
X3785Y85D01*
X3784Y85D01*
X3783Y84D01*
X3782Y83D01*
X3781Y82D01*
X3780Y82D01*
X3779Y81D01*
X3778Y80D01*
X3777Y79D01*
X3776Y79D01*
X3775Y78D01*
X3774Y77D01*
X3773Y76D01*
X3772Y76D01*
X3771Y75D01*
X3770Y74D01*
X3769Y74D01*
X3768Y73D01*
X3767Y72D01*
X3766Y72D01*
X3765Y71D01*
X3764Y70D01*
X3763Y69D01*
X3762Y69D01*
X3761Y68D01*
X3760Y67D01*
X3759Y67D01*
X3758Y66D01*
X3757Y66D01*
X3756Y65D01*
X3755Y64D01*
X3754Y64D01*
X3753Y63D01*
X3752Y62D01*
X3751Y62D01*
X3750Y61D01*
X3749Y61D01*
X3748Y60D01*
X3747Y59D01*
X3746Y59D01*
X3745Y58D01*
X3744Y58D01*
X3743Y57D01*
X3742Y56D01*
X3741Y56D01*
X3740Y55D01*
X3739Y55D01*
X3738Y54D01*
X3737Y54D01*
X3736Y53D01*
X3735Y52D01*
X3734Y52D01*
X3733Y51D01*
X3732Y51D01*
X3731Y50D01*
X3730Y50D01*
X3729Y49D01*
X3728Y49D01*
X3727Y48D01*
X3726Y48D01*
X3725Y47D01*
X3724Y47D01*
X3723Y46D01*
X3722Y46D01*
X3721Y45D01*
X3720Y45D01*
X3719Y44D01*
X3718Y44D01*
X3717Y43D01*
X3716Y43D01*
X3715Y42D01*
X3714Y42D01*
X3713Y41D01*
X3712Y41D01*
X3711Y40D01*
X3710Y40D01*
X3709Y39D01*
X3708Y39D01*
X3707Y38D01*
X3706Y38D01*
X3705Y37D01*
X3704Y37D01*
X3703Y37D01*
X3702Y36D01*
X3701Y36D01*
X3700Y35D01*
X3699Y35D01*
X3698Y34D01*
X3697Y34D01*
X3696Y33D01*
X3695Y33D01*
X3694Y33D01*
X3693Y32D01*
X3692Y32D01*
X3691Y31D01*
X3690Y31D01*
X3689Y31D01*
X3688Y30D01*
X3687Y30D01*
X3686Y29D01*
X3685Y29D01*
X3684Y29D01*
X3683Y28D01*
X3682Y28D01*
X3681Y28D01*
X3680Y27D01*
X3679Y27D01*
X3678Y26D01*
X3677Y26D01*
X3676Y26D01*
X3675Y25D01*
X3674Y25D01*
X3673Y25D01*
X3672Y24D01*
X3671Y24D01*
X3670Y24D01*
X3669Y23D01*
X3668Y23D01*
X3667Y23D01*
X3666Y22D01*
X3665Y22D01*
X3664Y22D01*
X3663Y21D01*
X3662Y21D01*
X3661Y21D01*
X3660Y20D01*
X3659Y20D01*
X3658Y20D01*
X3657Y19D01*
X3656Y19D01*
X3655Y19D01*
X3654Y18D01*
X3653Y18D01*
X3652Y18D01*
X3651Y18D01*
X3650Y17D01*
X3649Y17D01*
X3648Y17D01*
X3647Y16D01*
X3646Y16D01*
X3645Y16D01*
X3644Y16D01*
X3643Y15D01*
X3642Y15D01*
X3641Y15D01*
X3640Y15D01*
X3639Y14D01*
X3638Y14D01*
X3637Y14D01*
X3636Y14D01*
X3635Y13D01*
X3634Y13D01*
X3633Y13D01*
X3632Y13D01*
X3631Y12D01*
X3630Y12D01*
X3629Y12D01*
X3628Y12D01*
X3627Y12D01*
X3626Y11D01*
X3625Y11D01*
X3624Y11D01*
X3623Y11D01*
X3622Y10D01*
X3621Y10D01*
X3620Y10D01*
X3619Y10D01*
X3618Y10D01*
X3617Y9D01*
X3616Y9D01*
X3615Y9D01*
X3614Y9D01*
X3613Y9D01*
X3612Y8D01*
X3611Y8D01*
X3610Y8D01*
X3609Y8D01*
X3608Y8D01*
X3607Y8D01*
X3606Y7D01*
X3605Y7D01*
X3604Y7D01*
X3603Y7D01*
X3602Y7D01*
X3601Y7D01*
X3600Y6D01*
X3599Y6D01*
X3598Y6D01*
X3597Y6D01*
X3596Y6D01*
X3595Y6D01*
X3594Y6D01*
X3593Y6D01*
X3592Y5D01*
X3591Y5D01*
X3590Y5D01*
X3589Y5D01*
X3588Y5D01*
X3587Y5D01*
X3586Y5D01*
X3585Y5D01*
X3584Y4D01*
X3583Y4D01*
X3582Y4D01*
X3581Y4D01*
X3580Y4D01*
X3579Y4D01*
X3578Y4D01*
X3577Y4D01*
X3576Y4D01*
X3575Y4D01*
X3574Y3D01*
X3573Y3D01*
X3572Y3D01*
X3571Y3D01*
X3570Y3D01*
X3569Y3D01*
X3568Y3D01*
X3567Y3D01*
X3566Y3D01*
X3565Y3D01*
X3564Y3D01*
X3563Y3D01*
X3562Y3D01*
X3561Y3D01*
X3560Y3D01*
X3559Y2D01*
X3558Y2D01*
X3557Y2D01*
X3556Y2D01*
X3555Y2D01*
X3554Y2D01*
X3553Y2D01*
X3552Y2D01*
X3551Y2D01*
X3550Y2D01*
X3549Y2D01*
X3548Y2D01*
X3547Y2D01*
X3546Y2D01*
X3545Y2D01*
X3544Y2D01*
X3543Y2D01*
X3542Y2D01*
X3541Y2D01*
X3540Y2D01*
X3539Y2D01*
X3538Y2D01*
X3537Y2D01*
X3536Y2D01*
X3535Y2D01*
X3534Y2D01*
X3533Y2D01*
X3532Y2D01*
X3531Y2D01*
X3530Y2D01*
X3529Y2D01*
X3528Y2D01*
X3527Y2D01*
X3526Y2D01*
X3525Y2D01*
X3524Y2D01*
X3523Y2D01*
X3522Y2D01*
X3521Y2D01*
X3520Y2D01*
X3519Y2D01*
X3518Y2D01*
X3517Y2D01*
X3516Y2D01*
X3515Y2D01*
X3514Y2D01*
X3513Y2D01*
X3512Y2D01*
X3511Y2D01*
X3510Y2D01*
X3509Y2D01*
X3508Y2D01*
X3507Y2D01*
X3506Y2D01*
X3505Y2D01*
X3504Y2D01*
X3503Y2D01*
X3502Y2D01*
X3501Y2D01*
X3500Y2D01*
X3499Y2D01*
X3498Y2D01*
X3497Y2D01*
X3496Y2D01*
X3495Y2D01*
X3494Y2D01*
X3493Y2D01*
X3492Y2D01*
X3491Y2D01*
X3490Y2D01*
X3489Y2D01*
X3488Y2D01*
X3487Y2D01*
X3486Y2D01*
X3485Y2D01*
X3484Y2D01*
X3483Y2D01*
X3482Y2D01*
X3481Y2D01*
X3480Y2D01*
X3479Y2D01*
X3478Y2D01*
X3477Y2D01*
X3476Y2D01*
X3475Y2D01*
X3474Y2D01*
X3473Y2D01*
X3472Y2D01*
X3471Y2D01*
X3470Y2D01*
X3469Y2D01*
X3468Y2D01*
X3467Y2D01*
X3466Y2D01*
X3465Y2D01*
X3464Y2D01*
X3463Y2D01*
X3462Y2D01*
X3461Y2D01*
X3460Y2D01*
X3459Y2D01*
X3458Y2D01*
X3457Y2D01*
X3456Y2D01*
X3455Y2D01*
X3454Y2D01*
X3453Y2D01*
X3452Y2D01*
X3451Y2D01*
X3450Y2D01*
X3449Y2D01*
X3448Y2D01*
X3447Y2D01*
X3446Y2D01*
X3445Y2D01*
X3444Y2D01*
X3443Y2D01*
X3442Y2D01*
X3441Y2D01*
X3440Y2D01*
X3439Y2D01*
X3438Y2D01*
X3437Y2D01*
X3436Y2D01*
X3435Y2D01*
X3434Y2D01*
X3433Y2D01*
X3432Y2D01*
X3431Y2D01*
X3430Y2D01*
X3429Y2D01*
X3428Y2D01*
X3427Y2D01*
X3426Y2D01*
X3425Y2D01*
X3424Y2D01*
X3423Y2D01*
X3422Y2D01*
X3421Y2D01*
X3420Y2D01*
X3419Y2D01*
X3418Y2D01*
X3417Y2D01*
X3416Y2D01*
X3415Y2D01*
X3414Y2D01*
X3413Y2D01*
X3412Y2D01*
X3411Y2D01*
X3410Y2D01*
X3409Y2D01*
X3408Y2D01*
X3407Y2D01*
X3406Y2D01*
X3405Y2D01*
X3404Y2D01*
X3403Y2D01*
X3402Y2D01*
X3401Y2D01*
X3400Y2D01*
X3399Y2D01*
X3398Y2D01*
X3397Y2D01*
X3396Y2D01*
X3395Y2D01*
X3394Y2D01*
X3393Y2D01*
X3392Y2D01*
X3391Y2D01*
X3390Y2D01*
X3389Y2D01*
X3388Y2D01*
X3387Y2D01*
X3386Y2D01*
X3385Y2D01*
X3384Y2D01*
X3383Y2D01*
X3382Y2D01*
X3381Y2D01*
X3380Y2D01*
X3379Y2D01*
X3378Y2D01*
X3377Y2D01*
X3376Y2D01*
X3375Y2D01*
X3374Y2D01*
X3373Y2D01*
X3372Y2D01*
X3371Y2D01*
X3370Y2D01*
X3369Y2D01*
X3368Y2D01*
X3367Y2D01*
X3366Y2D01*
X3365Y2D01*
X3364Y2D01*
X3363Y2D01*
X3362Y2D01*
X3361Y2D01*
X3360Y2D01*
X3359Y2D01*
X3358Y2D01*
X3357Y2D01*
X3356Y2D01*
X3355Y2D01*
X3354Y2D01*
X3353Y2D01*
X3352Y2D01*
X3351Y2D01*
X3350Y2D01*
X3349Y2D01*
X3348Y2D01*
X3347Y2D01*
X3346Y2D01*
X3345Y2D01*
X3344Y2D01*
X3343Y2D01*
X3342Y2D01*
X3341Y2D01*
X3340Y2D01*
X3339Y2D01*
X3338Y2D01*
X3337Y2D01*
X3336Y2D01*
X3335Y2D01*
X3334Y2D01*
X3333Y2D01*
X3332Y2D01*
X3331Y2D01*
X3330Y2D01*
X3329Y2D01*
X3328Y2D01*
X3327Y2D01*
X3326Y2D01*
X3325Y2D01*
X3324Y2D01*
X3323Y2D01*
X3322Y2D01*
X3321Y2D01*
X3320Y2D01*
X3319Y2D01*
X3318Y2D01*
X3317Y2D01*
X3316Y2D01*
X3315Y2D01*
X3314Y2D01*
X3313Y2D01*
X3312Y2D01*
X3311Y2D01*
X3310Y2D01*
X3309Y2D01*
X3308Y2D01*
X3307Y2D01*
X3306Y2D01*
X3305Y2D01*
X3304Y2D01*
X3303Y2D01*
X3302Y2D01*
X3301Y2D01*
X3300Y2D01*
X3299Y2D01*
X3298Y2D01*
X3297Y2D01*
X3296Y2D01*
X3295Y2D01*
X3294Y2D01*
X3293Y2D01*
X3292Y2D01*
X3291Y2D01*
X3290Y2D01*
X3289Y2D01*
X3288Y2D01*
X3287Y2D01*
X3286Y2D01*
X3285Y2D01*
X3284Y2D01*
X3283Y2D01*
X3282Y2D01*
X3281Y2D01*
X3280Y2D01*
X3279Y2D01*
X3278Y2D01*
X3277Y2D01*
X3276Y2D01*
X3275Y2D01*
X3274Y2D01*
X3273Y2D01*
X3272Y2D01*
X3271Y2D01*
X3270Y2D01*
X3269Y2D01*
X3268Y2D01*
X3267Y2D01*
X3266Y2D01*
X3265Y2D01*
X3264Y2D01*
X3263Y2D01*
X3262Y2D01*
X3261Y2D01*
X3260Y2D01*
X3259Y2D01*
X3258Y2D01*
X3257Y2D01*
X3256Y2D01*
X3255Y2D01*
X3254Y2D01*
X3253Y2D01*
X3252Y2D01*
X3251Y2D01*
X3250Y2D01*
X3249Y2D01*
X3248Y2D01*
X3247Y2D01*
X3246Y2D01*
X3245Y2D01*
X3244Y2D01*
X3243Y2D01*
X3242Y2D01*
X3241Y2D01*
X3240Y2D01*
X3239Y2D01*
X3238Y2D01*
X3237Y2D01*
X3236Y2D01*
X3235Y2D01*
X3234Y2D01*
X3233Y2D01*
X3232Y2D01*
X3231Y2D01*
X3230Y2D01*
X3229Y2D01*
X3228Y2D01*
X3227Y2D01*
X3226Y2D01*
X3225Y2D01*
X3224Y2D01*
X3223Y2D01*
X3222Y2D01*
X3221Y2D01*
X3220Y2D01*
X3219Y2D01*
X3218Y2D01*
X3217Y2D01*
X3216Y2D01*
X3215Y2D01*
X3214Y2D01*
X3213Y2D01*
X3212Y2D01*
X3211Y2D01*
X3210Y2D01*
X3209Y2D01*
X3208Y2D01*
X3207Y2D01*
X3206Y2D01*
X3205Y2D01*
X3204Y2D01*
X3203Y2D01*
X3202Y2D01*
X3201Y2D01*
X3200Y2D01*
X3199Y2D01*
X3198Y2D01*
X3197Y2D01*
X3196Y2D01*
X3195Y2D01*
X3194Y2D01*
X3193Y2D01*
X3192Y2D01*
X3191Y2D01*
X3190Y2D01*
X3189Y2D01*
X3188Y2D01*
X3187Y2D01*
X3186Y2D01*
X3185Y2D01*
X3184Y2D01*
X3183Y2D01*
X3182Y2D01*
X3181Y2D01*
X3180Y2D01*
X3179Y2D01*
X3178Y2D01*
X3177Y2D01*
X3176Y2D01*
X3175Y2D01*
X3174Y2D01*
X3173Y2D01*
X3172Y2D01*
X3171Y2D01*
X3170Y2D01*
X3169Y2D01*
X3168Y2D01*
X3167Y2D01*
X3166Y2D01*
X3165Y2D01*
X3164Y2D01*
X3163Y2D01*
X3162Y2D01*
X3161Y2D01*
X3160Y2D01*
X3159Y2D01*
X3158Y2D01*
X3157Y2D01*
X3156Y2D01*
X3155Y2D01*
X3154Y2D01*
X3153Y2D01*
X3152Y2D01*
X3151Y2D01*
X3150Y2D01*
X3149Y2D01*
X3148Y2D01*
X3147Y2D01*
X3146Y2D01*
X3145Y2D01*
X3144Y2D01*
X3143Y2D01*
X3142Y2D01*
X3141Y2D01*
X3140Y2D01*
X3139Y2D01*
X3138Y2D01*
X3137Y2D01*
X3136Y2D01*
X3135Y2D01*
X3134Y2D01*
X3133Y2D01*
X3132Y2D01*
X3131Y2D01*
X3130Y2D01*
X3129Y2D01*
X3128Y2D01*
X3127Y2D01*
X3126Y2D01*
X3125Y2D01*
X3124Y2D01*
X3123Y2D01*
X3122Y2D01*
X3121Y2D01*
X3120Y2D01*
X3119Y2D01*
X3118Y2D01*
X3117Y2D01*
X3116Y2D01*
X3115Y2D01*
X3114Y2D01*
X3113Y2D01*
X3112Y2D01*
X3111Y2D01*
X3110Y2D01*
X3109Y2D01*
X3108Y2D01*
X3107Y2D01*
X3106Y2D01*
X3105Y2D01*
X3104Y2D01*
X3103Y2D01*
X3102Y2D01*
X3101Y2D01*
X3100Y2D01*
X3099Y2D01*
X3098Y2D01*
X3097Y2D01*
X3096Y2D01*
X3095Y2D01*
X3094Y2D01*
X3093Y2D01*
X3092Y2D01*
X3091Y2D01*
X3090Y2D01*
X3089Y2D01*
X3088Y2D01*
X3087Y2D01*
X3086Y2D01*
X3085Y2D01*
X3084Y2D01*
X3083Y2D01*
X3082Y2D01*
X3081Y2D01*
X3080Y2D01*
X3079Y2D01*
X3078Y2D01*
X3077Y2D01*
X3076Y2D01*
X3075Y2D01*
X3074Y2D01*
X3073Y2D01*
X3072Y2D01*
X3071Y2D01*
X3070Y2D01*
X3069Y2D01*
X3068Y2D01*
X3067Y2D01*
X3066Y2D01*
X3065Y2D01*
X3064Y2D01*
X3063Y2D01*
X3062Y2D01*
X3061Y2D01*
X3060Y2D01*
X3059Y2D01*
X3058Y2D01*
X3057Y2D01*
X3056Y2D01*
X3055Y2D01*
X3054Y2D01*
X3053Y2D01*
X3052Y2D01*
X3051Y2D01*
X3050Y2D01*
X3049Y2D01*
X3048Y2D01*
X3047Y2D01*
X3046Y2D01*
X3045Y2D01*
X3044Y2D01*
X3043Y2D01*
X3042Y2D01*
X3041Y2D01*
X3040Y2D01*
X3039Y2D01*
X3038Y2D01*
X3037Y2D01*
X3036Y2D01*
X3035Y2D01*
X3034Y2D01*
X3033Y2D01*
X3032Y2D01*
X3031Y2D01*
X3030Y2D01*
X3029Y2D01*
X3028Y2D01*
X3027Y2D01*
X3026Y2D01*
X3025Y2D01*
X3024Y2D01*
X3023Y2D01*
X3022Y2D01*
X3021Y2D01*
X3020Y2D01*
X3019Y2D01*
X3018Y2D01*
X3017Y2D01*
X3016Y2D01*
X3015Y2D01*
X3014Y2D01*
X3013Y2D01*
X3012Y2D01*
X3011Y2D01*
X3010Y2D01*
X3009Y2D01*
X3008Y2D01*
X3007Y2D01*
X3006Y2D01*
X3005Y2D01*
X3004Y2D01*
X3003Y2D01*
X3002Y2D01*
X3001Y2D01*
X3000Y2D01*
X2999Y2D01*
X2998Y2D01*
X2997Y2D01*
X2996Y2D01*
X2995Y2D01*
X2994Y2D01*
X2993Y2D01*
X2992Y2D01*
X2991Y2D01*
X2990Y2D01*
X2989Y2D01*
X2988Y2D01*
X2987Y2D01*
X2986Y2D01*
X2985Y2D01*
X2984Y2D01*
X2983Y2D01*
X2982Y2D01*
X2981Y2D01*
X2980Y2D01*
X2979Y2D01*
X2978Y2D01*
X2977Y2D01*
X2976Y2D01*
X2975Y2D01*
X2974Y2D01*
X2973Y2D01*
X2972Y2D01*
X2971Y2D01*
X2970Y2D01*
X2969Y2D01*
X2968Y2D01*
X2967Y2D01*
X2966Y2D01*
X2965Y2D01*
X2964Y2D01*
X2963Y2D01*
X2962Y2D01*
X2961Y2D01*
X2960Y2D01*
X2959Y2D01*
X2958Y2D01*
X2957Y2D01*
X2956Y2D01*
X2955Y2D01*
X2954Y2D01*
X2953Y2D01*
X2952Y2D01*
X2951Y2D01*
X2950Y2D01*
X2949Y2D01*
X2948Y2D01*
X2947Y2D01*
X2946Y2D01*
X2945Y2D01*
X2944Y2D01*
X2943Y2D01*
X2942Y2D01*
X2941Y2D01*
X2940Y2D01*
X2939Y2D01*
X2938Y2D01*
X2937Y2D01*
X2936Y2D01*
X2935Y2D01*
X2934Y2D01*
X2933Y2D01*
X2932Y2D01*
X2931Y2D01*
X2930Y2D01*
X2929Y2D01*
X2928Y2D01*
X2927Y2D01*
X2926Y2D01*
X2925Y2D01*
X2924Y2D01*
X2923Y2D01*
X2922Y2D01*
X2921Y2D01*
X2920Y2D01*
X2919Y2D01*
X2918Y2D01*
X2917Y2D01*
X2916Y2D01*
X2915Y2D01*
X2914Y2D01*
X2913Y2D01*
X2912Y2D01*
X2911Y2D01*
X2910Y2D01*
X2909Y2D01*
X2908Y2D01*
X2907Y2D01*
X2906Y2D01*
X2905Y2D01*
X2904Y2D01*
X2903Y2D01*
X2902Y2D01*
X2901Y2D01*
X2900Y2D01*
X2899Y2D01*
X2898Y2D01*
X2897Y2D01*
X2896Y2D01*
X2895Y2D01*
X2894Y2D01*
X2893Y2D01*
X2892Y2D01*
X2891Y2D01*
X2890Y2D01*
X2889Y2D01*
X2888Y2D01*
X2887Y2D01*
X2886Y2D01*
X2885Y2D01*
X2884Y2D01*
X2883Y2D01*
X2882Y2D01*
X2881Y2D01*
X2880Y2D01*
X2879Y2D01*
X2878Y2D01*
X2877Y2D01*
X2876Y2D01*
X2875Y2D01*
X2874Y2D01*
X2873Y2D01*
X2872Y2D01*
X2871Y2D01*
X2870Y2D01*
X2869Y2D01*
X2868Y2D01*
X2867Y2D01*
X2866Y2D01*
X2865Y2D01*
X2864Y2D01*
X2863Y2D01*
X2862Y2D01*
X2861Y2D01*
X2860Y2D01*
X2859Y2D01*
X2858Y2D01*
X2857Y2D01*
X2856Y2D01*
X2855Y2D01*
X2854Y2D01*
X2853Y2D01*
X2852Y2D01*
X2851Y2D01*
X2850Y2D01*
X2849Y2D01*
X2848Y2D01*
X2847Y2D01*
X2846Y2D01*
X2845Y2D01*
X2844Y2D01*
X2843Y2D01*
X2842Y2D01*
X2841Y2D01*
X2840Y2D01*
X2839Y2D01*
X2838Y2D01*
X2837Y2D01*
X2836Y2D01*
X2835Y2D01*
X2834Y2D01*
X2833Y2D01*
X2832Y2D01*
X2831Y2D01*
X2830Y2D01*
X2829Y2D01*
X2828Y2D01*
X2827Y2D01*
X2826Y2D01*
X2825Y2D01*
X2824Y2D01*
X2823Y2D01*
X2822Y2D01*
X2821Y2D01*
X2820Y2D01*
X2819Y2D01*
X2818Y2D01*
X2817Y2D01*
X2816Y2D01*
X2815Y2D01*
X2814Y2D01*
X2813Y2D01*
X2812Y2D01*
X2811Y2D01*
X2810Y2D01*
X2809Y2D01*
X2808Y2D01*
X2807Y2D01*
X2806Y2D01*
X2805Y2D01*
X2804Y2D01*
X2803Y2D01*
X2802Y2D01*
X2801Y2D01*
X2800Y2D01*
X2799Y2D01*
X2798Y2D01*
X2797Y2D01*
X2796Y2D01*
X2795Y2D01*
X2794Y2D01*
X2793Y2D01*
X2792Y2D01*
X2791Y2D01*
X2790Y2D01*
X2789Y2D01*
X2788Y2D01*
X2787Y2D01*
X2786Y2D01*
X2785Y2D01*
X2784Y2D01*
X2783Y2D01*
X2782Y2D01*
X2781Y2D01*
X2780Y2D01*
X2779Y2D01*
X2778Y2D01*
X2777Y2D01*
X2776Y2D01*
X2775Y2D01*
X2774Y2D01*
X2773Y2D01*
X2772Y2D01*
X2771Y2D01*
X2770Y2D01*
X2769Y2D01*
X2768Y2D01*
X2767Y2D01*
X2766Y2D01*
X2765Y2D01*
X2764Y2D01*
X2763Y2D01*
X2762Y2D01*
X2761Y2D01*
X2760Y2D01*
X2759Y2D01*
X2758Y2D01*
X2757Y2D01*
X2756Y2D01*
X2755Y2D01*
X2754Y2D01*
X2753Y2D01*
X2752Y2D01*
X2751Y2D01*
X2750Y2D01*
X2749Y2D01*
X2748Y2D01*
X2747Y2D01*
X2746Y2D01*
X2745Y2D01*
X2744Y2D01*
X2743Y2D01*
X2742Y2D01*
X2741Y2D01*
X2740Y2D01*
X2739Y2D01*
X2738Y2D01*
X2737Y2D01*
X2736Y2D01*
X2735Y2D01*
X2734Y2D01*
X2733Y2D01*
X2732Y2D01*
X2731Y2D01*
X2730Y2D01*
X2729Y2D01*
X2728Y2D01*
X2727Y2D01*
X2726Y2D01*
X2725Y2D01*
X2724Y2D01*
X2723Y2D01*
X2722Y2D01*
X2721Y2D01*
X2720Y2D01*
X2719Y2D01*
X2718Y2D01*
X2717Y2D01*
X2716Y2D01*
X2715Y2D01*
X2714Y2D01*
X2713Y2D01*
X2712Y2D01*
X2711Y2D01*
X2710Y2D01*
X2709Y2D01*
X2708Y2D01*
X2707Y2D01*
X2706Y2D01*
X2705Y2D01*
X2704Y2D01*
X2703Y2D01*
X2702Y2D01*
X2701Y2D01*
X2700Y2D01*
X2699Y2D01*
X2698Y2D01*
X2697Y2D01*
X2696Y2D01*
X2695Y2D01*
X2694Y2D01*
X2693Y2D01*
X2692Y2D01*
X2691Y2D01*
X2690Y2D01*
X2689Y2D01*
X2688Y2D01*
X2687Y2D01*
X2686Y2D01*
X2685Y2D01*
X2684Y2D01*
X2683Y2D01*
X2682Y2D01*
X2681Y2D01*
X2680Y2D01*
X2679Y2D01*
X2678Y2D01*
X2677Y2D01*
X2676Y2D01*
X2675Y2D01*
X2674Y2D01*
X2673Y2D01*
X2672Y2D01*
X2671Y2D01*
X2670Y2D01*
X2669Y2D01*
X2668Y2D01*
X2667Y2D01*
X2666Y2D01*
X2665Y2D01*
X2664Y2D01*
X2663Y2D01*
X2662Y2D01*
X2661Y2D01*
X2660Y2D01*
X2659Y2D01*
X2658Y2D01*
X2657Y2D01*
X2656Y2D01*
X2655Y2D01*
X2654Y2D01*
X2653Y2D01*
X2652Y2D01*
X2651Y2D01*
X2650Y2D01*
X2649Y2D01*
X2648Y2D01*
X2647Y2D01*
X2646Y2D01*
X2645Y2D01*
X2644Y2D01*
X2643Y2D01*
X2642Y2D01*
X2641Y2D01*
X2640Y2D01*
X2639Y2D01*
X2638Y2D01*
X2637Y2D01*
X2636Y2D01*
X2635Y2D01*
X2634Y2D01*
X2633Y2D01*
X2632Y2D01*
X2631Y2D01*
X2630Y2D01*
X2629Y2D01*
X2628Y2D01*
X2627Y2D01*
X2626Y2D01*
X2625Y2D01*
X2624Y2D01*
X2623Y2D01*
X2622Y2D01*
X2621Y2D01*
X2620Y2D01*
X2619Y2D01*
X2618Y2D01*
X2617Y2D01*
X2616Y2D01*
X2615Y2D01*
X2614Y2D01*
X2613Y2D01*
X2612Y2D01*
X2611Y2D01*
X2610Y2D01*
X2609Y2D01*
X2608Y2D01*
X2607Y2D01*
X2606Y2D01*
X2605Y2D01*
X2604Y2D01*
X2603Y2D01*
X2602Y2D01*
X2601Y2D01*
X2600Y2D01*
X2599Y2D01*
X2598Y2D01*
X2597Y2D01*
X2596Y2D01*
X2595Y2D01*
X2594Y2D01*
X2593Y2D01*
X2592Y2D01*
X2591Y2D01*
X2590Y2D01*
X2589Y2D01*
X2588Y2D01*
X2587Y2D01*
X2586Y2D01*
X2585Y2D01*
X2584Y2D01*
X2583Y2D01*
X2582Y2D01*
X2581Y2D01*
X2580Y2D01*
X2579Y2D01*
X2578Y2D01*
X2577Y2D01*
X2576Y2D01*
X2575Y2D01*
X2574Y2D01*
X2573Y2D01*
X2572Y2D01*
X2571Y2D01*
X2570Y2D01*
X2569Y2D01*
X2568Y2D01*
X2567Y2D01*
X2566Y2D01*
X2565Y2D01*
X2564Y2D01*
X2563Y2D01*
X2562Y2D01*
X2561Y2D01*
X2560Y2D01*
X2559Y2D01*
X2558Y2D01*
X2557Y2D01*
X2556Y2D01*
X2555Y2D01*
X2554Y2D01*
X2553Y2D01*
X2552Y2D01*
X2551Y2D01*
X2550Y2D01*
X2549Y2D01*
X2548Y2D01*
X2547Y2D01*
X2546Y2D01*
X2545Y2D01*
X2544Y2D01*
X2543Y2D01*
X2542Y2D01*
X2541Y2D01*
X2540Y2D01*
X2539Y2D01*
X2538Y2D01*
X2537Y2D01*
X2536Y2D01*
X2535Y2D01*
X2534Y2D01*
X2533Y2D01*
X2532Y2D01*
X2531Y2D01*
X2530Y2D01*
X2529Y2D01*
X2528Y2D01*
X2527Y2D01*
X2526Y2D01*
X2525Y2D01*
X2524Y2D01*
X2523Y2D01*
X2522Y2D01*
X2521Y2D01*
X2520Y2D01*
X2519Y2D01*
X2518Y2D01*
X2517Y2D01*
X2516Y2D01*
X2515Y2D01*
X2514Y2D01*
X2513Y2D01*
X2512Y2D01*
X2511Y2D01*
X2510Y2D01*
X2509Y2D01*
X2508Y2D01*
X2507Y2D01*
X2506Y2D01*
X2505Y2D01*
X2504Y2D01*
X2503Y2D01*
X2502Y2D01*
X2501Y2D01*
X2500Y2D01*
X2499Y2D01*
X2498Y2D01*
X2497Y2D01*
X2496Y2D01*
X2495Y2D01*
X2494Y2D01*
X2493Y2D01*
X2492Y2D01*
X2491Y2D01*
X2490Y2D01*
X2489Y2D01*
X2488Y2D01*
X2487Y2D01*
X2486Y2D01*
X2485Y2D01*
X2484Y2D01*
X2483Y2D01*
X2482Y2D01*
X2481Y2D01*
X2480Y2D01*
X2479Y2D01*
X2478Y2D01*
X2477Y2D01*
X2476Y2D01*
X2475Y2D01*
X2474Y2D01*
X2473Y2D01*
X2472Y2D01*
X2471Y2D01*
X2470Y2D01*
X2469Y2D01*
X2468Y2D01*
X2467Y2D01*
X2466Y2D01*
X2465Y2D01*
X2464Y2D01*
X2463Y2D01*
X2462Y2D01*
X2461Y2D01*
X2460Y2D01*
X2459Y2D01*
X2458Y2D01*
X2457Y2D01*
X2456Y2D01*
X2455Y2D01*
X2454Y2D01*
X2453Y2D01*
X2452Y2D01*
X2451Y2D01*
X2450Y2D01*
X2449Y2D01*
X2448Y2D01*
X2447Y2D01*
X2446Y2D01*
X2445Y2D01*
X2444Y2D01*
X2443Y2D01*
X2442Y2D01*
X2441Y2D01*
X2440Y2D01*
X2439Y2D01*
X2438Y2D01*
X2437Y2D01*
X2436Y2D01*
X2435Y2D01*
X2434Y2D01*
X2433Y2D01*
X2432Y2D01*
X2431Y2D01*
X2430Y2D01*
X2429Y2D01*
X2428Y2D01*
X2427Y2D01*
X2426Y2D01*
X2425Y2D01*
X2424Y2D01*
X2423Y2D01*
X2422Y2D01*
X2421Y2D01*
X2420Y2D01*
X2419Y2D01*
X2418Y2D01*
X2417Y2D01*
X2416Y2D01*
X2415Y2D01*
X2414Y2D01*
X2413Y2D01*
X2412Y2D01*
X2411Y2D01*
X2410Y2D01*
X2409Y2D01*
X2408Y2D01*
X2407Y2D01*
X2406Y2D01*
X2405Y2D01*
X2404Y2D01*
X2403Y2D01*
X2402Y2D01*
X2401Y2D01*
X2400Y2D01*
X2399Y2D01*
X2398Y2D01*
X2397Y2D01*
X2396Y2D01*
X2395Y2D01*
X2394Y2D01*
X2393Y2D01*
X2392Y2D01*
X2391Y2D01*
X2390Y2D01*
X2389Y2D01*
X2388Y2D01*
X2387Y2D01*
X2386Y2D01*
X2385Y2D01*
X2384Y2D01*
X2383Y2D01*
X2382Y2D01*
X2381Y2D01*
X2380Y2D01*
X2379Y2D01*
X2378Y2D01*
X2377Y2D01*
X2376Y2D01*
X2375Y2D01*
X2374Y2D01*
X2373Y2D01*
X2372Y2D01*
X2371Y2D01*
X2370Y2D01*
X2369Y2D01*
X2368Y2D01*
X2367Y2D01*
X2366Y2D01*
X2365Y2D01*
X2364Y2D01*
X2363Y2D01*
X2362Y2D01*
X2361Y2D01*
X2360Y2D01*
X2359Y2D01*
X2358Y2D01*
X2357Y2D01*
X2356Y2D01*
X2355Y2D01*
X2354Y2D01*
X2353Y2D01*
X2352Y2D01*
X2351Y2D01*
X2350Y2D01*
X2349Y2D01*
X2348Y2D01*
X2347Y2D01*
X2346Y2D01*
X2345Y2D01*
X2344Y2D01*
X2343Y2D01*
X2342Y2D01*
X2341Y2D01*
X2340Y2D01*
X2339Y2D01*
X2338Y2D01*
X2337Y2D01*
X2336Y2D01*
X2335Y2D01*
X2334Y2D01*
X2333Y2D01*
X2332Y2D01*
X2331Y2D01*
X2330Y2D01*
X2329Y2D01*
X2328Y2D01*
X2327Y2D01*
X2326Y2D01*
X2325Y2D01*
X2324Y2D01*
X2323Y2D01*
X2322Y2D01*
X2321Y2D01*
X2320Y2D01*
X2319Y2D01*
X2318Y2D01*
X2317Y2D01*
X2316Y2D01*
X2315Y2D01*
X2314Y2D01*
X2313Y2D01*
X2312Y2D01*
X2311Y2D01*
X2310Y2D01*
X2309Y2D01*
X2308Y2D01*
X2307Y2D01*
X2306Y2D01*
X2305Y2D01*
X2304Y2D01*
X2303Y2D01*
X2302Y2D01*
X2301Y2D01*
X2300Y2D01*
X2299Y2D01*
X2298Y2D01*
X2297Y2D01*
X2296Y2D01*
X2295Y2D01*
X2294Y2D01*
X2293Y2D01*
X2292Y2D01*
X2291Y2D01*
X2290Y2D01*
X2289Y2D01*
X2288Y2D01*
X2287Y2D01*
X2286Y2D01*
X2285Y2D01*
X2284Y2D01*
X2283Y2D01*
X2282Y2D01*
X2281Y2D01*
X2280Y2D01*
X2279Y2D01*
X2278Y2D01*
X2277Y2D01*
X2276Y2D01*
X2275Y2D01*
X2274Y2D01*
X2273Y2D01*
X2272Y2D01*
X2271Y2D01*
X2270Y2D01*
X2269Y2D01*
X2268Y2D01*
X2267Y2D01*
X2266Y2D01*
X2265Y2D01*
X2264Y2D01*
X2263Y2D01*
X2262Y2D01*
X2261Y2D01*
X2260Y2D01*
X2259Y2D01*
X2258Y2D01*
X2257Y2D01*
X2256Y2D01*
X2255Y2D01*
X2254Y2D01*
X2253Y2D01*
X2252Y2D01*
X2251Y2D01*
X2250Y2D01*
X2249Y2D01*
X2248Y2D01*
X2247Y2D01*
X2246Y2D01*
X2245Y2D01*
X2244Y2D01*
X2243Y2D01*
X2242Y2D01*
X2241Y2D01*
X2240Y2D01*
X2239Y2D01*
X2238Y2D01*
X2237Y2D01*
X2236Y2D01*
X2235Y2D01*
X2234Y2D01*
X2233Y2D01*
X2232Y2D01*
X2231Y2D01*
X2230Y2D01*
X2229Y2D01*
X2228Y2D01*
X2227Y2D01*
X2226Y2D01*
X2225Y2D01*
X2224Y2D01*
X2223Y2D01*
X2222Y2D01*
X2221Y2D01*
X2220Y2D01*
X2219Y2D01*
X2218Y2D01*
X2217Y2D01*
X2216Y2D01*
X2215Y2D01*
X2214Y2D01*
X2213Y2D01*
X2212Y2D01*
X2211Y2D01*
X2210Y2D01*
X2209Y2D01*
X2208Y2D01*
X2207Y2D01*
X2206Y2D01*
X2205Y2D01*
X2204Y2D01*
X2203Y2D01*
X2202Y2D01*
X2201Y2D01*
X2200Y2D01*
X2199Y2D01*
X2198Y2D01*
X2197Y2D01*
X2196Y2D01*
X2195Y2D01*
X2194Y2D01*
X2193Y2D01*
X2192Y2D01*
X2191Y2D01*
X2190Y2D01*
X2189Y2D01*
X2188Y2D01*
X2187Y2D01*
X2186Y2D01*
X2185Y2D01*
X2184Y2D01*
X2183Y2D01*
X2182Y2D01*
X2181Y2D01*
X2180Y2D01*
X2179Y2D01*
X2178Y2D01*
X2177Y2D01*
X2176Y2D01*
X2175Y2D01*
X2174Y2D01*
X2173Y2D01*
X2172Y2D01*
X2171Y2D01*
X2170Y2D01*
X2169Y2D01*
X2168Y2D01*
X2167Y2D01*
X2166Y2D01*
X2165Y2D01*
X2164Y2D01*
X2163Y2D01*
X2162Y2D01*
X2161Y2D01*
X2160Y2D01*
X2159Y2D01*
X2158Y2D01*
X2157Y2D01*
X2156Y2D01*
X2155Y2D01*
X2154Y2D01*
X2153Y2D01*
X2152Y2D01*
X2151Y2D01*
X2150Y2D01*
X2149Y2D01*
X2148Y2D01*
X2147Y2D01*
X2146Y2D01*
X2145Y2D01*
X2144Y2D01*
X2143Y2D01*
X2142Y2D01*
X2141Y2D01*
X2140Y2D01*
X2139Y2D01*
X2138Y2D01*
X2137Y2D01*
X2136Y2D01*
X2135Y2D01*
X2134Y2D01*
X2133Y2D01*
X2132Y2D01*
X2131Y2D01*
X2130Y2D01*
X2129Y2D01*
X2128Y2D01*
X2127Y2D01*
X2126Y2D01*
X2125Y2D01*
X2124Y2D01*
X2123Y2D01*
X2122Y2D01*
X2121Y2D01*
X2120Y2D01*
X2119Y2D01*
X2118Y2D01*
X2117Y2D01*
X2116Y2D01*
X2115Y2D01*
X2114Y2D01*
X2113Y2D01*
X2112Y2D01*
X2111Y2D01*
X2110Y2D01*
X2109Y2D01*
X2108Y2D01*
X2107Y2D01*
X2106Y2D01*
X2105Y2D01*
X2104Y2D01*
X2103Y2D01*
X2102Y2D01*
X2101Y2D01*
X2100Y2D01*
X2099Y2D01*
X2098Y2D01*
X2097Y2D01*
X2096Y2D01*
X2095Y2D01*
X2094Y2D01*
X2093Y2D01*
X2092Y2D01*
X2091Y2D01*
X2090Y2D01*
X2089Y2D01*
X2088Y2D01*
X2087Y2D01*
X2086Y2D01*
X2085Y2D01*
X2084Y2D01*
X2083Y2D01*
X2082Y2D01*
X2081Y2D01*
X2080Y2D01*
X2079Y2D01*
X2078Y2D01*
X2077Y2D01*
X2076Y2D01*
X2075Y2D01*
X2074Y2D01*
X2073Y2D01*
X2072Y2D01*
X2071Y2D01*
X2070Y2D01*
X2069Y2D01*
X2068Y2D01*
X2067Y2D01*
X2066Y2D01*
X2065Y2D01*
X2064Y2D01*
X2063Y2D01*
X2062Y2D01*
X2061Y2D01*
X2060Y2D01*
X2059Y2D01*
X2058Y2D01*
X2057Y2D01*
X2056Y2D01*
X2055Y2D01*
X2054Y2D01*
X2053Y2D01*
X2052Y2D01*
X2051Y2D01*
X2050Y2D01*
X2049Y2D01*
X2048Y2D01*
X2047Y2D01*
X2046Y2D01*
X2045Y2D01*
X2044Y2D01*
X2043Y2D01*
X2042Y2D01*
X2041Y2D01*
X2040Y2D01*
X2039Y2D01*
X2038Y2D01*
X2037Y2D01*
X2036Y2D01*
X2035Y2D01*
X2034Y2D01*
X2033Y2D01*
X2032Y2D01*
X2031Y2D01*
X2030Y2D01*
X2029Y2D01*
X2028Y2D01*
X2027Y2D01*
X2026Y2D01*
X2025Y2D01*
X2024Y2D01*
X2023Y2D01*
X2022Y2D01*
X2021Y2D01*
X2020Y2D01*
X2019Y2D01*
X2018Y2D01*
X2017Y2D01*
X2016Y2D01*
X2015Y2D01*
X2014Y2D01*
X2013Y2D01*
X2012Y2D01*
X2011Y2D01*
X2010Y2D01*
X2009Y2D01*
X2008Y2D01*
X2007Y2D01*
X2006Y2D01*
X2005Y2D01*
X2004Y2D01*
X2003Y2D01*
X2002Y2D01*
X2001Y2D01*
X2000Y2D01*
X1999Y2D01*
X1998Y2D01*
X1997Y2D01*
X1996Y2D01*
X1995Y2D01*
X1994Y2D01*
X1993Y2D01*
X1992Y2D01*
X1991Y2D01*
X1990Y2D01*
X1989Y2D01*
X1988Y2D01*
X1987Y2D01*
X1986Y2D01*
X1985Y2D01*
X1984Y2D01*
X1983Y2D01*
X1982Y2D01*
X1981Y2D01*
X1980Y2D01*
X1979Y2D01*
X1978Y2D01*
X1977Y2D01*
X1976Y2D01*
X1975Y2D01*
X1974Y2D01*
X1973Y2D01*
X1972Y2D01*
X1971Y2D01*
X1970Y2D01*
X1969Y2D01*
X1968Y2D01*
X1967Y2D01*
X1966Y2D01*
X1965Y2D01*
X1964Y2D01*
X1963Y2D01*
X1962Y2D01*
X1961Y2D01*
X1960Y2D01*
X1959Y2D01*
X1958Y2D01*
X1957Y2D01*
X1956Y2D01*
X1955Y2D01*
X1954Y2D01*
X1953Y2D01*
X1952Y2D01*
X1951Y2D01*
X1950Y2D01*
X1949Y2D01*
X1948Y2D01*
X1947Y2D01*
X1946Y2D01*
X1945Y2D01*
X1944Y2D01*
X1943Y2D01*
X1942Y2D01*
X1941Y2D01*
X1940Y2D01*
X1939Y2D01*
X1938Y2D01*
X1937Y2D01*
X1936Y2D01*
X1935Y2D01*
X1934Y2D01*
X1933Y2D01*
X1932Y2D01*
X1931Y2D01*
X1930Y2D01*
X1929Y2D01*
X1928Y2D01*
X1927Y2D01*
X1926Y2D01*
X1925Y2D01*
X1924Y2D01*
X1923Y2D01*
X1922Y2D01*
X1921Y2D01*
X1920Y2D01*
X1919Y2D01*
X1918Y2D01*
X1917Y2D01*
X1916Y2D01*
X1915Y2D01*
X1914Y2D01*
X1913Y2D01*
X1912Y2D01*
X1911Y2D01*
X1910Y2D01*
X1909Y2D01*
X1908Y2D01*
X1907Y2D01*
X1906Y2D01*
X1905Y2D01*
X1904Y2D01*
X1903Y2D01*
X1902Y2D01*
X1901Y2D01*
X1900Y2D01*
X1899Y2D01*
X1898Y2D01*
X1897Y2D01*
X1896Y2D01*
X1895Y2D01*
X1894Y2D01*
X1893Y2D01*
X1892Y2D01*
X1891Y2D01*
X1890Y2D01*
X1889Y2D01*
X1888Y2D01*
X1887Y2D01*
X1886Y2D01*
X1885Y2D01*
X1884Y2D01*
X1883Y2D01*
X1882Y2D01*
X1881Y2D01*
X1880Y2D01*
X1879Y2D01*
X1878Y2D01*
X1877Y2D01*
X1876Y2D01*
X1875Y2D01*
X1874Y2D01*
X1873Y2D01*
X1872Y2D01*
X1871Y2D01*
X1870Y2D01*
X1869Y2D01*
X1868Y2D01*
X1867Y2D01*
X1866Y2D01*
X1865Y2D01*
X1864Y2D01*
X1863Y2D01*
X1862Y2D01*
X1861Y2D01*
X1860Y2D01*
X1859Y2D01*
X1858Y2D01*
X1857Y2D01*
X1856Y2D01*
X1855Y2D01*
X1854Y2D01*
X1853Y2D01*
X1852Y2D01*
X1851Y2D01*
X1850Y2D01*
X1849Y2D01*
X1848Y2D01*
X1847Y2D01*
X1846Y2D01*
X1845Y2D01*
X1844Y2D01*
X1843Y2D01*
X1842Y2D01*
X1841Y2D01*
X1840Y2D01*
X1839Y2D01*
X1838Y2D01*
X1837Y2D01*
X1836Y2D01*
X1835Y2D01*
X1834Y2D01*
X1833Y2D01*
X1832Y2D01*
X1831Y2D01*
X1830Y2D01*
X1829Y2D01*
X1828Y2D01*
X1827Y2D01*
X1826Y2D01*
X1825Y2D01*
X1824Y2D01*
X1823Y2D01*
X1822Y2D01*
X1821Y2D01*
X1820Y2D01*
X1819Y2D01*
X1818Y2D01*
X1817Y2D01*
X1816Y2D01*
X1815Y2D01*
X1814Y2D01*
X1813Y2D01*
X1812Y2D01*
X1811Y2D01*
X1810Y2D01*
X1809Y2D01*
X1808Y2D01*
X1807Y2D01*
X1806Y2D01*
X1805Y2D01*
X1804Y2D01*
X1803Y2D01*
X1802Y2D01*
X1801Y2D01*
X1800Y2D01*
X1799Y2D01*
X1798Y2D01*
X1797Y2D01*
X1796Y2D01*
X1795Y2D01*
X1794Y2D01*
X1793Y2D01*
X1792Y2D01*
X1791Y2D01*
X1790Y2D01*
X1789Y2D01*
X1788Y2D01*
X1787Y2D01*
X1786Y2D01*
X1785Y2D01*
X1784Y2D01*
X1783Y2D01*
X1782Y2D01*
X1781Y2D01*
X1780Y2D01*
X1779Y2D01*
X1778Y2D01*
X1777Y2D01*
X1776Y2D01*
X1775Y2D01*
X1774Y2D01*
X1773Y2D01*
X1772Y2D01*
X1771Y2D01*
X1770Y2D01*
X1769Y2D01*
X1768Y2D01*
X1767Y2D01*
X1766Y2D01*
X1765Y2D01*
X1764Y2D01*
X1763Y2D01*
X1762Y2D01*
X1761Y2D01*
X1760Y2D01*
X1759Y2D01*
X1758Y2D01*
X1757Y2D01*
X1756Y2D01*
X1755Y2D01*
X1754Y2D01*
X1753Y2D01*
X1752Y2D01*
X1751Y2D01*
X1750Y2D01*
X1749Y2D01*
X1748Y2D01*
X1747Y2D01*
X1746Y2D01*
X1745Y2D01*
X1744Y2D01*
X1743Y2D01*
X1742Y2D01*
X1741Y2D01*
X1740Y2D01*
X1739Y2D01*
X1738Y2D01*
X1737Y2D01*
X1736Y2D01*
X1735Y2D01*
X1734Y2D01*
X1733Y2D01*
X1732Y2D01*
X1731Y2D01*
X1730Y2D01*
X1729Y2D01*
X1728Y2D01*
X1727Y2D01*
X1726Y2D01*
X1725Y2D01*
X1724Y2D01*
X1723Y2D01*
X1722Y2D01*
X1721Y2D01*
X1720Y2D01*
X1719Y2D01*
X1718Y2D01*
X1717Y2D01*
X1716Y2D01*
X1715Y2D01*
X1714Y2D01*
X1713Y2D01*
X1712Y2D01*
X1711Y2D01*
X1710Y2D01*
X1709Y2D01*
X1708Y2D01*
X1707Y2D01*
X1706Y2D01*
X1705Y2D01*
X1704Y2D01*
X1703Y2D01*
X1702Y2D01*
X1701Y2D01*
X1700Y2D01*
X1699Y2D01*
X1698Y2D01*
X1697Y2D01*
X1696Y2D01*
X1695Y2D01*
X1694Y2D01*
X1693Y2D01*
X1692Y2D01*
X1691Y2D01*
X1690Y2D01*
X1689Y2D01*
X1688Y2D01*
X1687Y2D01*
X1686Y2D01*
X1685Y2D01*
X1684Y2D01*
X1683Y2D01*
X1682Y2D01*
X1681Y2D01*
X1680Y2D01*
X1679Y2D01*
X1678Y2D01*
X1677Y2D01*
X1676Y2D01*
X1675Y2D01*
X1674Y2D01*
X1673Y2D01*
X1672Y2D01*
X1671Y2D01*
X1670Y2D01*
X1669Y2D01*
X1668Y2D01*
X1667Y2D01*
X1666Y2D01*
X1665Y2D01*
X1664Y2D01*
X1663Y2D01*
X1662Y2D01*
X1661Y2D01*
X1660Y2D01*
X1659Y2D01*
X1658Y2D01*
X1657Y2D01*
X1656Y2D01*
X1655Y2D01*
X1654Y2D01*
X1653Y2D01*
X1652Y2D01*
X1651Y2D01*
X1650Y2D01*
X1649Y2D01*
X1648Y2D01*
X1647Y2D01*
X1646Y2D01*
X1645Y2D01*
X1644Y2D01*
X1643Y2D01*
X1642Y2D01*
X1641Y2D01*
X1640Y2D01*
X1639Y2D01*
X1638Y2D01*
X1637Y2D01*
X1636Y2D01*
X1635Y2D01*
X1634Y2D01*
X1633Y2D01*
X1632Y2D01*
X1631Y2D01*
X1630Y2D01*
X1629Y2D01*
X1628Y2D01*
X1627Y2D01*
X1626Y2D01*
X1625Y2D01*
X1624Y2D01*
X1623Y2D01*
X1622Y2D01*
X1621Y2D01*
X1620Y2D01*
X1619Y2D01*
X1618Y2D01*
X1617Y2D01*
X1616Y2D01*
X1615Y2D01*
X1614Y2D01*
X1613Y2D01*
X1612Y2D01*
X1611Y2D01*
X1610Y2D01*
X1609Y2D01*
X1608Y2D01*
X1607Y2D01*
X1606Y2D01*
X1605Y2D01*
X1604Y2D01*
X1603Y2D01*
X1602Y2D01*
X1601Y2D01*
X1600Y2D01*
X1599Y2D01*
X1598Y2D01*
X1597Y2D01*
X1596Y2D01*
X1595Y2D01*
X1594Y2D01*
X1593Y2D01*
X1592Y2D01*
X1591Y2D01*
X1590Y2D01*
X1589Y2D01*
X1588Y2D01*
X1587Y2D01*
X1586Y2D01*
X1585Y2D01*
X1584Y2D01*
X1583Y2D01*
X1582Y2D01*
X1581Y2D01*
X1580Y2D01*
X1579Y2D01*
X1578Y2D01*
X1577Y2D01*
X1576Y2D01*
X1575Y2D01*
X1574Y2D01*
X1573Y2D01*
X1572Y2D01*
X1571Y2D01*
X1570Y2D01*
X1569Y2D01*
X1568Y2D01*
X1567Y2D01*
X1566Y2D01*
X1565Y2D01*
X1564Y2D01*
X1563Y2D01*
X1562Y2D01*
X1561Y2D01*
X1560Y2D01*
X1559Y2D01*
X1558Y2D01*
X1557Y2D01*
X1556Y2D01*
X1555Y2D01*
X1554Y2D01*
X1553Y2D01*
X1552Y2D01*
X1551Y2D01*
X1550Y2D01*
X1549Y2D01*
X1548Y2D01*
X1547Y2D01*
X1546Y2D01*
X1545Y2D01*
X1544Y2D01*
X1543Y2D01*
X1542Y2D01*
X1541Y2D01*
X1540Y2D01*
X1539Y2D01*
X1538Y2D01*
X1537Y2D01*
X1536Y2D01*
X1535Y2D01*
X1534Y2D01*
X1533Y2D01*
X1532Y2D01*
X1531Y2D01*
X1530Y2D01*
X1529Y2D01*
X1528Y2D01*
X1527Y2D01*
X1526Y2D01*
X1525Y2D01*
X1524Y2D01*
X1523Y2D01*
X1522Y2D01*
X1521Y2D01*
X1520Y2D01*
X1519Y2D01*
X1518Y2D01*
X1517Y2D01*
X1516Y2D01*
X1515Y2D01*
X1514Y2D01*
X1513Y2D01*
X1512Y2D01*
X1511Y2D01*
X1510Y2D01*
X1509Y2D01*
X1508Y2D01*
X1507Y2D01*
X1506Y2D01*
X1505Y2D01*
X1504Y2D01*
X1503Y2D01*
X1502Y2D01*
X1501Y2D01*
X1500Y2D01*
X1499Y2D01*
X1498Y2D01*
X1497Y2D01*
X1496Y2D01*
X1495Y2D01*
X1494Y2D01*
X1493Y2D01*
X1492Y2D01*
X1491Y2D01*
X1490Y2D01*
X1489Y2D01*
X1488Y2D01*
X1487Y2D01*
X1486Y2D01*
X1485Y2D01*
X1484Y2D01*
X1483Y2D01*
X1482Y2D01*
X1481Y2D01*
X1480Y2D01*
X1479Y2D01*
X1478Y2D01*
X1477Y2D01*
X1476Y2D01*
X1475Y2D01*
X1474Y2D01*
X1473Y2D01*
X1472Y2D01*
X1471Y2D01*
X1470Y2D01*
X1469Y2D01*
X1468Y2D01*
X1467Y2D01*
X1466Y2D01*
X1465Y2D01*
X1464Y2D01*
X1463Y2D01*
X1462Y2D01*
X1461Y2D01*
X1460Y2D01*
X1459Y2D01*
X1458Y2D01*
X1457Y2D01*
X1456Y2D01*
X1455Y2D01*
X1454Y2D01*
X1453Y2D01*
X1452Y2D01*
X1451Y2D01*
X1450Y2D01*
X1449Y2D01*
X1448Y2D01*
X1447Y2D01*
X1446Y2D01*
X1445Y2D01*
X1444Y2D01*
X1443Y2D01*
X1442Y2D01*
X1441Y2D01*
X1440Y2D01*
X1439Y2D01*
X1438Y2D01*
X1437Y2D01*
X1436Y2D01*
X1435Y2D01*
X1434Y2D01*
X1433Y2D01*
X1432Y2D01*
X1431Y2D01*
X1430Y2D01*
X1429Y2D01*
X1428Y2D01*
X1427Y2D01*
X1426Y2D01*
X1425Y2D01*
X1424Y2D01*
X1423Y2D01*
X1422Y2D01*
X1421Y2D01*
X1420Y2D01*
X1419Y2D01*
X1418Y2D01*
X1417Y2D01*
X1416Y2D01*
X1415Y2D01*
X1414Y2D01*
X1413Y2D01*
X1412Y2D01*
X1411Y2D01*
X1410Y2D01*
X1409Y2D01*
X1408Y2D01*
X1407Y2D01*
X1406Y2D01*
X1405Y2D01*
X1404Y2D01*
X1403Y2D01*
X1402Y2D01*
X1401Y2D01*
X1400Y2D01*
X1399Y2D01*
X1398Y2D01*
X1397Y2D01*
X1396Y2D01*
X1395Y2D01*
X1394Y2D01*
X1393Y2D01*
X1392Y2D01*
X1391Y2D01*
X1390Y2D01*
X1389Y2D01*
X1388Y2D01*
X1387Y2D01*
X1386Y2D01*
X1385Y2D01*
X1384Y2D01*
X1383Y2D01*
X1382Y2D01*
X1381Y2D01*
X1380Y2D01*
X1379Y2D01*
X1378Y2D01*
X1377Y2D01*
X1376Y2D01*
X1375Y2D01*
X1374Y2D01*
X1373Y2D01*
X1372Y2D01*
X1371Y2D01*
X1370Y2D01*
X1369Y2D01*
X1368Y2D01*
X1367Y2D01*
X1366Y2D01*
X1365Y2D01*
X1364Y2D01*
X1363Y2D01*
X1362Y2D01*
X1361Y2D01*
X1360Y2D01*
X1359Y2D01*
X1358Y2D01*
X1357Y2D01*
X1356Y2D01*
X1355Y2D01*
X1354Y2D01*
X1353Y2D01*
X1352Y2D01*
X1351Y2D01*
X1350Y2D01*
X1349Y2D01*
X1348Y2D01*
X1347Y2D01*
X1346Y2D01*
X1345Y2D01*
X1344Y2D01*
X1343Y2D01*
X1342Y2D01*
X1341Y2D01*
X1340Y2D01*
X1339Y2D01*
X1338Y2D01*
X1337Y2D01*
X1336Y2D01*
X1335Y2D01*
X1334Y2D01*
X1333Y2D01*
X1332Y2D01*
X1331Y2D01*
X1330Y2D01*
X1329Y2D01*
X1328Y2D01*
X1327Y2D01*
X1326Y2D01*
X1325Y2D01*
X1324Y2D01*
X1323Y2D01*
X1322Y2D01*
X1321Y2D01*
X1320Y2D01*
X1319Y2D01*
X1318Y2D01*
X1317Y2D01*
X1316Y2D01*
X1315Y2D01*
X1314Y2D01*
X1313Y2D01*
X1312Y2D01*
X1311Y2D01*
X1310Y2D01*
X1309Y2D01*
X1308Y2D01*
X1307Y2D01*
X1306Y2D01*
X1305Y2D01*
X1304Y2D01*
X1303Y2D01*
X1302Y2D01*
X1301Y2D01*
X1300Y2D01*
X1299Y2D01*
X1298Y2D01*
X1297Y2D01*
X1296Y2D01*
X1295Y2D01*
X1294Y2D01*
X1293Y2D01*
X1292Y2D01*
X1291Y2D01*
X1290Y2D01*
X1289Y2D01*
X1288Y2D01*
X1287Y2D01*
X1286Y2D01*
X1285Y2D01*
X1284Y2D01*
X1283Y2D01*
X1282Y2D01*
X1281Y2D01*
X1280Y2D01*
X1279Y2D01*
X1278Y2D01*
X1277Y2D01*
X1276Y2D01*
X1275Y2D01*
X1274Y2D01*
X1273Y2D01*
X1272Y2D01*
X1271Y2D01*
X1270Y2D01*
X1269Y2D01*
X1268Y2D01*
X1267Y2D01*
X1266Y2D01*
X1265Y2D01*
X1264Y2D01*
X1263Y2D01*
X1262Y2D01*
X1261Y2D01*
X1260Y2D01*
X1259Y2D01*
X1258Y2D01*
X1257Y2D01*
X1256Y2D01*
X1255Y2D01*
X1254Y2D01*
X1253Y2D01*
X1252Y2D01*
X1251Y2D01*
X1250Y2D01*
X1249Y2D01*
X1248Y2D01*
X1247Y2D01*
X1246Y2D01*
X1245Y2D01*
X1244Y2D01*
X1243Y2D01*
X1242Y2D01*
X1241Y2D01*
X1240Y2D01*
X1239Y2D01*
X1238Y2D01*
X1237Y2D01*
X1236Y2D01*
X1235Y2D01*
X1234Y2D01*
X1233Y2D01*
X1232Y2D01*
X1231Y2D01*
X1230Y2D01*
X1229Y2D01*
X1228Y2D01*
X1227Y2D01*
X1226Y2D01*
X1225Y2D01*
X1224Y2D01*
X1223Y2D01*
X1222Y2D01*
X1221Y2D01*
X1220Y2D01*
X1219Y2D01*
X1218Y2D01*
X1217Y2D01*
X1216Y2D01*
X1215Y2D01*
X1214Y2D01*
X1213Y2D01*
X1212Y2D01*
X1211Y2D01*
X1210Y2D01*
X1209Y2D01*
X1208Y2D01*
X1207Y2D01*
X1206Y2D01*
X1205Y2D01*
X1204Y2D01*
X1203Y2D01*
X1202Y2D01*
X1201Y2D01*
X1200Y2D01*
X1199Y2D01*
X1198Y2D01*
X1197Y2D01*
X1196Y2D01*
X1195Y2D01*
X1194Y2D01*
X1193Y2D01*
X1192Y2D01*
X1191Y2D01*
X1190Y2D01*
X1189Y2D01*
X1188Y2D01*
X1187Y2D01*
X1186Y2D01*
X1185Y2D01*
X1184Y2D01*
X1183Y2D01*
X1182Y2D01*
X1181Y2D01*
X1180Y2D01*
X1179Y2D01*
X1178Y2D01*
X1177Y2D01*
X1176Y2D01*
X1175Y2D01*
X1174Y2D01*
X1173Y2D01*
X1172Y2D01*
X1171Y2D01*
X1170Y2D01*
X1169Y2D01*
X1168Y2D01*
X1167Y2D01*
X1166Y2D01*
X1165Y2D01*
X1164Y2D01*
X1163Y2D01*
X1162Y2D01*
X1161Y2D01*
X1160Y2D01*
X1159Y2D01*
X1158Y2D01*
X1157Y2D01*
X1156Y2D01*
X1155Y2D01*
X1154Y2D01*
X1153Y2D01*
X1152Y2D01*
X1151Y2D01*
X1150Y2D01*
X1149Y2D01*
X1148Y2D01*
X1147Y2D01*
X1146Y2D01*
X1145Y2D01*
X1144Y2D01*
X1143Y2D01*
X1142Y2D01*
X1141Y2D01*
X1140Y2D01*
X1139Y2D01*
X1138Y2D01*
X1137Y2D01*
X1136Y2D01*
X1135Y2D01*
X1134Y2D01*
X1133Y2D01*
X1132Y2D01*
X1131Y2D01*
X1130Y2D01*
X1129Y2D01*
X1128Y2D01*
X1127Y2D01*
X1126Y2D01*
X1125Y2D01*
X1124Y2D01*
X1123Y2D01*
X1122Y2D01*
X1121Y2D01*
X1120Y2D01*
X1119Y2D01*
X1118Y2D01*
X1117Y2D01*
X1116Y2D01*
X1115Y2D01*
X1114Y2D01*
X1113Y2D01*
X1112Y2D01*
X1111Y2D01*
X1110Y2D01*
X1109Y2D01*
X1108Y2D01*
X1107Y2D01*
X1106Y2D01*
X1105Y2D01*
X1104Y2D01*
X1103Y2D01*
X1102Y2D01*
X1101Y2D01*
X1100Y2D01*
X1099Y2D01*
X1098Y2D01*
X1097Y2D01*
X1096Y2D01*
X1095Y2D01*
X1094Y2D01*
X1093Y2D01*
X1092Y2D01*
X1091Y2D01*
X1090Y2D01*
X1089Y2D01*
X1088Y2D01*
X1087Y2D01*
X1086Y2D01*
X1085Y2D01*
X1084Y2D01*
X1083Y2D01*
X1082Y2D01*
X1081Y2D01*
X1080Y2D01*
X1079Y2D01*
X1078Y2D01*
X1077Y2D01*
X1076Y2D01*
X1075Y2D01*
X1074Y2D01*
X1073Y2D01*
X1072Y2D01*
X1071Y2D01*
X1070Y2D01*
X1069Y2D01*
X1068Y2D01*
X1067Y2D01*
X1066Y2D01*
X1065Y2D01*
X1064Y2D01*
X1063Y2D01*
X1062Y2D01*
X1061Y2D01*
X1060Y2D01*
X1059Y2D01*
X1058Y2D01*
X1057Y2D01*
X1056Y2D01*
X1055Y2D01*
X1054Y2D01*
X1053Y2D01*
X1052Y2D01*
X1051Y2D01*
X1050Y2D01*
X1049Y2D01*
X1048Y2D01*
X1047Y2D01*
X1046Y2D01*
X1045Y2D01*
X1044Y2D01*
X1043Y2D01*
X1042Y2D01*
X1041Y2D01*
X1040Y2D01*
X1039Y2D01*
X1038Y2D01*
X1037Y2D01*
X1036Y2D01*
X1035Y2D01*
X1034Y2D01*
X1033Y2D01*
X1032Y2D01*
X1031Y2D01*
X1030Y2D01*
X1029Y2D01*
X1028Y2D01*
X1027Y2D01*
X1026Y2D01*
X1025Y2D01*
X1024Y2D01*
X1023Y2D01*
X1022Y2D01*
X1021Y2D01*
X1020Y2D01*
X1019Y2D01*
X1018Y2D01*
X1017Y2D01*
X1016Y2D01*
X1015Y2D01*
X1014Y2D01*
X1013Y2D01*
X1012Y2D01*
X1011Y2D01*
X1010Y2D01*
X1009Y2D01*
X1008Y2D01*
X1007Y2D01*
X1006Y2D01*
X1005Y2D01*
X1004Y2D01*
X1003Y2D01*
X1002Y2D01*
X1001Y2D01*
X1000Y2D01*
X999Y2D01*
X998Y2D01*
X997Y2D01*
X996Y2D01*
X995Y2D01*
X994Y2D01*
X993Y2D01*
X992Y2D01*
X991Y2D01*
X990Y2D01*
X989Y2D01*
X988Y2D01*
X987Y2D01*
X986Y2D01*
X985Y2D01*
X984Y2D01*
X983Y2D01*
X982Y2D01*
X981Y2D01*
X980Y2D01*
X979Y2D01*
X978Y2D01*
X977Y2D01*
X976Y2D01*
X975Y2D01*
X974Y2D01*
X973Y2D01*
X972Y2D01*
X971Y2D01*
X970Y2D01*
X969Y2D01*
X968Y2D01*
X967Y2D01*
X966Y2D01*
X965Y2D01*
X964Y2D01*
X963Y2D01*
X962Y2D01*
X961Y2D01*
X960Y2D01*
X959Y2D01*
X958Y2D01*
X957Y2D01*
X956Y2D01*
X955Y2D01*
X954Y2D01*
X953Y2D01*
X952Y2D01*
X951Y2D01*
X950Y2D01*
X949Y2D01*
X948Y2D01*
X947Y2D01*
X946Y2D01*
X945Y2D01*
X944Y2D01*
X943Y2D01*
X942Y2D01*
X941Y2D01*
X940Y2D01*
X939Y2D01*
X938Y2D01*
X937Y2D01*
X936Y2D01*
X935Y2D01*
X934Y2D01*
X933Y2D01*
X932Y2D01*
X931Y2D01*
X930Y2D01*
X929Y2D01*
X928Y2D01*
X927Y2D01*
X926Y2D01*
X925Y2D01*
X924Y2D01*
X923Y2D01*
X922Y2D01*
X921Y2D01*
X920Y2D01*
X919Y2D01*
X918Y2D01*
X917Y2D01*
X916Y2D01*
X915Y2D01*
X914Y2D01*
X913Y2D01*
X912Y2D01*
X911Y2D01*
X910Y2D01*
X909Y2D01*
X908Y2D01*
X907Y2D01*
X906Y2D01*
X905Y2D01*
X904Y2D01*
X903Y2D01*
X902Y2D01*
X901Y2D01*
X900Y2D01*
X899Y2D01*
X898Y2D01*
X897Y2D01*
X896Y2D01*
X895Y2D01*
X894Y2D01*
X893Y2D01*
X892Y2D01*
X891Y2D01*
X890Y2D01*
X889Y2D01*
X888Y2D01*
X887Y2D01*
X886Y2D01*
X885Y2D01*
X884Y2D01*
X883Y2D01*
X882Y2D01*
X881Y2D01*
X880Y2D01*
X879Y2D01*
X878Y2D01*
X877Y2D01*
X876Y2D01*
X875Y2D01*
X874Y2D01*
X873Y2D01*
X872Y2D01*
X871Y2D01*
X870Y2D01*
X869Y2D01*
X868Y2D01*
X867Y2D01*
X866Y2D01*
X865Y2D01*
X864Y2D01*
X863Y2D01*
X862Y2D01*
X861Y2D01*
X860Y2D01*
X859Y2D01*
X858Y2D01*
X857Y2D01*
X856Y2D01*
X855Y2D01*
X854Y2D01*
X853Y2D01*
X852Y2D01*
X851Y2D01*
X850Y2D01*
X849Y2D01*
X848Y2D01*
X847Y2D01*
X846Y2D01*
X845Y2D01*
X844Y2D01*
X843Y2D01*
X842Y2D01*
X841Y2D01*
X840Y2D01*
X839Y2D01*
X838Y2D01*
X837Y2D01*
X836Y2D01*
X835Y2D01*
X834Y2D01*
X833Y2D01*
X832Y2D01*
X831Y2D01*
X830Y2D01*
X829Y2D01*
X828Y2D01*
X827Y2D01*
X826Y2D01*
X825Y2D01*
X824Y2D01*
X823Y2D01*
X822Y2D01*
X821Y2D01*
X820Y2D01*
X819Y2D01*
X818Y2D01*
X817Y2D01*
X816Y2D01*
X815Y2D01*
X814Y2D01*
X813Y2D01*
X812Y2D01*
X811Y2D01*
X810Y2D01*
X809Y2D01*
X808Y2D01*
X807Y2D01*
X806Y2D01*
X805Y2D01*
X804Y2D01*
X803Y2D01*
X802Y2D01*
X801Y2D01*
X800Y2D01*
X799Y2D01*
X798Y2D01*
X797Y2D01*
X796Y2D01*
X795Y2D01*
X794Y2D01*
X793Y2D01*
X792Y2D01*
X791Y2D01*
X790Y2D01*
X789Y2D01*
X788Y2D01*
X787Y2D01*
X786Y2D01*
X785Y2D01*
X784Y2D01*
X783Y2D01*
X782Y2D01*
X781Y2D01*
X780Y2D01*
X779Y2D01*
X778Y2D01*
X777Y2D01*
X776Y2D01*
X775Y2D01*
X774Y2D01*
X773Y2D01*
X772Y2D01*
X771Y2D01*
X770Y2D01*
X769Y2D01*
X768Y2D01*
X767Y2D01*
X766Y2D01*
X765Y2D01*
X764Y2D01*
X763Y2D01*
X762Y2D01*
X761Y2D01*
X760Y2D01*
X759Y2D01*
X758Y2D01*
X757Y2D01*
X756Y2D01*
X755Y2D01*
X754Y2D01*
X753Y2D01*
X752Y2D01*
X751Y2D01*
X750Y2D01*
X749Y2D01*
X748Y2D01*
X747Y2D01*
X746Y2D01*
X745Y2D01*
X744Y2D01*
X743Y2D01*
X742Y2D01*
X741Y2D01*
X740Y2D01*
X739Y2D01*
X738Y2D01*
X737Y2D01*
X736Y2D01*
X735Y2D01*
X734Y2D01*
X733Y2D01*
X732Y2D01*
X731Y2D01*
X730Y2D01*
X729Y2D01*
X728Y2D01*
X727Y2D01*
X726Y2D01*
X725Y2D01*
X724Y2D01*
X723Y2D01*
X722Y2D01*
X721Y2D01*
X720Y2D01*
X719Y2D01*
X718Y2D01*
X717Y2D01*
X716Y2D01*
X715Y2D01*
X714Y2D01*
X713Y2D01*
X712Y2D01*
X711Y2D01*
X710Y2D01*
X709Y2D01*
X708Y2D01*
X707Y2D01*
X706Y2D01*
X705Y2D01*
X704Y2D01*
X703Y2D01*
X702Y2D01*
X701Y2D01*
X700Y2D01*
X699Y2D01*
X698Y2D01*
X697Y2D01*
X696Y2D01*
X695Y2D01*
X694Y2D01*
X693Y2D01*
X692Y2D01*
X691Y2D01*
X690Y2D01*
X689Y2D01*
X688Y2D01*
X687Y2D01*
X686Y2D01*
X685Y2D01*
X684Y2D01*
X683Y2D01*
X682Y2D01*
X681Y2D01*
X680Y2D01*
X679Y2D01*
X678Y2D01*
X677Y2D01*
X676Y2D01*
X675Y2D01*
X674Y2D01*
X673Y2D01*
X672Y2D01*
X671Y2D01*
X670Y2D01*
X669Y2D01*
X668Y2D01*
X667Y2D01*
X666Y2D01*
X665Y2D01*
X664Y2D01*
X663Y2D01*
X662Y2D01*
X661Y2D01*
X660Y2D01*
X659Y2D01*
X658Y2D01*
X657Y2D01*
X656Y2D01*
X655Y2D01*
X654Y2D01*
X653Y2D01*
X652Y2D01*
X651Y2D01*
X650Y2D01*
X649Y2D01*
X648Y2D01*
X647Y2D01*
X646Y2D01*
X645Y2D01*
X644Y2D01*
X643Y2D01*
X642Y2D01*
X641Y2D01*
X640Y2D01*
X639Y2D01*
X638Y2D01*
X637Y2D01*
X636Y2D01*
X635Y2D01*
X634Y2D01*
X633Y2D01*
X632Y2D01*
X631Y2D01*
X630Y2D01*
X629Y2D01*
X628Y2D01*
X627Y2D01*
X626Y2D01*
X625Y2D01*
X624Y2D01*
X623Y2D01*
X622Y2D01*
X621Y2D01*
X620Y2D01*
X619Y2D01*
X618Y2D01*
X617Y2D01*
X616Y2D01*
X615Y2D01*
X614Y2D01*
X613Y2D01*
X612Y2D01*
X611Y2D01*
X610Y2D01*
X609Y2D01*
X608Y2D01*
X607Y2D01*
X606Y2D01*
X605Y2D01*
X604Y2D01*
X603Y2D01*
X602Y2D01*
X601Y2D01*
X600Y2D01*
X599Y2D01*
X598Y2D01*
X597Y2D01*
X596Y2D01*
X595Y2D01*
X594Y2D01*
X593Y2D01*
X592Y2D01*
X591Y2D01*
X590Y2D01*
X589Y2D01*
X588Y2D01*
X587Y2D01*
X586Y2D01*
X585Y2D01*
X584Y2D01*
X583Y2D01*
X582Y2D01*
X581Y2D01*
X580Y2D01*
X579Y2D01*
X578Y2D01*
X577Y2D01*
X576Y2D01*
X575Y2D01*
X574Y2D01*
X573Y2D01*
X572Y2D01*
X571Y2D01*
X570Y2D01*
X569Y2D01*
X568Y2D01*
X567Y2D01*
X566Y2D01*
X565Y2D01*
X564Y2D01*
X563Y2D01*
X562Y2D01*
X561Y2D01*
X560Y2D01*
X559Y2D01*
X558Y2D01*
X557Y2D01*
X556Y2D01*
X555Y2D01*
X554Y2D01*
X553Y2D01*
X552Y2D01*
X551Y2D01*
X550Y2D01*
X549Y2D01*
X548Y2D01*
X547Y2D01*
X546Y2D01*
X545Y2D01*
X544Y2D01*
X543Y2D01*
X542Y2D01*
X541Y2D01*
X540Y2D01*
X539Y2D01*
X538Y2D01*
X537Y2D01*
X536Y2D01*
X535Y2D01*
X534Y2D01*
X533Y2D01*
X532Y2D01*
X531Y2D01*
X530Y2D01*
X529Y2D01*
X528Y2D01*
X527Y2D01*
X526Y2D01*
X525Y2D01*
X524Y2D01*
X523Y2D01*
X522Y2D01*
X521Y2D01*
X520Y2D01*
X519Y2D01*
X518Y2D01*
X517Y2D01*
X516Y2D01*
X515Y2D01*
X514Y2D01*
X513Y2D01*
X512Y2D01*
X511Y2D01*
X510Y2D01*
X509Y2D01*
X508Y2D01*
X507Y2D01*
X506Y2D01*
X505Y2D01*
X504Y2D01*
X503Y2D01*
X502Y2D01*
X501Y2D01*
X500Y2D01*
X499Y2D01*
X498Y2D01*
X497Y2D01*
X496Y2D01*
X495Y2D01*
X494Y2D01*
X493Y2D01*
X492Y2D01*
X491Y2D01*
X490Y2D01*
X489Y2D01*
X488Y2D01*
X487Y2D01*
X486Y2D01*
X485Y2D01*
X484Y2D01*
X483Y2D01*
X482Y2D01*
X481Y2D01*
X480Y2D01*
X479Y2D01*
X478Y2D01*
X477Y2D01*
X476Y2D01*
X475Y2D01*
X474Y2D01*
X473Y2D01*
X472Y2D01*
X471Y2D01*
X470Y2D01*
X469Y2D01*
X468Y2D01*
X467Y2D01*
X466Y2D01*
X465Y2D01*
X464Y2D01*
X463Y2D01*
X462Y2D01*
X461Y2D01*
X460Y2D01*
X459Y2D01*
X458Y2D01*
X457Y2D01*
X456Y2D01*
X455Y2D01*
X454Y2D01*
X453Y2D01*
X452Y2D01*
X451Y2D01*
X450Y2D01*
X449Y2D01*
X448Y2D01*
X447Y2D01*
X446Y2D01*
X445Y2D01*
X444Y2D01*
X443Y2D01*
X442Y2D01*
X441Y2D01*
X440Y2D01*
X439Y2D01*
X438Y2D01*
X437Y2D01*
X436Y2D01*
X435Y2D01*
X434Y2D01*
X433Y2D01*
X432Y2D01*
X431Y2D01*
X430Y2D01*
X429Y2D01*
X428Y2D01*
X427Y2D01*
X426Y2D01*
X425Y2D01*
X424Y2D01*
X423Y2D01*
X422Y2D01*
X421Y2D01*
X420Y2D01*
X419Y2D01*
X418Y2D01*
X417Y2D01*
X416Y2D01*
X415Y2D01*
X414Y2D01*
X413Y2D01*
X412Y2D01*
X411Y2D01*
X410Y2D01*
X409Y2D01*
X408Y2D01*
X407Y2D01*
X406Y2D01*
X405Y2D01*
X404Y2D01*
X403Y2D01*
X402Y2D01*
X401Y2D01*
X400Y2D01*
X399Y2D01*
X398Y2D01*
X397Y2D01*
X396Y2D01*
X395Y2D01*
X394Y2D01*
X393Y2D01*
X392Y2D01*
X391Y2D01*
X390Y2D01*
X389Y2D01*
X388Y2D01*
X387Y2D01*
X386Y2D01*
X385Y2D01*
X384Y2D01*
X383Y2D01*
X382Y2D01*
X381Y2D01*
X380Y2D01*
X379Y2D01*
X378Y2D01*
X377Y2D01*
X376Y3D01*
X375Y3D01*
X374Y3D01*
X373Y3D01*
X372Y3D01*
X371Y3D01*
X370Y3D01*
X369Y3D01*
X368Y3D01*
X367Y3D01*
X366Y3D01*
X365Y3D01*
X364Y3D01*
X363Y3D01*
X362Y3D01*
X361Y4D01*
X360Y4D01*
X359Y4D01*
X358Y4D01*
X357Y4D01*
X356Y4D01*
X355Y4D01*
X354Y4D01*
X353Y4D01*
X352Y4D01*
X351Y5D01*
X350Y5D01*
X349Y5D01*
X348Y5D01*
X347Y5D01*
X346Y5D01*
X345Y5D01*
X344Y5D01*
X343Y6D01*
X342Y6D01*
X341Y6D01*
X340Y6D01*
X339Y6D01*
X338Y6D01*
X337Y6D01*
X336Y6D01*
X335Y7D01*
X334Y7D01*
X333Y7D01*
X332Y7D01*
X331Y7D01*
X330Y7D01*
X329Y8D01*
X328Y8D01*
X327Y8D01*
X326Y8D01*
X325Y8D01*
X324Y8D01*
X323Y9D01*
X322Y9D01*
X321Y9D01*
X320Y9D01*
X319Y9D01*
X318Y10D01*
X317Y10D01*
X316Y10D01*
X315Y10D01*
X314Y10D01*
X313Y11D01*
X312Y11D01*
X311Y11D01*
X310Y11D01*
X309Y11D01*
X308Y12D01*
X307Y12D01*
X306Y12D01*
X305Y12D01*
X304Y13D01*
X303Y13D01*
X302Y13D01*
X301Y13D01*
X300Y14D01*
X299Y14D01*
X298Y14D01*
X297Y14D01*
X296Y15D01*
X295Y15D01*
X294Y15D01*
X293Y15D01*
X292Y16D01*
X291Y16D01*
X290Y16D01*
X289Y16D01*
X288Y17D01*
X287Y17D01*
X286Y17D01*
X285Y18D01*
X284Y18D01*
X283Y18D01*
X282Y18D01*
X281Y19D01*
X280Y19D01*
X279Y19D01*
X278Y20D01*
X277Y20D01*
X276Y20D01*
X275Y21D01*
X274Y21D01*
X273Y21D01*
X272Y22D01*
X271Y22D01*
X270Y22D01*
X269Y23D01*
X268Y23D01*
X267Y23D01*
X266Y24D01*
X265Y24D01*
X264Y24D01*
X263Y25D01*
X262Y25D01*
X261Y25D01*
X260Y26D01*
X259Y26D01*
X258Y26D01*
X257Y27D01*
X256Y27D01*
X255Y28D01*
X254Y28D01*
X253Y28D01*
X252Y29D01*
X251Y29D01*
X250Y29D01*
X249Y30D01*
X248Y30D01*
X247Y31D01*
X246Y31D01*
X245Y31D01*
X244Y32D01*
X243Y32D01*
X242Y33D01*
X241Y33D01*
X240Y33D01*
X239Y34D01*
X238Y34D01*
X237Y35D01*
X236Y35D01*
X235Y36D01*
X234Y36D01*
X233Y37D01*
X232Y37D01*
X231Y37D01*
X230Y38D01*
X229Y38D01*
X228Y39D01*
X227Y39D01*
X226Y40D01*
X225Y40D01*
X224Y41D01*
X223Y41D01*
X222Y42D01*
X221Y42D01*
X220Y43D01*
X219Y43D01*
X218Y44D01*
X217Y44D01*
X216Y45D01*
X215Y45D01*
X214Y46D01*
X213Y46D01*
X212Y47D01*
X211Y47D01*
X210Y48D01*
X209Y48D01*
X208Y49D01*
X207Y49D01*
X206Y50D01*
X205Y50D01*
X204Y51D01*
X203Y51D01*
X202Y52D01*
X201Y52D01*
X200Y53D01*
X199Y54D01*
X198Y54D01*
X197Y55D01*
X196Y55D01*
X195Y56D01*
X194Y56D01*
X193Y57D01*
X192Y58D01*
X191Y58D01*
X190Y59D01*
X189Y59D01*
X188Y60D01*
X187Y61D01*
X186Y61D01*
X185Y62D01*
X184Y62D01*
X183Y63D01*
X182Y64D01*
X181Y64D01*
X180Y65D01*
X179Y66D01*
X178Y66D01*
X177Y67D01*
X176Y67D01*
X175Y68D01*
X174Y69D01*
X173Y69D01*
X172Y70D01*
X171Y71D01*
X170Y72D01*
X169Y72D01*
X168Y73D01*
X167Y74D01*
X166Y74D01*
X165Y75D01*
X164Y76D01*
X163Y76D01*
X162Y77D01*
X161Y78D01*
X160Y79D01*
X159Y79D01*
X158Y80D01*
X157Y81D01*
X156Y82D01*
X155Y82D01*
X154Y83D01*
X153Y84D01*
X152Y85D01*
X151Y85D01*
X150Y86D01*
X149Y87D01*
X148Y88D01*
X147Y88D01*
X146Y89D01*
X145Y90D01*
X144Y91D01*
X143Y92D01*
X142Y92D01*
X141Y93D01*
X140Y94D01*
X139Y95D01*
X138Y96D01*
X137Y97D01*
X136Y98D01*
X135Y98D01*
X134Y99D01*
X133Y100D01*
X132Y101D01*
X131Y102D01*
X130Y103D01*
X129Y103D01*
X128Y104D01*
X127Y105D01*
X126Y106D01*
X125Y107D01*
X124Y108D01*
X123Y109D01*
X122Y110D01*
X121Y111D01*
X120Y112D01*
X119Y113D01*
X118Y114D01*
X117Y115D01*
X116Y116D01*
X115Y117D01*
X114Y118D01*
X113Y119D01*
X112Y120D01*
X111Y121D01*
X110Y122D01*
X109Y123D01*
X108Y124D01*
X107Y125D01*
X106Y126D01*
X105Y127D01*
X104Y128D01*
X103Y129D01*
X102Y130D01*
X101Y131D01*
X100Y132D01*
X99Y133D01*
X98Y134D01*
X98Y135D01*
X97Y136D01*
X96Y137D01*
X95Y138D01*
X94Y139D01*
X93Y140D01*
X92Y141D01*
X91Y142D01*
X91Y143D01*
X90Y144D01*
X89Y145D01*
X88Y146D01*
X87Y147D01*
X87Y148D01*
X86Y149D01*
X85Y150D01*
X84Y151D01*
X83Y152D01*
X82Y153D01*
X82Y154D01*
X81Y155D01*
X80Y156D01*
X79Y157D01*
X78Y158D01*
X78Y159D01*
X77Y160D01*
X76Y161D01*
X76Y162D01*
X75Y163D01*
X74Y164D01*
X73Y165D01*
X73Y166D01*
X72Y167D01*
X71Y168D01*
X70Y169D01*
X70Y170D01*
X69Y171D01*
X68Y172D01*
X68Y173D01*
X67Y174D01*
X66Y175D01*
X66Y176D01*
X65Y177D01*
X64Y178D01*
X64Y179D01*
X63Y180D01*
X62Y181D01*
X62Y182D01*
X61Y183D01*
X60Y184D01*
X60Y185D01*
X59Y186D01*
X58Y187D01*
X58Y188D01*
X57Y189D01*
X57Y190D01*
X56Y191D01*
X55Y192D01*
X55Y193D01*
X54Y194D01*
X54Y195D01*
X53Y196D01*
X52Y197D01*
X52Y198D01*
X51Y199D01*
X51Y200D01*
X50Y201D01*
X49Y202D01*
X49Y203D01*
X48Y204D01*
X48Y205D01*
X47Y206D01*
X47Y207D01*
X46Y208D01*
X46Y209D01*
X45Y210D01*
X45Y211D01*
X44Y212D01*
X44Y213D01*
X43Y214D01*
X42Y215D01*
X42Y216D01*
X41Y217D01*
X41Y218D01*
X40Y219D01*
X40Y220D01*
X39Y221D01*
X39Y222D01*
X38Y223D01*
X38Y224D01*
X37Y225D01*
X37Y226D01*
X36Y227D01*
X36Y229D01*
X35Y230D01*
X35Y231D01*
X34Y232D01*
X34Y233D01*
X33Y234D01*
X33Y235D01*
X32Y236D01*
X32Y237D01*
X31Y238D01*
X31Y240D01*
X30Y241D01*
X30Y242D01*
X29Y243D01*
X29Y245D01*
X28Y246D01*
X28Y247D01*
X27Y248D01*
X27Y250D01*
X26Y251D01*
X26Y252D01*
X25Y253D01*
X25Y254D01*
X24Y255D01*
X24Y257D01*
X23Y258D01*
X23Y260D01*
X22Y261D01*
X22Y263D01*
X21Y264D01*
X21Y265D01*
X20Y266D01*
X20Y268D01*
X19Y269D01*
X19Y271D01*
X18Y272D01*
X18Y275D01*
X17Y276D01*
X17Y278D01*
X16Y279D01*
X16Y281D01*
X15Y282D01*
X15Y285D01*
X14Y286D01*
X14Y288D01*
X13Y289D01*
X13Y292D01*
X12Y293D01*
X12Y296D01*
X11Y297D01*
X11Y300D01*
X10Y301D01*
X10Y304D01*
X9Y305D01*
X9Y308D01*
X8Y309D01*
X8Y313D01*
X7Y314D01*
X7Y318D01*
X6Y319D01*
X6Y324D01*
X5Y325D01*
X5Y330D01*
X4Y331D01*
X4Y337D01*
X3Y338D01*
X3Y345D01*
X2Y346D01*
X2Y355D01*
X1Y356D01*
X1Y369D01*
X0Y370D01*
X0Y5538D01*
X1Y5539D01*
X1Y5552D01*
X2Y5553D01*
X2Y5562D01*
X3Y5563D01*
X3Y5570D01*
X4Y5571D01*
X4Y5577D01*
X5Y5578D01*
X5Y5583D01*
X6Y5584D01*
X6Y5589D01*
X7Y5590D01*
X7Y5594D01*
X8Y5595D01*
X8Y5599D01*
X9Y5600D01*
X9Y5603D01*
X10Y5604D01*
X10Y5607D01*
X11Y5608D01*
X11Y5611D01*
X12Y5612D01*
X12Y5615D01*
X13Y5616D01*
X13Y5619D01*
X14Y5620D01*
X14Y5622D01*
X15Y5623D01*
X15Y5626D01*
X16Y5627D01*
X16Y5629D01*
X17Y5630D01*
X17Y5632D01*
X18Y5633D01*
X18Y5636D01*
X19Y5637D01*
X19Y5639D01*
X20Y5640D01*
X20Y5642D01*
X21Y5643D01*
X21Y5644D01*
X22Y5645D01*
X22Y5647D01*
X23Y5648D01*
X23Y5650D01*
X24Y5651D01*
X24Y5653D01*
X25Y5654D01*
X25Y5655D01*
X26Y5656D01*
X26Y5657D01*
X27Y5658D01*
X27Y5660D01*
X28Y5661D01*
X28Y5662D01*
X29Y5663D01*
X29Y5665D01*
X30Y5666D01*
X30Y5667D01*
X31Y5668D01*
X31Y5670D01*
X32Y5671D01*
X32Y5672D01*
X33Y5673D01*
X33Y5674D01*
X34Y5675D01*
X34Y5676D01*
X35Y5677D01*
X35Y5678D01*
X36Y5679D01*
X36Y5681D01*
X37Y5682D01*
X37Y5683D01*
X38Y5684D01*
X38Y5685D01*
X39Y5686D01*
X39Y5687D01*
X40Y5688D01*
X40Y5689D01*
X41Y5690D01*
X41Y5691D01*
X42Y5692D01*
X42Y5693D01*
X43Y5694D01*
X43Y5695D01*
X44Y5696D01*
X45Y5697D01*
X45Y5698D01*
X46Y5699D01*
X46Y5700D01*
X47Y5701D01*
X47Y5702D01*
X48Y5703D01*
X48Y5704D01*
X49Y5705D01*
X49Y5706D01*
X50Y5707D01*
X51Y5708D01*
X51Y5709D01*
X52Y5710D01*
X52Y5711D01*
X53Y5712D01*
X54Y5713D01*
X54Y5714D01*
X55Y5715D01*
X55Y5716D01*
X56Y5717D01*
X57Y5718D01*
X57Y5719D01*
X58Y5720D01*
X58Y5721D01*
X59Y5722D01*
X60Y5723D01*
X60Y5724D01*
X61Y5725D01*
X62Y5726D01*
X62Y5727D01*
X63Y5728D01*
X64Y5729D01*
X64Y5730D01*
X65Y5731D01*
X66Y5732D01*
X66Y5733D01*
X67Y5734D01*
X68Y5735D01*
X68Y5736D01*
X69Y5737D01*
X70Y5738D01*
X70Y5739D01*
X71Y5740D01*
X72Y5741D01*
X73Y5742D01*
X73Y5743D01*
X74Y5744D01*
X75Y5745D01*
X76Y5746D01*
X76Y5747D01*
X77Y5748D01*
X78Y5749D01*
X78Y5750D01*
X79Y5751D01*
X80Y5752D01*
X81Y5753D01*
X82Y5754D01*
X82Y5755D01*
X83Y5756D01*
X84Y5757D01*
X85Y5758D01*
X86Y5759D01*
X87Y5760D01*
X87Y5761D01*
X88Y5762D01*
X89Y5763D01*
X90Y5764D01*
X91Y5765D01*
X91Y5766D01*
X92Y5767D01*
X93Y5768D01*
X94Y5769D01*
X95Y5770D01*
X96Y5771D01*
X97Y5772D01*
X98Y5773D01*
X98Y5774D01*
X99Y5775D01*
X100Y5776D01*
X101Y5777D01*
X102Y5778D01*
X103Y5779D01*
X104Y5780D01*
X105Y5781D01*
X106Y5782D01*
X107Y5783D01*
X108Y5784D01*
X109Y5785D01*
X110Y5786D01*
X111Y5787D01*
X112Y5788D01*
X113Y5789D01*
X114Y5790D01*
X115Y5791D01*
X116Y5792D01*
X117Y5793D01*
X118Y5794D01*
X119Y5795D01*
X120Y5796D01*
X121Y5797D01*
X122Y5798D01*
X123Y5799D01*
X124Y5800D01*
X125Y5801D01*
X126Y5802D01*
X127Y5803D01*
X128Y5804D01*
X129Y5805D01*
X130Y5805D01*
X131Y5806D01*
X132Y5807D01*
X133Y5808D01*
X134Y5809D01*
X135Y5810D01*
X136Y5810D01*
X137Y5811D01*
X138Y5812D01*
X139Y5813D01*
X140Y5814D01*
X141Y5815D01*
X142Y5816D01*
X143Y5816D01*
X144Y5817D01*
X145Y5818D01*
X146Y5819D01*
X147Y5820D01*
X148Y5820D01*
X149Y5821D01*
X150Y5822D01*
X151Y5823D01*
X152Y5823D01*
X153Y5824D01*
X154Y5825D01*
X155Y5826D01*
X156Y5826D01*
X157Y5827D01*
X158Y5828D01*
X159Y5829D01*
X160Y5829D01*
X161Y5830D01*
X162Y5831D01*
X163Y5832D01*
X164Y5832D01*
X165Y5833D01*
X166Y5834D01*
X167Y5834D01*
X168Y5835D01*
X169Y5836D01*
X170Y5836D01*
X171Y5837D01*
X172Y5838D01*
X173Y5839D01*
X174Y5839D01*
X175Y5840D01*
X176Y5841D01*
X177Y5841D01*
X178Y5842D01*
X179Y5842D01*
X180Y5843D01*
X181Y5844D01*
X182Y5844D01*
X183Y5845D01*
X184Y5846D01*
X185Y5846D01*
X186Y5847D01*
X187Y5847D01*
X188Y5848D01*
X189Y5849D01*
X190Y5849D01*
X191Y5850D01*
X192Y5850D01*
X193Y5851D01*
X194Y5852D01*
X195Y5852D01*
X196Y5853D01*
X197Y5853D01*
X198Y5854D01*
X199Y5854D01*
X200Y5855D01*
X201Y5856D01*
X202Y5856D01*
X203Y5857D01*
X204Y5857D01*
X205Y5858D01*
X206Y5858D01*
X207Y5859D01*
X208Y5859D01*
X209Y5860D01*
X210Y5860D01*
X211Y5861D01*
X212Y5861D01*
X213Y5862D01*
X214Y5862D01*
X215Y5863D01*
X216Y5863D01*
X217Y5864D01*
X218Y5864D01*
X219Y5865D01*
X220Y5865D01*
X221Y5866D01*
X222Y5866D01*
X223Y5867D01*
X224Y5867D01*
X225Y5868D01*
X226Y5868D01*
X227Y5869D01*
X228Y5869D01*
X229Y5870D01*
X230Y5870D01*
X231Y5871D01*
X232Y5871D01*
X233Y5871D01*
X234Y5872D01*
X235Y5872D01*
X236Y5873D01*
X237Y5873D01*
X238Y5874D01*
X239Y5874D01*
X240Y5875D01*
X241Y5875D01*
X242Y5875D01*
X243Y5876D01*
X244Y5876D01*
X245Y5877D01*
X246Y5877D01*
X247Y5877D01*
X248Y5878D01*
X249Y5878D01*
X250Y5879D01*
X251Y5879D01*
X252Y5879D01*
X253Y5880D01*
X254Y5880D01*
X255Y5880D01*
X256Y5881D01*
X257Y5881D01*
X258Y5882D01*
X259Y5882D01*
X260Y5882D01*
X261Y5883D01*
X262Y5883D01*
X263Y5883D01*
X264Y5884D01*
X265Y5884D01*
X266Y5884D01*
X267Y5885D01*
X268Y5885D01*
X269Y5885D01*
X270Y5886D01*
X271Y5886D01*
X272Y5886D01*
X273Y5887D01*
X274Y5887D01*
X275Y5887D01*
X276Y5888D01*
X277Y5888D01*
X278Y5888D01*
X279Y5889D01*
X280Y5889D01*
X281Y5889D01*
X282Y5890D01*
X283Y5890D01*
X284Y5890D01*
X285Y5890D01*
X286Y5891D01*
X287Y5891D01*
X288Y5891D01*
X289Y5892D01*
X290Y5892D01*
X291Y5892D01*
X292Y5892D01*
X293Y5893D01*
X294Y5893D01*
X295Y5893D01*
X296Y5893D01*
X297Y5894D01*
X298Y5894D01*
X299Y5894D01*
X300Y5894D01*
X301Y5895D01*
X302Y5895D01*
X303Y5895D01*
X304Y5895D01*
X305Y5896D01*
X306Y5896D01*
X307Y5896D01*
X308Y5896D01*
X309Y5897D01*
X310Y5897D01*
X311Y5897D01*
X312Y5897D01*
X313Y5897D01*
X314Y5898D01*
X315Y5898D01*
X316Y5898D01*
X317Y5898D01*
X318Y5898D01*
X319Y5899D01*
X320Y5899D01*
X321Y5899D01*
X322Y5899D01*
X323Y5899D01*
X324Y5900D01*
X325Y5900D01*
X326Y5900D01*
X327Y5900D01*
X328Y5900D01*
X329Y5900D01*
X330Y5901D01*
X331Y5901D01*
X332Y5901D01*
X333Y5901D01*
X334Y5901D01*
X335Y5901D01*
X336Y5902D01*
X337Y5902D01*
X338Y5902D01*
X339Y5902D01*
X340Y5902D01*
X341Y5902D01*
X342Y5902D01*
X343Y5902D01*
X344Y5903D01*
X345Y5903D01*
X346Y5903D01*
X347Y5903D01*
X348Y5903D01*
X349Y5903D01*
X350Y5903D01*
X351Y5903D01*
X352Y5904D01*
X353Y5904D01*
X354Y5904D01*
X355Y5904D01*
X356Y5904D01*
X357Y5904D01*
X358Y5904D01*
X359Y5904D01*
X360Y5904D01*
X361Y5904D01*
X362Y5905D01*
X363Y5905D01*
X364Y5905D01*
X365Y5905D01*
X366Y5905D01*
X367Y5905D01*
X368Y5905D01*
X369Y5905D01*
X370Y5905D01*
X371Y5905D01*
X372Y5905D01*
X373Y5905D01*
X374Y5905D01*
X375Y5905D01*
X376Y5906D01*
D02*
G04 End of contour*
M02*