G04 MADE WITH FRITZING*
G04 WWW.FRITZING.ORG*
G04 DOUBLE SIDED*
G04 HOLES PLATED*
G04 CONTOUR ON CENTER OF CONTOUR VECTOR*
%ASAXBY*%
%FSLAX23Y23*%
%MOIN*%
%OFA0B0*%
%SFA1.0B1.0*%
%ADD10C,0.088000*%
%ADD11C,0.293464*%
%ADD12C,0.085000*%
%ADD13C,0.076194*%
%ADD14C,0.076222*%
%ADD15C,0.075000*%
%ADD16R,0.088000X0.088000*%
%ADD17R,0.085000X0.085000*%
%LNMASK1*%
G90*
G70*
G54D10*
X814Y1382D03*
X814Y1282D03*
X814Y1182D03*
X814Y1082D03*
X814Y982D03*
X3214Y1782D03*
X3114Y1782D03*
X3014Y1782D03*
X2914Y1782D03*
G54D11*
X3614Y5582D03*
X314Y5582D03*
X314Y282D03*
X3614Y282D03*
G54D10*
X3014Y1782D03*
X2914Y1782D03*
G54D12*
X2614Y382D03*
X2870Y382D03*
X2614Y205D03*
X2870Y205D03*
G54D10*
X814Y1382D03*
X814Y1182D03*
X814Y982D03*
G54D13*
X1214Y4082D03*
X1114Y4082D03*
X1014Y4082D03*
X914Y4082D03*
X814Y4082D03*
G54D14*
X1674Y2182D03*
X1774Y2182D03*
X1874Y2182D03*
X1974Y2182D03*
X2074Y2182D03*
X2174Y2182D03*
X2274Y2182D03*
X2374Y2182D03*
X2474Y2182D03*
X2574Y2182D03*
X814Y2182D03*
X914Y2182D03*
X1014Y2182D03*
X1114Y2182D03*
X1214Y2182D03*
X1314Y2182D03*
X1414Y2182D03*
X1514Y2182D03*
G54D13*
X2114Y4082D03*
X2214Y4082D03*
X2014Y4082D03*
X1914Y4082D03*
X1814Y4082D03*
X1714Y4082D03*
X1614Y4082D03*
X1514Y4082D03*
X1314Y4082D03*
G54D12*
X1314Y1282D03*
X1414Y1282D03*
X2714Y582D03*
X2814Y582D03*
X2214Y582D03*
X2314Y582D03*
X1214Y582D03*
X1314Y582D03*
X2014Y1282D03*
X2114Y1282D03*
X1214Y1082D03*
X1514Y1082D03*
X1914Y1082D03*
X2214Y1082D03*
X2614Y1082D03*
X2914Y1082D03*
X2114Y382D03*
X2370Y382D03*
X2114Y205D03*
X2370Y205D03*
X1114Y382D03*
X1370Y382D03*
X1114Y205D03*
X1370Y205D03*
X714Y5582D03*
X814Y5582D03*
X914Y5582D03*
X1014Y5582D03*
X1114Y5582D03*
X1214Y5582D03*
X1314Y5582D03*
X1414Y5582D03*
X1514Y5582D03*
X1614Y5582D03*
X1714Y5582D03*
X1814Y5582D03*
X1914Y5582D03*
X2014Y5582D03*
X2114Y5582D03*
X2214Y5582D03*
G54D15*
X1714Y1682D03*
X1793Y1682D03*
X1871Y1682D03*
X1950Y1682D03*
G54D12*
X914Y5782D03*
X1014Y5782D03*
X2714Y1282D03*
X2814Y1282D03*
X1714Y582D03*
X1814Y582D03*
X1614Y382D03*
X1870Y382D03*
X1614Y205D03*
X1870Y205D03*
G54D16*
X3014Y1782D03*
X814Y1382D03*
G54D17*
X713Y5583D03*
G04 End of Mask1*
M02*