; NON-PLATED HOLES START AT T1
; THROUGH (PLATED) HOLES START AT T100
M48
INCH
T100C0.025000
T101C0.125984
T102C0.038000
T103C0.038417
T104C0.035000
T105C0.038444
%
T100
X018711Y016821
X017137Y016821
X017925Y016821
X019499Y016821
T101
X003137Y002821
X036137Y002821
X003137Y055821
X036137Y055821
T102
X008137Y009821
X029137Y017821
X008137Y013821
X030137Y017821
X031137Y017821
X032137Y017821
X008137Y010821
X008137Y011821
X008137Y012821
T103
X021137Y040821
X019137Y040821
X012137Y040821
X013137Y040821
X022137Y040821
X015137Y040821
X016137Y040821
X008137Y040821
X017137Y040821
X018137Y040821
X010137Y040821
X011137Y040821
X009137Y040821
X020137Y040821
T104
X021137Y003821
X009137Y057821
X026137Y003821
X023696Y002049
X013137Y012821
X028696Y002049
X014137Y012821
X011137Y002049
X009137Y055821
X007137Y055821
X016137Y002049
X010137Y057821
X012137Y010821
X008137Y055821
X019137Y010821
X015137Y010821
X020137Y012821
X027137Y012821
X021137Y012821
X013696Y003821
X012137Y055821
X010137Y055821
X028137Y012821
X021137Y002049
X018696Y003821
X019137Y055821
X017137Y055821
X015137Y055821
X013137Y055821
X011137Y055821
X022137Y010821
X026137Y002049
X018137Y055821
X016137Y055821
X014137Y055821
X012137Y005821
X017137Y005821
X013137Y005821
X026137Y010821
X018137Y005821
X029137Y010821
X023696Y003821
X022137Y055821
X020137Y055821
X028696Y003821
X021137Y055821
X011137Y003821
X022137Y005821
X016137Y003821
X013696Y002049
X023137Y005821
X027137Y005821
X018696Y002049
X028137Y005821
T105
X011137Y021821
X017737Y021821
X009137Y021821
X018737Y021821
X020737Y021821
X012137Y021821
X021737Y021821
X013137Y021821
X019737Y021821
X014137Y021821
X022737Y021821
X023737Y021821
X015137Y021821
X008137Y021821
X024737Y021821
X025737Y021821
X010137Y021821
X016737Y021821
T00
M30
